{"glyphs":{"0":{"ha":1038,"x_min":0,"x_max":0,"o":"m 518 -21 b 957 486 781 -21 957 167 b 518 992 957 806 781 992 b 81 486 257 992 81 806 b 518 -21 81 167 257 -21 z m 518 168 b 303 486 378 168 303 271 b 518 803 303 701 378 803 b 735 486 660 803 735 701 b 518 168 735 271 660 168 z "},"1":{"ha":661,"x_min":0,"x_max":0,"o":"m 321 0 l 540 0 l 540 992 l 533 992 l 51 757 l 51 551 l 321 683 z "},"2":{"ha":822,"x_min":0,"x_max":0,"o":"m 35 0 l 767 0 l 767 189 l 418 189 l 571 375 b 731 738 674 501 731 611 b 415 992 731 896 619 992 b 68 931 285 992 171 965 l 68 738 b 365 810 188 785 271 810 b 506 696 457 810 506 768 b 368 417 506 611 464 533 l 35 7 z "},"3":{"ha":840,"x_min":0,"x_max":0,"o":"m 401 -19 b 785 307 631 -19 785 99 b 506 578 785 490 665 578 l 474 576 l 769 965 l 769 972 l 78 972 l 78 783 l 417 783 l 161 442 b 357 469 222 458 288 469 b 558 321 494 469 558 425 b 374 160 558 210 496 160 b 64 233 269 160 172 186 l 64 43 b 401 -19 175 0 271 -19 z "},"4":{"ha":1007,"x_min":0,"x_max":0,"o":"m 611 0 l 824 0 l 824 178 l 963 178 l 963 361 l 824 361 l 824 610 l 631 610 l 621 357 l 340 357 l 668 972 l 439 972 l 25 185 l 25 178 l 611 178 z "},"5":{"ha":832,"x_min":0,"x_max":0,"o":"m 397 -19 b 781 308 639 -19 781 90 b 481 607 781 507 650 607 b 279 564 399 607 329 589 l 304 796 l 726 796 l 726 972 l 138 972 l 75 424 b 350 469 150 447 249 469 b 554 317 485 469 556 426 b 365 161 553 196 482 161 b 63 233 253 161 163 188 l 63 43 b 397 -19 158 7 279 -19 z "},"6":{"ha":969,"x_min":0,"x_max":0,"o":"m 486 -19 b 903 332 739 -19 903 110 b 575 664 903 533 771 664 b 385 608 499 664 440 643 l 660 972 l 404 972 l 192 672 b 67 331 115 567 67 468 b 486 -19 67 108 228 -19 z m 485 158 b 293 329 365 158 293 214 b 485 499 293 444 365 499 b 678 329 604 499 678 444 b 485 158 678 214 604 158 z "},"7":{"ha":842,"x_min":0,"x_max":0,"o":"m 190 0 l 417 0 l 811 965 l 811 972 l 54 972 l 54 783 l 510 783 z "},"8":{"ha":938,"x_min":0,"x_max":0,"o":"m 468 -19 b 879 264 753 -19 879 93 b 685 513 879 378 796 476 b 847 721 781 549 847 619 b 468 993 847 885 719 993 b 90 721 218 993 90 885 b 253 513 90 619 156 549 b 57 264 142 476 57 378 b 468 -19 57 93 183 -19 z m 468 149 b 274 285 329 149 274 196 b 468 431 274 368 332 431 b 663 285 604 431 663 367 b 468 149 663 196 608 149 z m 468 578 b 301 707 350 578 301 629 b 468 833 301 783 350 833 b 636 707 586 833 636 783 b 468 578 636 629 588 578 z "},"9":{"ha":969,"x_min":0,"x_max":0,"o":"m 310 0 l 565 0 l 778 300 b 903 642 854 406 903 504 b 483 992 903 864 742 992 b 67 642 231 992 67 863 b 394 308 67 439 199 308 b 586 364 472 308 531 329 z m 485 474 b 293 643 365 474 293 528 b 485 814 293 760 365 814 b 678 643 604 814 678 760 b 485 474 678 528 604 474 z "},"\r":{"ha":833,"x_min":0,"x_max":0,"o":""}," ":{"ha":426,"x_min":0,"x_max":0,"o":""},"A":{"ha":1031,"x_min":0,"x_max":0,"o":"m 17 0 l 243 0 l 296 158 l 733 158 l 788 0 l 1014 0 l 654 972 l 382 972 z m 354 332 l 517 796 l 678 332 z "},"Á":{"ha":1031,"x_min":0,"x_max":0,"o":"m 17 0 l 243 0 l 296 158 l 733 158 l 788 0 l 1014 0 l 654 972 l 382 972 z m 401 1065 l 607 1065 l 833 1304 l 575 1304 z m 354 332 l 517 796 l 678 332 z "},"Ă":{"ha":1031,"x_min":0,"x_max":0,"o":"m 17 0 l 243 0 l 296 158 l 733 158 l 788 0 l 1014 0 l 654 972 l 382 972 z m 517 1065 b 807 1304 700 1065 810 1149 l 621 1304 b 517 1210 619 1238 581 1210 b 413 1304 453 1210 415 1238 l 226 1304 b 517 1065 225 1149 333 1065 z m 354 332 l 517 796 l 678 332 z "},"Â":{"ha":1031,"x_min":0,"x_max":0,"o":"m 17 0 l 243 0 l 296 158 l 733 158 l 788 0 l 1014 0 l 654 972 l 382 972 z m 176 1065 l 375 1065 l 515 1167 l 656 1065 l 854 1065 l 619 1303 l 410 1303 z m 354 332 l 517 796 l 678 332 z "},"Ä":{"ha":1031,"x_min":0,"x_max":0,"o":"m 17 0 l 243 0 l 296 158 l 733 158 l 788 0 l 1014 0 l 654 972 l 382 972 z m 711 1074 b 839 1192 783 1074 839 1124 b 711 1311 839 1261 783 1311 b 585 1192 642 1311 585 1261 b 711 1074 585 1124 642 1074 z m 317 1074 b 444 1192 388 1074 444 1124 b 317 1311 444 1261 388 1311 b 190 1192 246 1311 190 1261 b 317 1074 190 1124 246 1074 z m 354 332 l 517 796 l 678 332 z "},"À":{"ha":1031,"x_min":0,"x_max":0,"o":"m 17 0 l 243 0 l 296 158 l 733 158 l 788 0 l 1014 0 l 654 972 l 382 972 z m 428 1065 l 632 1065 l 460 1304 l 200 1304 z m 354 332 l 517 796 l 678 332 z "},"Ā":{"ha":1031,"x_min":0,"x_max":0,"o":"m 17 0 l 243 0 l 296 158 l 733 158 l 788 0 l 1014 0 l 654 972 l 382 972 z m 257 1089 l 775 1089 l 775 1219 l 257 1219 z m 354 332 l 517 796 l 678 332 z "},"Ą":{"ha":1031,"x_min":0,"x_max":0,"o":"m 17 0 l 243 0 l 296 158 l 733 158 l 788 0 l 892 0 b 746 -226 810 -72 746 -142 b 882 -337 746 -296 797 -337 b 1008 -312 933 -337 974 -328 l 1008 -189 b 954 -200 990 -196 972 -200 b 915 -161 929 -200 915 -187 b 1014 0 915 -117 954 -61 l 654 972 l 382 972 z m 354 332 l 517 796 l 678 332 z "},"Å":{"ha":1031,"x_min":0,"x_max":0,"o":"m 17 0 l 243 0 l 296 158 l 733 158 l 788 0 l 1014 0 l 654 972 l 382 972 z m 515 1065 b 765 1215 668 1065 765 1121 b 515 1367 765 1311 668 1367 b 267 1215 364 1367 267 1311 b 515 1065 267 1119 364 1065 z m 515 1161 b 438 1215 468 1161 438 1183 b 515 1271 438 1249 469 1271 b 594 1215 563 1271 594 1249 b 515 1161 594 1183 563 1161 z m 354 332 l 517 796 l 678 332 z "},"Ã":{"ha":1031,"x_min":0,"x_max":0,"o":"m 17 0 l 243 0 l 296 158 l 733 158 l 788 0 l 1014 0 l 654 972 l 382 972 z m 254 1065 l 392 1065 b 381 1114 386 1078 381 1094 b 418 1151 381 1133 392 1151 b 672 1065 479 1151 557 1065 b 810 1189 756 1065 810 1119 b 778 1303 810 1233 794 1274 l 640 1303 b 651 1254 646 1290 651 1274 b 614 1217 651 1235 640 1217 b 360 1303 553 1217 475 1303 b 222 1181 276 1303 222 1247 b 254 1065 222 1136 236 1096 z m 354 332 l 517 796 l 678 332 z "},"Æ":{"ha":1526,"x_min":0,"x_max":0,"o":"m 7 0 l 254 0 l 357 158 l 754 158 l 754 0 l 1444 0 l 1444 179 l 975 179 l 975 406 l 1408 406 l 1408 567 l 975 567 l 975 793 l 1444 793 l 1444 972 l 629 972 z m 457 332 l 754 792 l 754 332 z "},"Ǽ":{"ha":1526,"x_min":0,"x_max":0,"o":"m 7 0 l 254 0 l 357 158 l 754 158 l 754 0 l 1444 0 l 1444 179 l 975 179 l 975 406 l 1408 406 l 1408 567 l 975 567 l 975 793 l 1444 793 l 1444 972 l 629 972 z m 457 332 l 754 792 l 754 332 z m 922 1065 l 1128 1065 l 1354 1304 l 1096 1304 z "},"B":{"ha":1039,"x_min":0,"x_max":0,"o":"m 122 0 l 588 0 b 974 256 844 0 974 86 b 692 500 974 404 872 492 l 692 503 b 946 732 858 515 946 596 b 586 972 946 893 825 972 l 122 972 z m 536 561 l 347 561 l 347 808 l 540 808 b 717 693 663 808 717 772 b 536 561 717 608 653 561 z m 347 164 l 347 417 l 540 417 b 739 292 682 417 739 381 b 540 164 739 201 681 164 z "},"C":{"ha":990,"x_min":0,"x_max":0,"o":"m 613 -19 b 924 22 704 -19 822 -6 l 924 231 b 618 181 817 197 704 181 b 310 486 431 181 310 289 b 618 792 310 685 431 792 b 914 740 701 792 813 774 l 914 949 b 611 992 804 978 699 992 b 75 486 299 992 75 790 b 613 -19 75 182 299 -19 z "},"Ć":{"ha":990,"x_min":0,"x_max":0,"o":"m 613 -19 b 924 22 704 -19 822 -6 l 924 231 b 618 181 817 197 704 181 b 310 486 431 181 310 289 b 618 792 310 685 431 792 b 914 740 701 792 813 774 l 914 949 b 611 992 804 978 699 992 b 75 486 299 992 75 790 b 613 -19 75 182 299 -19 z m 489 1065 l 694 1065 l 921 1304 l 663 1304 z "},"Č":{"ha":990,"x_min":0,"x_max":0,"o":"m 613 -19 b 924 22 704 -19 822 -6 l 924 231 b 618 181 817 197 704 181 b 310 486 431 181 310 289 b 618 792 310 685 431 792 b 914 740 701 792 813 774 l 914 949 b 611 992 804 978 699 992 b 75 486 299 992 75 790 b 613 -19 75 182 299 -19 z m 500 1065 l 710 1065 l 944 1303 l 746 1303 l 606 1201 l 465 1303 l 267 1303 z "},"Ç":{"ha":990,"x_min":0,"x_max":0,"o":"m 618 -337 b 788 -203 722 -337 788 -287 b 622 -82 788 -111 713 -74 l 663 -18 b 924 22 744 -14 840 -1 l 924 231 b 618 181 817 197 704 181 b 310 486 431 181 310 289 b 618 792 310 685 431 792 b 914 740 701 792 813 774 l 914 949 b 611 992 804 978 699 992 b 75 486 299 992 75 790 b 560 -18 75 199 274 4 l 482 -165 b 567 -160 507 -161 533 -160 b 626 -192 607 -160 626 -171 b 572 -224 626 -214 606 -224 b 464 -196 538 -224 501 -211 l 464 -312 b 618 -337 513 -328 553 -337 z "},"Ĉ":{"ha":990,"x_min":0,"x_max":0,"o":"m 613 -19 b 924 22 704 -19 822 -6 l 924 231 b 618 181 817 197 704 181 b 310 486 431 181 310 289 b 618 792 310 685 431 792 b 914 740 701 792 813 774 l 914 949 b 611 992 804 978 699 992 b 75 486 299 992 75 790 b 613 -19 75 182 299 -19 z m 265 1065 l 464 1065 l 604 1167 l 744 1065 l 943 1065 l 708 1303 l 499 1303 z "},"Ċ":{"ha":990,"x_min":0,"x_max":0,"o":"m 613 -19 b 924 22 704 -19 822 -6 l 924 231 b 618 181 817 197 704 181 b 310 486 431 181 310 289 b 618 792 310 685 431 792 b 914 740 701 792 813 774 l 914 949 b 611 992 804 978 699 992 b 75 486 299 992 75 790 b 613 -19 75 182 299 -19 z m 603 1076 b 746 1197 683 1076 746 1125 b 603 1317 746 1268 683 1317 b 463 1197 525 1317 463 1268 b 603 1076 463 1125 525 1076 z "},"D":{"ha":1168,"x_min":0,"x_max":0,"o":"m 122 0 l 554 0 b 1093 486 899 0 1093 176 b 554 972 1093 796 899 972 l 122 972 z m 554 200 l 347 200 l 347 772 l 554 772 b 860 486 758 772 860 676 b 554 200 860 296 758 200 z "},"Ð":{"ha":1168,"x_min":0,"x_max":0,"o":"m 122 0 l 554 0 b 1093 486 899 0 1093 176 b 554 972 1093 796 899 972 l 122 972 l 122 556 l 43 556 l 43 435 l 122 435 z m 554 200 l 347 200 l 347 435 l 613 435 l 613 556 l 347 556 l 347 772 l 554 772 b 860 486 758 772 860 676 b 554 200 860 296 758 200 z "},"Ď":{"ha":1168,"x_min":0,"x_max":0,"o":"m 122 0 l 554 0 b 1093 486 899 0 1093 176 b 554 972 1093 796 899 972 l 122 972 z m 554 200 l 347 200 l 347 772 l 554 772 b 860 486 758 772 860 676 b 554 200 860 296 758 200 z m 431 1065 l 640 1065 l 875 1303 l 676 1303 l 536 1201 l 396 1303 l 197 1303 z "},"Đ":{"ha":1168,"x_min":0,"x_max":0,"o":"m 122 0 l 554 0 b 1093 486 899 0 1093 176 b 554 972 1093 796 899 972 l 122 972 l 122 556 l 43 556 l 43 435 l 122 435 z m 554 200 l 347 200 l 347 435 l 613 435 l 613 556 l 347 556 l 347 772 l 554 772 b 860 486 758 772 860 676 b 554 200 860 296 758 200 z "},"E":{"ha":913,"x_min":0,"x_max":0,"o":"m 122 0 l 831 0 l 831 179 l 347 179 l 347 406 l 794 406 l 794 567 l 347 567 l 347 793 l 831 793 l 831 972 l 122 972 z "},"É":{"ha":913,"x_min":0,"x_max":0,"o":"m 122 0 l 831 0 l 831 179 l 347 179 l 347 406 l 794 406 l 794 567 l 347 567 l 347 793 l 831 793 l 831 972 l 122 972 z m 365 1065 l 571 1065 l 797 1304 l 539 1304 z "},"Ĕ":{"ha":913,"x_min":0,"x_max":0,"o":"m 122 0 l 831 0 l 831 179 l 347 179 l 347 406 l 794 406 l 794 567 l 347 567 l 347 793 l 831 793 l 831 972 l 122 972 z m 481 1065 b 771 1304 664 1065 774 1149 l 585 1304 b 481 1210 583 1238 544 1210 b 376 1304 417 1210 379 1238 l 190 1304 b 481 1065 189 1149 297 1065 z "},"Ě":{"ha":913,"x_min":0,"x_max":0,"o":"m 122 0 l 831 0 l 831 179 l 347 179 l 347 406 l 794 406 l 794 567 l 347 567 l 347 793 l 831 793 l 831 972 l 122 972 z m 376 1065 l 586 1065 l 821 1303 l 622 1303 l 482 1201 l 342 1303 l 143 1303 z "},"Ê":{"ha":913,"x_min":0,"x_max":0,"o":"m 122 0 l 831 0 l 831 179 l 347 179 l 347 406 l 794 406 l 794 567 l 347 567 l 347 793 l 831 793 l 831 972 l 122 972 z m 142 1065 l 340 1065 l 481 1167 l 621 1065 l 819 1065 l 585 1303 l 375 1303 z "},"Ë":{"ha":913,"x_min":0,"x_max":0,"o":"m 122 0 l 831 0 l 831 179 l 347 179 l 347 406 l 794 406 l 794 567 l 347 567 l 347 793 l 831 793 l 831 972 l 122 972 z m 676 1074 b 804 1192 749 1074 804 1124 b 676 1311 804 1261 749 1311 b 550 1192 607 1311 550 1261 b 676 1074 550 1124 607 1074 z m 282 1074 b 410 1192 353 1074 410 1124 b 282 1311 410 1261 353 1311 b 156 1192 211 1311 156 1261 b 282 1074 156 1124 211 1074 z "},"Ė":{"ha":913,"x_min":0,"x_max":0,"o":"m 122 0 l 831 0 l 831 179 l 347 179 l 347 406 l 794 406 l 794 567 l 347 567 l 347 793 l 831 793 l 831 972 l 122 972 z m 479 1076 b 622 1197 560 1076 622 1125 b 479 1317 622 1268 560 1317 b 339 1197 401 1317 339 1268 b 479 1076 339 1125 401 1076 z "},"È":{"ha":913,"x_min":0,"x_max":0,"o":"m 122 0 l 831 0 l 831 179 l 347 179 l 347 406 l 794 406 l 794 567 l 347 567 l 347 793 l 831 793 l 831 972 l 122 972 z m 392 1065 l 596 1065 l 424 1304 l 164 1304 z "},"Ē":{"ha":913,"x_min":0,"x_max":0,"o":"m 122 0 l 831 0 l 831 179 l 347 179 l 347 406 l 794 406 l 794 567 l 347 567 l 347 793 l 831 793 l 831 972 l 122 972 z m 221 1089 l 739 1089 l 739 1219 l 221 1219 z "},"Ę":{"ha":913,"x_min":0,"x_max":0,"o":"m 122 0 l 708 0 b 563 -226 626 -72 563 -142 b 699 -337 563 -296 614 -337 b 825 -312 750 -337 790 -328 l 825 -189 b 771 -200 807 -196 789 -200 b 732 -161 746 -200 732 -187 b 831 0 732 -117 771 -61 l 831 179 l 347 179 l 347 406 l 794 406 l 794 567 l 347 567 l 347 793 l 831 793 l 831 972 l 122 972 z "},"F":{"ha":878,"x_min":0,"x_max":0,"o":"m 122 0 l 347 0 l 347 338 l 767 338 l 767 506 l 347 506 l 347 772 l 806 772 l 806 972 l 122 972 z "},"G":{"ha":1121,"x_min":0,"x_max":0,"o":"m 472 -19 b 826 328 676 -19 804 107 l 829 328 l 846 -1 l 1024 0 l 1024 499 l 806 499 b 540 181 794 294 699 181 b 310 471 390 181 310 278 b 643 792 310 686 415 792 b 999 735 742 792 847 778 l 999 939 b 639 992 856 978 747 992 b 75 461 278 992 75 800 b 472 -19 75 164 226 -19 z "},"Ğ":{"ha":1121,"x_min":0,"x_max":0,"o":"m 472 -19 b 826 328 676 -19 804 107 l 829 328 l 846 -1 l 1024 0 l 1024 499 l 806 499 b 540 181 794 294 699 181 b 310 471 390 181 310 278 b 643 792 310 686 415 792 b 999 735 742 792 847 778 l 999 939 b 639 992 856 978 747 992 b 75 461 278 992 75 800 b 472 -19 75 164 226 -19 z m 604 1065 b 894 1304 788 1065 897 1149 l 708 1304 b 604 1210 707 1238 668 1210 b 500 1304 540 1210 503 1238 l 314 1304 b 604 1065 313 1149 421 1065 z "},"Ĝ":{"ha":1121,"x_min":0,"x_max":0,"o":"m 472 -19 b 826 328 676 -19 804 107 l 829 328 l 846 -1 l 1024 0 l 1024 499 l 806 499 b 540 181 794 294 699 181 b 310 471 390 181 310 278 b 643 792 310 686 415 792 b 999 735 742 792 847 778 l 999 939 b 639 992 856 978 747 992 b 75 461 278 992 75 800 b 472 -19 75 164 226 -19 z m 265 1065 l 464 1065 l 604 1167 l 744 1065 l 943 1065 l 708 1303 l 499 1303 z "},"Ģ":{"ha":1121,"x_min":0,"x_max":0,"o":"m 472 -19 b 826 328 676 -19 804 107 l 829 328 l 846 -1 l 1024 0 l 1024 499 l 806 499 b 540 181 794 294 699 181 b 310 471 390 181 310 278 b 643 792 310 686 415 792 b 999 735 742 792 847 778 l 999 939 b 639 992 856 978 747 992 b 75 461 278 992 75 800 b 472 -19 75 164 226 -19 z m 499 -382 l 654 -382 l 747 -97 l 542 -97 z "},"Ġ":{"ha":1121,"x_min":0,"x_max":0,"o":"m 472 -19 b 826 328 676 -19 804 107 l 829 328 l 846 -1 l 1024 0 l 1024 499 l 806 499 b 540 181 794 294 699 181 b 310 471 390 181 310 278 b 643 792 310 686 415 792 b 999 735 742 792 847 778 l 999 939 b 639 992 856 978 747 992 b 75 461 278 992 75 800 b 472 -19 75 164 226 -19 z m 603 1076 b 746 1197 683 1076 746 1125 b 603 1317 746 1268 683 1317 b 463 1197 525 1317 463 1268 b 603 1076 463 1125 525 1076 z "},"H":{"ha":1164,"x_min":0,"x_max":0,"o":"m 815 0 l 1042 0 l 1042 972 l 815 972 l 815 575 l 347 575 l 347 972 l 122 972 l 122 0 l 347 0 l 347 375 l 815 375 z "},"Ħ":{"ha":1164,"x_min":0,"x_max":0,"o":"m 122 0 l 347 0 l 347 367 l 815 367 l 815 0 l 1042 0 l 1042 708 l 1121 708 l 1121 838 l 1042 838 l 1042 972 l 815 972 l 815 838 l 347 838 l 347 972 l 122 972 l 122 838 l 43 838 l 43 708 l 122 708 z m 347 567 l 347 708 l 815 708 l 815 567 z "},"Ĥ":{"ha":1164,"x_min":0,"x_max":0,"o":"m 815 0 l 1042 0 l 1042 972 l 815 972 l 815 575 l 347 575 l 347 972 l 122 972 l 122 0 l 347 0 l 347 375 l 815 375 z m 243 1065 l 442 1065 l 582 1167 l 722 1065 l 921 1065 l 686 1303 l 476 1303 z "},"I":{"ha":469,"x_min":0,"x_max":0,"o":"m 122 0 l 347 0 l 347 972 l 122 972 z "},"Ĳ":{"ha":1372,"x_min":0,"x_max":0,"o":"m 122 0 l 347 0 l 347 972 l 122 972 z m 843 -19 b 1257 399 1110 -19 1257 115 l 1257 972 l 592 972 l 592 772 l 1031 772 l 1031 397 b 815 188 1031 256 964 188 b 549 238 718 188 640 206 l 549 22 b 843 -19 635 -1 732 -19 z "},"Í":{"ha":469,"x_min":0,"x_max":0,"o":"m 122 0 l 347 0 l 347 972 l 122 972 z m 140 1065 l 317 1065 l 482 1304 l 253 1304 z "},"Ĭ":{"ha":469,"x_min":0,"x_max":0,"o":"m 122 0 l 347 0 l 347 972 l 122 972 z m 236 1065 b 463 1304 382 1065 464 1151 l 303 1304 b 236 1206 304 1235 278 1206 b 171 1304 196 1206 169 1235 l 11 1304 b 236 1065 10 1151 89 1065 z "},"Î":{"ha":469,"x_min":0,"x_max":0,"o":"m 122 0 l 347 0 l 347 972 l 122 972 z m -24 1065 l 147 1065 l 235 1171 l 322 1065 l 494 1065 l 319 1303 l 150 1303 z "},"Ï":{"ha":469,"x_min":0,"x_max":0,"o":"m 122 0 l 347 0 l 347 972 l 122 972 z m 386 1074 b 504 1192 453 1074 504 1124 b 386 1311 504 1261 453 1311 b 269 1192 319 1311 269 1261 b 386 1074 269 1124 319 1074 z m 82 1074 b 200 1192 149 1074 200 1124 b 82 1311 200 1261 149 1311 b -35 1192 17 1311 -35 1261 b 82 1074 -35 1124 17 1074 z "},"İ":{"ha":469,"x_min":0,"x_max":0,"o":"m 122 0 l 347 0 l 347 972 l 122 972 z m 233 1076 b 376 1197 314 1076 376 1125 b 233 1317 376 1268 314 1317 b 93 1197 156 1317 93 1268 b 233 1076 93 1125 156 1076 z "},"Ì":{"ha":469,"x_min":0,"x_max":0,"o":"m 122 0 l 347 0 l 347 972 l 122 972 z m 149 1065 l 325 1065 l 214 1304 l -17 1304 z "},"Ī":{"ha":469,"x_min":0,"x_max":0,"o":"m 122 0 l 347 0 l 347 972 l 122 972 z m 39 1089 l 431 1089 l 431 1219 l 39 1219 z "},"Į":{"ha":469,"x_min":0,"x_max":0,"o":"m 122 0 l 225 0 b 79 -226 143 -72 79 -142 b 215 -337 79 -296 131 -337 b 342 -312 267 -337 307 -328 l 342 -189 b 288 -200 324 -196 306 -200 b 249 -161 263 -200 249 -187 b 347 0 249 -117 288 -61 l 347 972 l 122 972 z "},"Ĩ":{"ha":469,"x_min":0,"x_max":0,"o":"m 122 0 l 347 0 l 347 972 l 122 972 z m 24 1065 l 146 1065 b 138 1113 142 1079 138 1094 b 168 1150 138 1136 147 1150 b 365 1065 214 1150 271 1065 b 472 1183 433 1065 472 1115 b 442 1300 472 1228 460 1271 l 321 1300 b 329 1256 325 1288 329 1272 b 300 1217 329 1231 319 1217 b 103 1300 254 1217 196 1300 b -6 1183 33 1300 -6 1251 b 24 1065 -6 1139 8 1096 z "},"J":{"ha":903,"x_min":0,"x_max":0,"o":"m 374 -19 b 788 399 640 -19 788 115 l 788 972 l 122 972 l 122 772 l 561 772 l 561 397 b 346 188 561 256 494 188 b 79 238 249 188 171 206 l 79 22 b 374 -19 165 -1 263 -19 z "},"Ĵ":{"ha":903,"x_min":0,"x_max":0,"o":"m 374 -19 b 788 399 640 -19 788 115 l 788 972 l 122 972 l 122 772 l 561 772 l 561 397 b 346 188 561 256 494 188 b 79 238 249 188 171 206 l 79 22 b 374 -19 165 -1 263 -19 z m 104 1065 l 303 1065 l 443 1167 l 583 1065 l 782 1065 l 547 1303 l 338 1303 z "},"K":{"ha":1088,"x_min":0,"x_max":0,"o":"m 742 222 l 810 0 l 1060 0 l 963 281 b 721 481 919 406 851 463 l 642 490 l 642 493 b 986 972 883 533 961 703 l 757 972 b 475 561 742 735 672 561 l 347 561 l 347 972 l 122 972 l 122 0 l 347 0 l 347 389 l 475 389 b 742 222 624 389 704 342 z "},"Ķ":{"ha":1088,"x_min":0,"x_max":0,"o":"m 742 222 l 810 0 l 1060 0 l 963 281 b 721 481 919 406 851 463 l 642 490 l 642 493 b 986 972 883 533 961 703 l 757 972 b 475 561 742 735 672 561 l 347 561 l 347 972 l 122 972 l 122 0 l 347 0 l 347 389 l 475 389 b 742 222 624 389 704 342 z m 422 -382 l 578 -382 l 671 -97 l 465 -97 z "},"L":{"ha":889,"x_min":0,"x_max":0,"o":"m 122 0 l 842 0 l 842 200 l 347 200 l 347 972 l 122 972 z "},"Ĺ":{"ha":889,"x_min":0,"x_max":0,"o":"m 122 0 l 842 0 l 842 200 l 347 200 l 347 972 l 122 972 z m 121 1065 l 326 1065 l 553 1304 l 294 1304 z "},"Ľ":{"ha":890,"x_min":0,"x_max":0,"o":"m 122 0 l 842 0 l 842 200 l 347 200 l 347 972 l 122 972 z m 496 644 l 636 644 l 739 972 l 544 972 z "},"Ļ":{"ha":889,"x_min":0,"x_max":0,"o":"m 122 0 l 842 0 l 842 200 l 347 200 l 347 972 l 122 972 z m 353 -382 l 508 -382 l 601 -97 l 396 -97 z "},"Ŀ":{"ha":893,"x_min":0,"x_max":0,"o":"m 122 0 l 842 0 l 842 200 l 347 200 l 347 972 l 122 972 z m 679 436 b 792 543 746 436 792 483 b 679 651 792 603 746 651 b 565 543 613 651 565 603 b 679 436 565 483 613 436 z "},"Ł":{"ha":890,"x_min":0,"x_max":0,"o":"m 124 0 l 843 0 l 843 200 l 350 200 l 350 490 l 607 588 l 607 742 l 350 646 l 350 972 l 124 972 l 124 561 l 40 529 l 40 374 l 124 406 z "},"M":{"ha":1417,"x_min":0,"x_max":0,"o":"m 704 -19 l 711 -19 l 1076 644 l 1079 644 l 1067 389 l 1067 0 l 1293 0 l 1294 972 l 1044 972 l 708 324 l 371 972 l 122 972 l 124 0 l 349 0 l 349 389 l 338 644 l 340 644 z "},"N":{"ha":1200,"x_min":0,"x_max":0,"o":"m 122 0 l 347 0 l 347 425 l 340 668 l 343 668 l 838 0 l 1078 0 l 1078 972 l 851 972 l 851 547 l 860 304 l 857 304 l 363 972 l 122 972 z "},"Ń":{"ha":1200,"x_min":0,"x_max":0,"o":"m 122 0 l 347 0 l 347 425 l 340 668 l 343 668 l 838 0 l 1078 0 l 1078 972 l 851 972 l 851 547 l 860 304 l 857 304 l 363 972 l 122 972 z m 486 1065 l 692 1065 l 918 1304 l 660 1304 z "},"Ň":{"ha":1200,"x_min":0,"x_max":0,"o":"m 122 0 l 347 0 l 347 425 l 340 668 l 343 668 l 838 0 l 1078 0 l 1078 972 l 851 972 l 851 547 l 860 304 l 857 304 l 363 972 l 122 972 z m 496 1065 l 706 1065 l 940 1303 l 742 1303 l 601 1201 l 461 1303 l 263 1303 z "},"Ņ":{"ha":1200,"x_min":0,"x_max":0,"o":"m 122 0 l 347 0 l 347 425 l 340 668 l 343 668 l 838 0 l 1078 0 l 1078 972 l 851 972 l 851 547 l 860 304 l 857 304 l 363 972 l 122 972 z m 471 -382 l 626 -382 l 719 -97 l 514 -97 z "},"Ñ":{"ha":1200,"x_min":0,"x_max":0,"o":"m 122 0 l 347 0 l 347 425 l 340 668 l 343 668 l 838 0 l 1078 0 l 1078 972 l 851 972 l 851 547 l 860 304 l 857 304 l 363 972 l 122 972 z m 339 1065 l 476 1065 b 465 1114 471 1078 465 1094 b 503 1151 465 1133 476 1151 b 757 1065 564 1151 642 1065 b 894 1189 840 1065 894 1119 b 863 1303 894 1233 879 1274 l 725 1303 b 736 1254 731 1290 736 1274 b 699 1217 736 1235 725 1217 b 444 1303 638 1217 560 1303 b 307 1181 361 1303 307 1247 b 339 1065 307 1136 321 1096 z "},"Ŋ":{"ha":1200,"x_min":0,"x_max":0,"o":"m 122 0 l 347 0 l 347 425 l 340 668 l 343 668 l 835 0 l 851 3 b 772 -125 851 -93 828 -125 b 704 -115 744 -125 725 -121 l 704 -282 b 832 -297 742 -292 783 -297 b 1078 14 1018 -297 1078 -158 l 1078 972 l 851 972 l 851 547 l 860 304 l 857 304 l 363 972 l 122 972 z "},"O":{"ha":1206,"x_min":0,"x_max":0,"o":"m 603 -19 b 1131 486 906 -19 1131 182 b 603 992 1131 790 906 992 b 75 486 300 992 75 790 b 603 -19 75 182 300 -19 z m 603 182 b 310 486 429 182 310 290 b 603 792 310 682 429 792 b 896 486 776 792 896 682 b 603 182 896 290 776 182 z "},"Ó":{"ha":1206,"x_min":0,"x_max":0,"o":"m 603 -19 b 1131 486 906 -19 1131 182 b 603 992 1131 790 906 992 b 75 486 300 992 75 790 b 603 -19 75 182 300 -19 z m 603 182 b 310 486 429 182 310 290 b 603 792 310 682 429 792 b 896 486 776 792 896 682 b 603 182 896 290 776 182 z m 488 1065 l 693 1065 l 919 1304 l 661 1304 z "},"Ŏ":{"ha":1206,"x_min":0,"x_max":0,"o":"m 603 -19 b 1131 486 906 -19 1131 182 b 603 992 1131 790 906 992 b 75 486 300 992 75 790 b 603 -19 75 182 300 -19 z m 603 182 b 310 486 429 182 310 290 b 603 792 310 682 429 792 b 896 486 776 792 896 682 b 603 182 896 290 776 182 z m 603 1065 b 893 1304 786 1065 896 1149 l 707 1304 b 603 1210 706 1238 667 1210 b 499 1304 539 1210 501 1238 l 313 1304 b 603 1065 311 1149 419 1065 z "},"Ô":{"ha":1206,"x_min":0,"x_max":0,"o":"m 603 -19 b 1131 486 906 -19 1131 182 b 603 992 1131 790 906 992 b 75 486 300 992 75 790 b 603 -19 75 182 300 -19 z m 603 182 b 310 486 429 182 310 290 b 603 792 310 682 429 792 b 896 486 776 792 896 682 b 603 182 896 290 776 182 z m 264 1065 l 463 1065 l 603 1167 l 743 1065 l 942 1065 l 707 1303 l 497 1303 z "},"Ö":{"ha":1206,"x_min":0,"x_max":0,"o":"m 603 -19 b 1131 486 906 -19 1131 182 b 603 992 1131 790 906 992 b 75 486 300 992 75 790 b 603 -19 75 182 300 -19 z m 603 182 b 310 486 429 182 310 290 b 603 792 310 682 429 792 b 896 486 776 792 896 682 b 603 182 896 290 776 182 z m 799 1074 b 926 1192 871 1074 926 1124 b 799 1311 926 1261 871 1311 b 672 1192 729 1311 672 1261 b 799 1074 672 1124 729 1074 z m 404 1074 b 532 1192 475 1074 532 1124 b 404 1311 532 1261 475 1311 b 278 1192 333 1311 278 1261 b 404 1074 278 1124 333 1074 z "},"Ò":{"ha":1206,"x_min":0,"x_max":0,"o":"m 603 -19 b 1131 486 906 -19 1131 182 b 603 992 1131 790 906 992 b 75 486 300 992 75 790 b 603 -19 75 182 300 -19 z m 603 182 b 310 486 429 182 310 290 b 603 792 310 682 429 792 b 896 486 776 792 896 682 b 603 182 896 290 776 182 z m 514 1065 l 718 1065 l 546 1304 l 286 1304 z "},"Ő":{"ha":1206,"x_min":0,"x_max":0,"o":"m 603 -19 b 1131 486 906 -19 1131 182 b 603 992 1131 790 906 992 b 75 486 300 992 75 790 b 603 -19 75 182 300 -19 z m 603 182 b 310 486 429 182 310 290 b 603 792 310 682 429 792 b 896 486 776 792 896 682 b 603 182 896 290 776 182 z m 632 1065 l 814 1065 l 994 1303 l 771 1303 z m 325 1065 l 506 1065 l 686 1303 l 463 1303 z "},"Ō":{"ha":1206,"x_min":0,"x_max":0,"o":"m 603 -19 b 1131 486 906 -19 1131 182 b 603 992 1131 790 906 992 b 75 486 300 992 75 790 b 603 -19 75 182 300 -19 z m 603 182 b 310 486 429 182 310 290 b 603 792 310 682 429 792 b 896 486 776 792 896 682 b 603 182 896 290 776 182 z m 343 1089 l 861 1089 l 861 1219 l 343 1219 z "},"Ø":{"ha":1206,"x_min":0,"x_max":0,"o":"m 210 133 l 75 -19 l 235 -19 l 304 58 b 603 -19 388 8 490 -19 b 1131 486 906 -19 1131 182 b 994 839 1131 631 1079 751 l 1131 992 l 971 992 l 901 914 b 603 992 817 964 715 992 b 75 486 300 992 75 790 b 210 133 75 342 125 221 z m 758 756 l 360 297 b 307 486 325 346 307 408 b 603 794 307 683 428 794 b 758 756 663 794 715 781 z m 603 179 b 447 217 543 179 490 192 l 844 675 b 899 486 879 626 899 564 b 603 179 899 289 778 179 z "},"Ǿ":{"ha":1206,"x_min":0,"x_max":0,"o":"m 210 133 l 75 -19 l 235 -19 l 304 58 b 603 -19 388 8 490 -19 b 1131 486 906 -19 1131 182 b 994 839 1131 631 1079 751 l 1131 992 l 971 992 l 901 914 b 603 992 817 964 715 992 b 75 486 300 992 75 790 b 210 133 75 342 125 221 z m 758 756 l 360 297 b 307 486 325 346 307 408 b 603 794 307 683 428 794 b 758 756 663 794 715 781 z m 603 179 b 447 217 543 179 490 192 l 844 675 b 899 486 879 626 899 564 b 603 179 899 289 778 179 z m 488 1065 l 693 1065 l 919 1304 l 661 1304 z "},"Õ":{"ha":1206,"x_min":0,"x_max":0,"o":"m 603 -19 b 1131 486 906 -19 1131 182 b 603 992 1131 790 906 992 b 75 486 300 992 75 790 b 603 -19 75 182 300 -19 z m 603 182 b 310 486 429 182 310 290 b 603 792 310 682 429 792 b 896 486 776 792 896 682 b 603 182 896 290 776 182 z m 342 1065 l 479 1065 b 468 1114 474 1078 468 1094 b 506 1151 468 1133 479 1151 b 760 1065 567 1151 644 1065 b 897 1189 843 1065 897 1119 b 865 1303 897 1233 882 1274 l 728 1303 b 739 1254 733 1290 739 1274 b 701 1217 739 1235 728 1217 b 447 1303 640 1217 563 1303 b 310 1181 364 1303 310 1247 b 342 1065 310 1136 324 1096 z "},"Œ":{"ha":1507,"x_min":0,"x_max":0,"o":"m 603 -19 b 782 0 663 -19 721 -11 l 1425 0 l 1425 179 l 956 179 l 956 406 l 1389 406 l 1389 567 l 956 567 l 956 793 l 1425 793 l 1425 972 l 786 972 b 603 992 726 983 665 992 b 75 486 300 992 75 790 b 603 -19 75 182 300 -19 z m 603 182 b 310 486 429 182 310 290 b 603 792 310 682 429 792 b 735 775 651 792 696 786 l 735 197 b 603 182 694 186 656 182 z "},"P":{"ha":1033,"x_min":0,"x_max":0,"o":"m 122 0 l 347 0 l 347 269 l 518 269 b 975 618 833 269 975 379 b 519 972 975 858 829 972 l 122 972 z m 517 456 l 347 456 l 347 786 l 517 786 b 740 621 681 786 740 742 b 517 456 740 500 681 456 z "},"Þ":{"ha":1033,"x_min":0,"x_max":0,"o":"m 122 0 l 347 0 l 347 150 l 518 150 b 975 499 833 150 975 260 b 519 853 975 739 829 853 l 347 853 l 347 972 l 122 972 z m 517 336 l 347 336 l 347 667 l 517 667 b 740 501 681 667 740 622 b 517 336 740 381 681 336 z "},"Q":{"ha":1206,"x_min":0,"x_max":0,"o":"m 1049 -351 l 1049 -108 b 756 -64 957 -78 856 -64 b 474 -106 654 -64 560 -79 l 474 -103 b 763 4 540 -71 615 -43 b 1131 486 1006 79 1131 256 b 603 992 1131 790 906 992 b 75 486 300 992 75 790 b 578 -3 75 197 275 -7 l 578 -6 b 322 -193 404 -40 322 -99 l 322 -239 b 533 -237 385 -235 458 -233 b 1049 -351 689 -246 868 -281 z m 603 182 b 310 486 429 182 310 290 b 603 792 310 682 429 792 b 896 486 776 792 896 682 b 603 182 896 290 776 182 z "},"R":{"ha":1042,"x_min":0,"x_max":0,"o":"m 122 0 l 347 0 l 347 342 l 486 342 b 686 207 593 342 651 299 l 764 0 l 1014 0 l 907 253 b 679 415 869 347 813 403 l 679 418 b 961 679 819 429 961 518 b 546 972 961 868 838 972 l 122 972 z m 501 490 l 347 490 l 347 792 l 511 792 b 733 644 674 792 733 749 b 501 490 733 535 664 490 z "},"Ŕ":{"ha":1042,"x_min":0,"x_max":0,"o":"m 122 0 l 347 0 l 347 342 l 486 342 b 686 207 593 342 651 299 l 764 0 l 1014 0 l 907 253 b 679 415 869 347 813 403 l 679 418 b 961 679 819 429 961 518 b 546 972 961 868 838 972 l 122 972 z m 501 490 l 347 490 l 347 792 l 511 792 b 733 644 674 792 733 749 b 501 490 733 535 664 490 z m 382 1065 l 588 1065 l 814 1304 l 556 1304 z "},"Ř":{"ha":1042,"x_min":0,"x_max":0,"o":"m 122 0 l 347 0 l 347 342 l 486 342 b 686 207 593 342 651 299 l 764 0 l 1014 0 l 907 253 b 679 415 869 347 813 403 l 679 418 b 961 679 819 429 961 518 b 546 972 961 868 838 972 l 122 972 z m 501 490 l 347 490 l 347 792 l 511 792 b 733 644 674 792 733 749 b 501 490 733 535 664 490 z m 393 1065 l 603 1065 l 838 1303 l 639 1303 l 499 1201 l 358 1303 l 160 1303 z "},"Ŗ":{"ha":1042,"x_min":0,"x_max":0,"o":"m 122 0 l 347 0 l 347 342 l 486 342 b 686 207 593 342 651 299 l 764 0 l 1014 0 l 907 253 b 679 415 869 347 813 403 l 679 418 b 961 679 819 429 961 518 b 546 972 961 868 838 972 l 122 972 z m 501 490 l 347 490 l 347 792 l 511 792 b 733 644 674 792 733 749 b 501 490 733 535 664 490 z m 406 -382 l 561 -382 l 654 -97 l 449 -97 z "},"S":{"ha":957,"x_min":0,"x_max":0,"o":"m 490 -19 b 896 256 747 -19 896 76 b 547 563 896 399 801 490 b 314 708 414 603 314 633 b 474 806 314 771 369 806 b 843 739 583 806 708 783 l 843 935 b 463 990 683 975 578 990 b 83 719 217 990 83 899 b 461 414 83 524 256 467 b 665 263 614 367 665 328 b 488 165 665 193 615 165 b 94 244 351 165 201 196 l 94 43 b 490 -19 225 -1 342 -19 z "},"Ś":{"ha":957,"x_min":0,"x_max":0,"o":"m 490 -19 b 896 256 747 -19 896 76 b 547 563 896 399 801 490 b 314 708 414 603 314 633 b 474 806 314 771 369 806 b 843 739 583 806 708 783 l 843 935 b 463 990 683 975 578 990 b 83 719 217 990 83 899 b 461 414 83 524 256 467 b 665 263 614 367 665 328 b 488 165 665 193 615 165 b 94 244 351 165 201 196 l 94 43 b 490 -19 225 -1 342 -19 z m 369 1065 l 575 1065 l 801 1304 l 543 1304 z "},"Š":{"ha":957,"x_min":0,"x_max":0,"o":"m 490 -19 b 896 256 747 -19 896 76 b 547 563 896 399 801 490 b 314 708 414 603 314 633 b 474 806 314 771 369 806 b 843 739 583 806 708 783 l 843 935 b 463 990 683 975 578 990 b 83 719 217 990 83 899 b 461 414 83 524 256 467 b 665 263 614 367 665 328 b 488 165 665 193 615 165 b 94 244 351 165 201 196 l 94 43 b 490 -19 225 -1 342 -19 z m 381 1065 l 590 1065 l 825 1303 l 626 1303 l 486 1201 l 346 1303 l 147 1303 z "},"Ş":{"ha":957,"x_min":0,"x_max":0,"o":"m 488 -337 b 657 -203 592 -337 657 -287 b 492 -82 657 -111 582 -74 l 531 -18 b 896 256 763 -8 896 86 b 547 563 896 399 801 490 b 314 708 414 603 314 633 b 474 806 314 771 369 806 b 843 739 583 806 708 783 l 843 935 b 463 990 683 975 578 990 b 83 719 217 990 83 899 b 461 414 83 524 256 467 b 665 263 614 367 665 328 b 488 165 665 193 615 165 b 94 244 351 165 201 196 l 94 43 b 429 -18 207 6 308 -14 l 351 -165 b 436 -160 376 -161 403 -160 b 496 -192 476 -160 496 -171 b 442 -224 496 -214 475 -224 b 333 -196 407 -224 371 -211 l 333 -312 b 488 -337 382 -328 422 -337 z "},"Ŝ":{"ha":957,"x_min":0,"x_max":0,"o":"m 490 -19 b 896 256 747 -19 896 76 b 547 563 896 399 801 490 b 314 708 414 603 314 633 b 474 806 314 771 369 806 b 843 739 583 806 708 783 l 843 935 b 463 990 683 975 578 990 b 83 719 217 990 83 899 b 461 414 83 524 256 467 b 665 263 614 367 665 328 b 488 165 665 193 615 165 b 94 244 351 165 201 196 l 94 43 b 490 -19 225 -1 342 -19 z m 146 1065 l 344 1065 l 485 1167 l 625 1065 l 824 1065 l 589 1303 l 379 1303 z "},"Ș":{"ha":957,"x_min":0,"x_max":0,"o":"m 490 -19 b 896 256 747 -19 896 76 b 547 563 896 399 801 490 b 314 708 414 603 314 633 b 474 806 314 771 369 806 b 843 739 583 806 708 783 l 843 935 b 463 990 683 975 578 990 b 83 719 217 990 83 899 b 461 414 83 524 256 467 b 665 263 614 367 665 328 b 488 165 665 193 615 165 b 94 244 351 165 201 196 l 94 43 b 490 -19 225 -1 342 -19 z m 356 -382 l 511 -382 l 604 -97 l 399 -97 z "},"ẞ":{"ha":1156,"x_min":0,"x_max":0,"o":"m 756 -19 b 1100 290 954 -19 1100 101 b 817 554 1100 463 985 554 l 776 554 l 1058 965 l 1058 972 l 122 972 l 122 0 l 339 0 l 339 781 l 735 781 l 510 417 l 510 410 l 721 410 b 883 290 814 410 883 386 b 731 167 883 206 836 167 b 472 222 636 167 568 183 l 472 29 b 756 -19 565 0 643 -19 z "},"T":{"ha":961,"x_min":0,"x_max":0,"o":"m 367 0 l 593 0 l 593 772 l 911 772 l 911 972 l 49 972 l 49 772 l 367 772 z "},"Ŧ":{"ha":965,"x_min":0,"x_max":0,"o":"m 369 0 l 596 0 l 596 351 l 831 351 l 831 501 l 596 501 l 596 772 l 914 772 l 914 972 l 51 972 l 51 772 l 369 772 l 369 501 l 135 501 l 135 351 l 369 351 z "},"Ť":{"ha":961,"x_min":0,"x_max":0,"o":"m 367 0 l 593 0 l 593 772 l 911 772 l 911 972 l 49 972 l 49 772 l 367 772 z m 376 1065 l 586 1065 l 821 1303 l 622 1303 l 482 1201 l 342 1303 l 143 1303 z "},"Ţ":{"ha":961,"x_min":0,"x_max":0,"o":"m 367 0 l 435 0 l 347 -165 b 432 -160 372 -161 399 -160 b 492 -192 472 -160 492 -171 b 438 -224 492 -214 471 -224 b 329 -196 403 -224 367 -211 l 329 -312 b 483 -337 378 -328 418 -337 b 653 -203 588 -337 653 -287 b 488 -82 653 -111 578 -74 l 539 0 l 593 0 l 593 772 l 911 772 l 911 972 l 49 972 l 49 772 l 367 772 z "},"Ț":{"ha":961,"x_min":0,"x_max":0,"o":"m 367 0 l 593 0 l 593 772 l 911 772 l 911 972 l 49 972 l 49 772 l 367 772 z m 353 -382 l 508 -382 l 601 -97 l 396 -97 z "},"U":{"ha":1158,"x_min":0,"x_max":0,"o":"m 579 -19 b 1046 425 871 -19 1046 147 l 1046 972 l 819 972 l 819 425 b 579 181 819 271 732 181 b 338 425 425 181 338 271 l 338 972 l 113 972 l 113 425 b 579 -19 113 147 288 -19 z "},"Ú":{"ha":1158,"x_min":0,"x_max":0,"o":"m 579 -19 b 1046 425 871 -19 1046 147 l 1046 972 l 819 972 l 819 425 b 579 181 819 271 732 181 b 338 425 425 181 338 271 l 338 972 l 113 972 l 113 425 b 579 -19 113 147 288 -19 z m 464 1065 l 669 1065 l 896 1304 l 638 1304 z "},"Ŭ":{"ha":1158,"x_min":0,"x_max":0,"o":"m 579 -19 b 1046 425 871 -19 1046 147 l 1046 972 l 819 972 l 819 425 b 579 181 819 271 732 181 b 338 425 425 181 338 271 l 338 972 l 113 972 l 113 425 b 579 -19 113 147 288 -19 z m 579 1065 b 869 1304 763 1065 872 1149 l 683 1304 b 579 1210 682 1238 643 1210 b 475 1304 515 1210 478 1238 l 289 1304 b 579 1065 288 1149 396 1065 z "},"Û":{"ha":1158,"x_min":0,"x_max":0,"o":"m 579 -19 b 1046 425 871 -19 1046 147 l 1046 972 l 819 972 l 819 425 b 579 181 819 271 732 181 b 338 425 425 181 338 271 l 338 972 l 113 972 l 113 425 b 579 -19 113 147 288 -19 z m 240 1065 l 439 1065 l 579 1167 l 719 1065 l 918 1065 l 683 1303 l 474 1303 z "},"Ü":{"ha":1158,"x_min":0,"x_max":0,"o":"m 579 -19 b 1046 425 871 -19 1046 147 l 1046 972 l 819 972 l 819 425 b 579 181 819 271 732 181 b 338 425 425 181 338 271 l 338 972 l 113 972 l 113 425 b 579 -19 113 147 288 -19 z m 775 1074 b 903 1192 847 1074 903 1124 b 775 1311 903 1261 847 1311 b 649 1192 706 1311 649 1261 b 775 1074 649 1124 706 1074 z m 381 1074 b 508 1192 451 1074 508 1124 b 381 1311 508 1261 451 1311 b 254 1192 310 1311 254 1261 b 381 1074 254 1124 310 1074 z "},"Ù":{"ha":1158,"x_min":0,"x_max":0,"o":"m 579 -19 b 1046 425 871 -19 1046 147 l 1046 972 l 819 972 l 819 425 b 579 181 819 271 732 181 b 338 425 425 181 338 271 l 338 972 l 113 972 l 113 425 b 579 -19 113 147 288 -19 z m 490 1065 l 694 1065 l 522 1304 l 263 1304 z "},"Ű":{"ha":1158,"x_min":0,"x_max":0,"o":"m 579 -19 b 1046 425 871 -19 1046 147 l 1046 972 l 819 972 l 819 425 b 579 181 819 271 732 181 b 338 425 425 181 338 271 l 338 972 l 113 972 l 113 425 b 579 -19 113 147 288 -19 z m 608 1065 l 790 1065 l 971 1303 l 747 1303 z m 301 1065 l 482 1065 l 663 1303 l 439 1303 z "},"Ū":{"ha":1158,"x_min":0,"x_max":0,"o":"m 579 -19 b 1046 425 871 -19 1046 147 l 1046 972 l 819 972 l 819 425 b 579 181 819 271 732 181 b 338 425 425 181 338 271 l 338 972 l 113 972 l 113 425 b 579 -19 113 147 288 -19 z m 319 1089 l 838 1089 l 838 1219 l 319 1219 z "},"Ų":{"ha":1158,"x_min":0,"x_max":0,"o":"m 679 -337 b 806 -312 731 -337 771 -328 l 806 -189 b 751 -200 788 -196 769 -200 b 713 -161 726 -200 713 -187 b 839 38 713 -101 771 -29 l 836 38 b 1046 425 971 108 1046 243 l 1046 972 l 819 972 l 819 425 b 579 181 819 271 732 181 b 338 425 425 181 338 271 l 338 972 l 113 972 l 113 425 b 579 -19 113 147 288 -19 b 658 -15 607 -19 633 -18 b 543 -226 597 -76 543 -151 b 679 -337 543 -296 594 -337 z "},"Ů":{"ha":1158,"x_min":0,"x_max":0,"o":"m 579 -19 b 1046 425 871 -19 1046 147 l 1046 972 l 819 972 l 819 425 b 579 181 819 271 732 181 b 338 425 425 181 338 271 l 338 972 l 113 972 l 113 425 b 579 -19 113 147 288 -19 z m 579 1065 b 829 1215 732 1065 829 1121 b 579 1367 829 1311 732 1367 b 331 1215 428 1367 331 1311 b 579 1065 331 1119 428 1065 z m 579 1161 b 501 1215 532 1161 501 1183 b 579 1271 501 1249 533 1271 b 658 1215 626 1271 658 1249 b 579 1161 658 1183 626 1161 z "},"Ũ":{"ha":1158,"x_min":0,"x_max":0,"o":"m 579 -19 b 1046 425 871 -19 1046 147 l 1046 972 l 819 972 l 819 425 b 579 181 819 271 732 181 b 338 425 425 181 338 271 l 338 972 l 113 972 l 113 425 b 579 -19 113 147 288 -19 z m 318 1065 l 456 1065 b 444 1114 450 1078 444 1094 b 482 1151 444 1133 456 1151 b 736 1065 543 1151 621 1065 b 874 1189 819 1065 874 1119 b 842 1303 874 1233 858 1274 l 704 1303 b 715 1254 710 1290 715 1274 b 678 1217 715 1235 704 1217 b 424 1303 617 1217 539 1303 b 286 1181 340 1303 286 1247 b 318 1065 286 1136 300 1096 z "},"V":{"ha":1031,"x_min":0,"x_max":0,"o":"m 376 0 l 649 0 l 1014 972 l 788 972 l 515 210 l 250 972 l 17 972 z "},"W":{"ha":1544,"x_min":0,"x_max":0,"o":"m 235 0 l 508 0 l 769 561 l 772 561 l 1036 0 l 1311 0 l 1504 972 l 1281 972 l 1192 513 l 1146 199 l 1143 199 l 776 990 l 769 990 l 401 199 l 399 199 l 354 511 l 267 972 l 42 972 z "},"Ẃ":{"ha":1544,"x_min":0,"x_max":0,"o":"m 235 0 l 508 0 l 769 561 l 772 561 l 1036 0 l 1311 0 l 1504 972 l 1281 972 l 1192 513 l 1146 199 l 1143 199 l 776 990 l 769 990 l 401 199 l 399 199 l 354 511 l 267 972 l 42 972 z m 658 1065 l 864 1065 l 1090 1304 l 832 1304 z "},"Ŵ":{"ha":1544,"x_min":0,"x_max":0,"o":"m 235 0 l 508 0 l 769 561 l 772 561 l 1036 0 l 1311 0 l 1504 972 l 1281 972 l 1192 513 l 1146 199 l 1143 199 l 776 990 l 769 990 l 401 199 l 399 199 l 354 511 l 267 972 l 42 972 z m 433 1065 l 632 1065 l 772 1167 l 913 1065 l 1111 1065 l 876 1303 l 667 1303 z "},"Ẅ":{"ha":1544,"x_min":0,"x_max":0,"o":"m 235 0 l 508 0 l 769 561 l 772 561 l 1036 0 l 1311 0 l 1504 972 l 1281 972 l 1192 513 l 1146 199 l 1143 199 l 776 990 l 769 990 l 401 199 l 399 199 l 354 511 l 267 972 l 42 972 z m 968 1074 b 1096 1192 1040 1074 1096 1124 b 968 1311 1096 1261 1040 1311 b 842 1192 899 1311 842 1261 b 968 1074 842 1124 899 1074 z m 574 1074 b 701 1192 644 1074 701 1124 b 574 1311 701 1261 644 1311 b 447 1192 503 1311 447 1261 b 574 1074 447 1124 503 1074 z "},"Ẁ":{"ha":1544,"x_min":0,"x_max":0,"o":"m 235 0 l 508 0 l 769 561 l 772 561 l 1036 0 l 1311 0 l 1504 972 l 1281 972 l 1192 513 l 1146 199 l 1143 199 l 776 990 l 769 990 l 401 199 l 399 199 l 354 511 l 267 972 l 42 972 z m 685 1065 l 889 1065 l 717 1304 l 457 1304 z "},"X":{"ha":1049,"x_min":0,"x_max":0,"o":"m 779 0 l 1032 0 l 672 506 l 1004 972 l 754 972 l 525 644 l 297 972 l 44 972 l 376 504 l 17 0 l 267 0 l 524 358 z "},"Y":{"ha":1046,"x_min":0,"x_max":0,"o":"m 411 0 l 636 0 l 636 432 l 1031 972 l 785 972 l 526 613 l 269 972 l 17 972 l 411 431 z "},"Ý":{"ha":1046,"x_min":0,"x_max":0,"o":"m 411 0 l 636 0 l 636 432 l 1031 972 l 785 972 l 526 613 l 269 972 l 17 972 l 411 431 z m 410 1065 l 615 1065 l 842 1304 l 583 1304 z "},"Ŷ":{"ha":1046,"x_min":0,"x_max":0,"o":"m 411 0 l 636 0 l 636 432 l 1031 972 l 785 972 l 526 613 l 269 972 l 17 972 l 411 431 z m 185 1065 l 383 1065 l 524 1167 l 664 1065 l 863 1065 l 628 1303 l 418 1303 z "},"Ÿ":{"ha":1046,"x_min":0,"x_max":0,"o":"m 411 0 l 636 0 l 636 432 l 1031 972 l 785 972 l 526 613 l 269 972 l 17 972 l 411 431 z m 719 1074 b 847 1192 792 1074 847 1124 b 719 1311 847 1261 792 1311 b 593 1192 650 1311 593 1261 b 719 1074 593 1124 650 1074 z m 325 1074 b 453 1192 396 1074 453 1124 b 325 1311 453 1261 396 1311 b 199 1192 254 1311 199 1261 b 325 1074 199 1124 254 1074 z "},"Ỳ":{"ha":1046,"x_min":0,"x_max":0,"o":"m 411 0 l 636 0 l 636 432 l 1031 972 l 785 972 l 526 613 l 269 972 l 17 972 l 411 431 z m 435 1065 l 639 1065 l 467 1304 l 207 1304 z "},"Z":{"ha":1003,"x_min":0,"x_max":0,"o":"m 47 0 l 940 0 l 940 200 l 421 200 l 951 965 l 951 972 l 88 972 l 88 772 l 585 772 l 47 7 z "},"Ź":{"ha":1003,"x_min":0,"x_max":0,"o":"m 47 0 l 940 0 l 940 200 l 421 200 l 951 965 l 951 972 l 88 972 l 88 772 l 585 772 l 47 7 z m 386 1065 l 592 1065 l 818 1304 l 560 1304 z "},"Ž":{"ha":1003,"x_min":0,"x_max":0,"o":"m 47 0 l 940 0 l 940 200 l 421 200 l 951 965 l 951 972 l 88 972 l 88 772 l 585 772 l 47 7 z m 396 1065 l 606 1065 l 840 1303 l 642 1303 l 501 1201 l 361 1303 l 163 1303 z "},"Ż":{"ha":1003,"x_min":0,"x_max":0,"o":"m 47 0 l 940 0 l 940 200 l 421 200 l 951 965 l 951 972 l 88 972 l 88 772 l 585 772 l 47 7 z m 499 1076 b 642 1197 579 1076 642 1125 b 499 1317 642 1268 579 1317 b 358 1197 421 1317 358 1268 b 499 1076 358 1125 421 1076 z "},"a":{"ha":904,"x_min":0,"x_max":0,"o":"m 311 -19 b 617 218 465 -19 572 63 l 619 218 l 596 0 l 810 0 l 810 422 b 450 742 810 633 685 742 b 113 681 349 742 236 721 l 113 497 b 406 569 218 546 317 569 b 596 425 529 569 594 519 l 353 425 b 61 200 167 425 61 344 b 311 -19 61 63 156 -19 z m 388 147 b 269 240 311 147 269 179 b 394 338 269 304 313 338 l 596 338 l 596 313 b 388 147 596 221 500 147 z "},"á":{"ha":904,"x_min":0,"x_max":0,"o":"m 311 -19 b 617 218 465 -19 572 63 l 619 218 l 596 0 l 810 0 l 810 422 b 450 742 810 633 685 742 b 113 681 349 742 236 721 l 113 497 b 406 569 218 546 317 569 b 596 425 529 569 594 519 l 353 425 b 61 200 167 425 61 344 b 311 -19 61 63 156 -19 z m 388 147 b 269 240 311 147 269 179 b 394 338 269 304 313 338 l 596 338 l 596 313 b 388 147 596 221 500 147 z m 356 818 l 532 818 l 729 1046 l 507 1046 z "},"ă":{"ha":904,"x_min":0,"x_max":0,"o":"m 311 -19 b 617 218 465 -19 572 63 l 619 218 l 596 0 l 810 0 l 810 422 b 450 742 810 633 685 742 b 113 681 349 742 236 721 l 113 497 b 406 569 218 546 317 569 b 596 425 529 569 594 519 l 353 425 b 61 200 167 425 61 344 b 311 -19 61 63 156 -19 z m 388 147 b 269 240 311 147 269 179 b 394 338 269 304 313 338 l 596 338 l 596 313 b 388 147 596 221 500 147 z m 442 818 b 704 1046 607 818 706 899 l 544 1046 b 442 951 542 979 508 951 b 340 1046 376 951 343 979 l 181 1046 b 442 818 179 899 278 818 z "},"â":{"ha":904,"x_min":0,"x_max":0,"o":"m 311 -19 b 617 218 465 -19 572 63 l 619 218 l 596 0 l 810 0 l 810 422 b 450 742 810 633 685 742 b 113 681 349 742 236 721 l 113 497 b 406 569 218 546 317 569 b 596 425 529 569 594 519 l 353 425 b 61 200 167 425 61 344 b 311 -19 61 63 156 -19 z m 388 147 b 269 240 311 147 269 179 b 394 338 269 304 313 338 l 596 338 l 596 313 b 388 147 596 221 500 147 z m 149 818 l 321 818 l 443 925 l 564 818 l 736 818 l 533 1046 l 351 1046 z "},"ä":{"ha":904,"x_min":0,"x_max":0,"o":"m 311 -19 b 617 218 465 -19 572 63 l 619 218 l 596 0 l 810 0 l 810 422 b 450 742 810 633 685 742 b 113 681 349 742 236 721 l 113 497 b 406 569 218 546 317 569 b 596 425 529 569 594 519 l 353 425 b 61 200 167 425 61 344 b 311 -19 61 63 156 -19 z m 388 147 b 269 240 311 147 269 179 b 394 338 269 304 313 338 l 596 338 l 596 313 b 388 147 596 221 500 147 z m 618 831 b 740 943 686 831 740 878 b 618 1056 740 1010 686 1056 b 499 943 551 1056 499 1010 b 618 831 499 878 551 831 z m 265 831 b 386 943 332 831 386 878 b 265 1056 386 1010 332 1056 b 144 943 197 1056 144 1010 b 265 831 144 878 197 831 z "},"à":{"ha":904,"x_min":0,"x_max":0,"o":"m 311 -19 b 617 218 465 -19 572 63 l 619 218 l 596 0 l 810 0 l 810 422 b 450 742 810 633 685 742 b 113 681 349 742 236 721 l 113 497 b 406 569 218 546 317 569 b 596 425 529 569 594 519 l 353 425 b 61 200 167 425 61 344 b 311 -19 61 63 156 -19 z m 388 147 b 269 240 311 147 269 179 b 394 338 269 304 313 338 l 596 338 l 596 313 b 388 147 596 221 500 147 z m 397 818 l 574 818 l 422 1046 l 200 1046 z "},"ā":{"ha":904,"x_min":0,"x_max":0,"o":"m 311 -19 b 617 218 465 -19 572 63 l 619 218 l 596 0 l 810 0 l 810 422 b 450 742 810 633 685 742 b 113 681 349 742 236 721 l 113 497 b 406 569 218 546 317 569 b 596 425 529 569 594 519 l 353 425 b 61 200 167 425 61 344 b 311 -19 61 63 156 -19 z m 388 147 b 269 240 311 147 269 179 b 394 338 269 304 313 338 l 596 338 l 596 313 b 388 147 596 221 500 147 z m 215 847 l 671 847 l 671 968 l 215 968 z "},"ą":{"ha":904,"x_min":0,"x_max":0,"o":"m 311 -19 b 617 218 465 -19 572 63 l 619 218 l 596 0 l 688 0 b 542 -226 606 -72 542 -142 b 678 -337 542 -296 593 -337 b 804 -312 729 -337 769 -328 l 804 -189 b 750 -200 786 -196 768 -200 b 711 -161 725 -200 711 -187 b 810 0 711 -117 750 -61 l 810 422 b 450 742 810 633 685 742 b 113 681 349 742 236 721 l 113 497 b 406 569 218 546 317 569 b 596 425 529 569 594 519 l 353 425 b 61 200 167 425 61 344 b 311 -19 61 63 156 -19 z m 388 147 b 269 240 311 147 269 179 b 394 338 269 304 313 338 l 596 338 l 596 313 b 388 147 596 221 500 147 z "},"å":{"ha":904,"x_min":0,"x_max":0,"o":"m 311 -19 b 617 218 465 -19 572 63 l 619 218 l 596 0 l 810 0 l 810 422 b 450 742 810 633 685 742 b 113 681 349 742 236 721 l 113 497 b 406 569 218 546 317 569 b 596 425 529 569 594 519 l 353 425 b 61 200 167 425 61 344 b 311 -19 61 63 156 -19 z m 388 147 b 269 240 311 147 269 179 b 394 338 269 304 313 338 l 596 338 l 596 313 b 388 147 596 221 500 147 z m 443 818 b 664 963 581 818 664 874 b 443 1107 664 1053 581 1107 b 222 963 304 1107 222 1053 b 443 818 222 874 304 818 z m 443 910 b 368 963 396 910 368 931 b 443 1015 368 996 396 1015 b 518 963 490 1015 518 996 b 443 910 518 931 490 910 z "},"ã":{"ha":904,"x_min":0,"x_max":0,"o":"m 311 -19 b 617 218 465 -19 572 63 l 619 218 l 596 0 l 810 0 l 810 422 b 450 742 810 633 685 742 b 113 681 349 742 236 721 l 113 497 b 406 569 218 546 317 569 b 596 425 529 569 594 519 l 353 425 b 61 200 167 425 61 344 b 311 -19 61 63 156 -19 z m 388 147 b 269 240 311 147 269 179 b 394 338 269 304 313 338 l 596 338 l 596 313 b 388 147 596 221 500 147 z m 204 818 l 336 818 b 325 864 331 831 325 847 b 361 900 325 885 336 900 b 581 818 421 900 469 818 b 711 938 660 818 711 869 b 681 1046 711 979 697 1018 l 549 1046 b 560 1000 554 1035 560 1018 b 524 964 560 981 549 964 b 304 1046 464 964 415 1046 b 174 928 225 1046 174 994 b 204 818 174 886 186 847 z "},"æ":{"ha":1454,"x_min":0,"x_max":0,"o":"m 311 -19 b 640 208 471 -19 585 69 b 1035 -19 689 72 817 -19 b 1346 36 1156 -19 1247 0 l 1346 208 b 1058 153 1250 174 1153 153 b 824 282 929 153 853 199 l 1397 358 b 1010 742 1394 597 1254 742 b 722 625 885 742 786 706 b 450 742 667 706 574 742 b 113 681 349 742 236 721 l 113 497 b 406 569 218 546 317 569 b 596 425 529 569 594 519 l 353 425 b 61 200 167 425 61 344 b 311 -19 61 63 156 -19 z m 388 147 b 269 240 311 147 269 179 b 394 338 269 304 313 338 l 596 338 l 596 313 b 388 147 596 221 500 147 z m 1192 422 l 810 368 b 1008 569 810 500 878 569 b 1192 422 1121 569 1182 518 z "},"ǽ":{"ha":1454,"x_min":0,"x_max":0,"o":"m 311 -19 b 640 208 471 -19 585 69 b 1035 -19 689 72 817 -19 b 1346 36 1156 -19 1247 0 l 1346 208 b 1058 153 1250 174 1153 153 b 824 282 929 153 853 199 l 1397 358 b 1010 742 1394 597 1254 742 b 722 625 885 742 786 706 b 450 742 667 706 574 742 b 113 681 349 742 236 721 l 113 497 b 406 569 218 546 317 569 b 596 425 529 569 594 519 l 353 425 b 61 200 167 425 61 344 b 311 -19 61 63 156 -19 z m 388 147 b 269 240 311 147 269 179 b 394 338 269 304 313 338 l 596 338 l 596 313 b 388 147 596 221 500 147 z m 1192 422 l 810 368 b 1008 569 810 500 878 569 b 1192 422 1121 569 1182 518 z m 643 818 l 819 818 l 1017 1046 l 794 1046 z "},"b":{"ha":1013,"x_min":0,"x_max":0,"o":"m 607 -19 b 950 356 811 -19 950 131 b 590 742 950 588 804 742 b 315 644 489 742 390 707 l 315 1008 l 101 972 l 101 0 l 315 0 l 292 218 l 294 218 b 607 -19 336 68 451 -19 z m 524 160 b 315 361 393 160 315 235 b 524 561 315 486 393 561 b 732 361 654 561 732 486 b 524 160 732 235 654 160 z "},"c":{"ha":819,"x_min":0,"x_max":0,"o":"m 497 -19 b 746 14 588 -19 683 -7 l 746 199 b 510 167 676 179 590 167 b 281 360 361 167 281 242 b 510 554 281 483 360 554 b 742 525 583 554 664 544 l 742 710 b 508 742 668 731 593 742 b 63 360 236 742 63 586 b 497 -19 63 139 238 -19 z "},"ć":{"ha":819,"x_min":0,"x_max":0,"o":"m 497 -19 b 746 14 588 -19 683 -7 l 746 199 b 510 167 676 179 590 167 b 281 360 361 167 281 242 b 510 554 281 483 360 554 b 742 525 583 554 664 544 l 742 710 b 508 742 668 731 593 742 b 63 360 236 742 63 586 b 497 -19 63 139 238 -19 z m 371 818 l 547 818 l 744 1046 l 522 1046 z "},"č":{"ha":819,"x_min":0,"x_max":0,"o":"m 497 -19 b 746 14 588 -19 683 -7 l 746 199 b 510 167 676 179 590 167 b 281 360 361 167 281 242 b 510 554 281 483 360 554 b 742 525 583 554 664 544 l 742 710 b 508 742 668 731 593 742 b 63 360 236 742 63 586 b 497 -19 63 139 238 -19 z m 365 818 l 547 818 l 750 1046 l 578 1046 l 457 939 l 335 1046 l 163 1046 z "},"ç":{"ha":819,"x_min":0,"x_max":0,"o":"m 494 -337 b 664 -203 599 -337 664 -287 b 499 -82 664 -111 589 -74 l 538 -18 b 746 14 615 -15 693 -4 l 746 199 b 510 167 676 179 590 167 b 281 360 361 167 281 242 b 510 554 281 483 360 554 b 742 525 583 554 664 544 l 742 710 b 508 742 668 731 593 742 b 63 360 236 742 63 586 b 438 -17 63 157 211 6 l 358 -165 b 443 -160 383 -161 410 -160 b 503 -192 483 -160 503 -171 b 449 -224 503 -214 482 -224 b 340 -196 414 -224 378 -211 l 340 -312 b 494 -337 389 -328 429 -337 z "},"ĉ":{"ha":819,"x_min":0,"x_max":0,"o":"m 497 -19 b 746 14 588 -19 683 -7 l 746 199 b 510 167 676 179 590 167 b 281 360 361 167 281 242 b 510 554 281 483 360 554 b 742 525 583 554 664 544 l 742 710 b 508 742 668 731 593 742 b 63 360 236 742 63 586 b 497 -19 63 139 238 -19 z m 163 818 l 335 818 l 457 925 l 578 818 l 750 818 l 547 1046 l 365 1046 z "},"ċ":{"ha":819,"x_min":0,"x_max":0,"o":"m 497 -19 b 746 14 588 -19 683 -7 l 746 199 b 510 167 676 179 590 167 b 281 360 361 167 281 242 b 510 554 281 483 360 554 b 742 525 583 554 664 544 l 742 710 b 508 742 668 731 593 742 b 63 360 236 742 63 586 b 497 -19 63 139 238 -19 z m 456 831 b 583 943 528 831 583 878 b 456 1056 583 1010 528 1056 b 329 943 385 1056 329 1010 b 456 831 329 878 385 831 z "},"d":{"ha":1013,"x_min":0,"x_max":0,"o":"m 406 -19 b 719 218 561 -19 676 68 l 722 218 l 697 0 l 911 0 l 911 1008 l 697 972 l 697 653 b 438 742 618 713 533 742 b 63 353 215 742 63 586 b 406 -19 63 131 203 -19 z m 489 160 b 281 361 358 160 281 236 b 489 561 281 486 358 561 b 697 361 619 561 697 486 b 489 160 697 236 619 160 z "},"ð":{"ha":1000,"x_min":0,"x_max":0,"o":"m 476 -19 b 929 469 749 -19 931 135 b 583 1017 928 722 808 894 l 644 1113 l 554 1164 l 489 1061 b 296 1129 431 1086 365 1108 l 224 969 b 392 908 285 950 340 931 l 329 811 l 418 758 l 485 863 b 711 586 610 793 689 707 b 438 711 649 668 550 711 b 63 350 222 711 63 569 b 476 -19 63 125 231 -19 z m 493 157 b 281 350 363 157 281 239 b 493 544 281 464 363 544 b 706 350 625 544 706 469 b 493 157 706 236 624 157 z "},"ď":{"ha":1169,"x_min":0,"x_max":0,"o":"m 406 -19 b 719 218 561 -19 676 68 l 722 218 l 697 0 l 911 0 l 911 1008 l 697 972 l 697 653 b 438 742 618 713 533 742 b 63 353 215 742 63 586 b 406 -19 63 131 203 -19 z m 489 160 b 281 361 358 160 281 236 b 489 561 281 486 358 561 b 697 361 619 561 697 486 b 489 160 697 236 619 160 z m 1003 682 l 1151 682 l 1242 1008 l 1046 1008 z "},"đ":{"ha":1013,"x_min":0,"x_max":0,"o":"m 406 -19 b 719 218 561 -19 676 68 l 722 218 l 697 0 l 911 0 l 911 810 l 986 810 l 986 917 l 911 917 l 911 1008 l 697 972 l 697 917 l 415 917 l 415 810 l 697 810 l 697 653 b 438 742 618 713 533 742 b 63 353 215 742 63 586 b 406 -19 63 131 203 -19 z m 489 160 b 281 361 358 160 281 236 b 489 561 281 486 358 561 b 697 361 619 561 697 486 b 489 160 697 236 619 160 z "},"e":{"ha":926,"x_min":0,"x_max":0,"o":"m 507 -19 b 817 36 628 -19 719 0 l 817 208 b 529 153 722 174 624 153 b 294 281 400 153 324 199 l 869 358 b 472 742 865 597 725 742 b 63 363 222 742 63 592 b 507 -19 63 133 225 -19 z m 281 368 b 481 569 281 497 349 569 b 664 422 593 569 653 518 z "},"é":{"ha":926,"x_min":0,"x_max":0,"o":"m 507 -19 b 817 36 628 -19 719 0 l 817 208 b 529 153 722 174 624 153 b 294 281 400 153 324 199 l 869 358 b 472 742 865 597 725 742 b 63 363 222 742 63 592 b 507 -19 63 133 225 -19 z m 382 818 l 558 818 l 756 1046 l 533 1046 z m 281 368 b 481 569 281 497 349 569 b 664 422 593 569 653 518 z "},"ĕ":{"ha":926,"x_min":0,"x_max":0,"o":"m 507 -19 b 817 36 628 -19 719 0 l 817 208 b 529 153 722 174 624 153 b 294 281 400 153 324 199 l 869 358 b 472 742 865 597 725 742 b 63 363 222 742 63 592 b 507 -19 63 133 225 -19 z m 468 818 b 731 1046 633 818 732 899 l 571 1046 b 468 951 568 979 535 951 b 367 1046 403 951 369 979 l 207 1046 b 468 818 206 899 304 818 z m 281 368 b 481 569 281 497 349 569 b 664 422 593 569 653 518 z "},"ě":{"ha":926,"x_min":0,"x_max":0,"o":"m 507 -19 b 817 36 628 -19 719 0 l 817 208 b 529 153 722 174 624 153 b 294 281 400 153 324 199 l 869 358 b 472 742 865 597 725 742 b 63 363 222 742 63 592 b 507 -19 63 133 225 -19 z m 378 818 l 560 818 l 763 1046 l 590 1046 l 469 939 l 347 1046 l 175 1046 z m 281 368 b 481 569 281 497 349 569 b 664 422 593 569 653 518 z "},"ê":{"ha":926,"x_min":0,"x_max":0,"o":"m 507 -19 b 817 36 628 -19 719 0 l 817 208 b 529 153 722 174 624 153 b 294 281 400 153 324 199 l 869 358 b 472 742 865 597 725 742 b 63 363 222 742 63 592 b 507 -19 63 133 225 -19 z m 175 818 l 347 818 l 469 925 l 590 818 l 763 818 l 560 1046 l 378 1046 z m 281 368 b 481 569 281 497 349 569 b 664 422 593 569 653 518 z "},"ë":{"ha":926,"x_min":0,"x_max":0,"o":"m 507 -19 b 817 36 628 -19 719 0 l 817 208 b 529 153 722 174 624 153 b 294 281 400 153 324 199 l 869 358 b 472 742 865 597 725 742 b 63 363 222 742 63 592 b 507 -19 63 133 225 -19 z m 644 831 b 767 943 713 831 767 878 b 644 1056 767 1010 713 1056 b 525 943 578 1056 525 1010 b 644 831 525 878 578 831 z m 292 831 b 413 943 358 831 413 878 b 292 1056 413 1010 358 1056 b 171 943 224 1056 171 1010 b 292 831 171 878 224 831 z m 281 368 b 481 569 281 497 349 569 b 664 422 593 569 653 518 z "},"ė":{"ha":926,"x_min":0,"x_max":0,"o":"m 507 -19 b 817 36 628 -19 719 0 l 817 208 b 529 153 722 174 624 153 b 294 281 400 153 324 199 l 869 358 b 472 742 865 597 725 742 b 63 363 222 742 63 592 b 507 -19 63 133 225 -19 z m 467 831 b 594 943 539 831 594 878 b 467 1056 594 1010 539 1056 b 340 943 396 1056 340 1010 b 467 831 340 878 396 831 z m 281 368 b 481 569 281 497 349 569 b 664 422 593 569 653 518 z "},"è":{"ha":926,"x_min":0,"x_max":0,"o":"m 507 -19 b 817 36 628 -19 719 0 l 817 208 b 529 153 722 174 624 153 b 294 281 400 153 324 199 l 869 358 b 472 742 865 597 725 742 b 63 363 222 742 63 592 b 507 -19 63 133 225 -19 z m 422 818 l 599 818 l 447 1046 l 225 1046 z m 281 368 b 481 569 281 497 349 569 b 664 422 593 569 653 518 z "},"ē":{"ha":926,"x_min":0,"x_max":0,"o":"m 507 -19 b 817 36 628 -19 719 0 l 817 208 b 529 153 722 174 624 153 b 294 281 400 153 324 199 l 869 358 b 472 742 865 597 725 742 b 63 363 222 742 63 592 b 507 -19 63 133 225 -19 z m 242 847 l 697 847 l 697 968 l 242 968 z m 281 368 b 481 569 281 497 349 569 b 664 422 593 569 653 518 z "},"ę":{"ha":926,"x_min":0,"x_max":0,"o":"m 658 -337 b 785 -312 710 -337 751 -328 l 785 -189 b 732 -200 768 -196 750 -200 b 693 -161 707 -200 693 -187 b 818 36 693 -101 750 -31 l 817 36 l 817 208 b 529 153 722 174 624 153 b 294 281 400 153 324 199 l 869 358 b 472 742 865 597 725 742 b 63 363 222 742 63 592 b 507 -19 63 133 225 -19 b 644 -10 557 -19 603 -17 b 524 -226 579 -72 524 -149 b 658 -337 524 -296 574 -337 z m 281 368 b 481 569 281 497 349 569 b 664 422 593 569 653 518 z "},"f":{"ha":679,"x_min":0,"x_max":0,"o":"m 153 0 l 367 0 l 367 468 l 629 468 l 629 644 l 257 644 b 217 736 231 674 217 706 b 351 817 217 790 261 817 b 649 767 428 817 533 799 l 649 950 b 358 992 551 978 450 992 b 61 817 167 992 61 929 b 183 644 61 746 104 688 l 50 644 l 50 468 l 153 468 z "},"g":{"ha":903,"x_min":0,"x_max":0,"o":"m 442 -297 b 843 -50 700 -297 843 -194 b 574 156 843 75 729 147 l 574 158 b 839 440 725 168 839 279 b 676 694 839 556 779 644 b 801 839 754 722 801 775 b 592 976 801 925 721 976 b 435 957 539 976 488 968 l 435 813 b 546 832 471 825 510 832 b 651 760 615 832 651 807 b 635 713 651 743 647 728 b 449 742 582 732 519 742 b 57 433 207 742 57 622 b 438 124 57 246 188 136 b 638 11 574 117 638 85 b 424 -108 638 -58 572 -108 b 63 -24 286 -108 169 -76 l 63 -226 b 442 -297 169 -272 293 -297 z m 449 283 b 269 432 329 283 269 333 b 449 582 269 532 329 582 b 626 432 567 582 626 532 b 449 283 626 333 567 283 z "},"ğ":{"ha":903,"x_min":0,"x_max":0,"o":"m 442 -297 b 843 -50 700 -297 843 -194 b 574 156 843 75 729 147 l 574 158 b 839 440 725 168 839 279 b 449 742 839 624 688 742 b 57 433 207 742 57 622 b 438 124 57 246 188 136 b 638 11 574 117 638 85 b 424 -108 638 -58 572 -108 b 63 -24 286 -108 169 -76 l 63 -226 b 442 -297 169 -272 293 -297 z m 449 283 b 269 432 329 283 269 333 b 449 582 269 532 329 582 b 626 432 567 582 626 532 b 449 283 626 333 567 283 z m 453 818 b 714 1046 617 818 715 899 l 554 1046 b 453 951 551 979 518 951 b 350 1046 386 951 353 979 l 190 1046 b 453 818 189 899 288 818 z "},"ĝ":{"ha":903,"x_min":0,"x_max":0,"o":"m 442 -297 b 843 -50 700 -297 843 -194 b 574 156 843 75 729 147 l 574 158 b 839 440 725 168 839 279 b 449 742 839 624 688 742 b 57 433 207 742 57 622 b 438 124 57 246 188 136 b 638 11 574 117 638 85 b 424 -108 638 -58 572 -108 b 63 -24 286 -108 169 -76 l 63 -226 b 442 -297 169 -272 293 -297 z m 449 283 b 269 432 329 283 269 333 b 449 582 269 532 329 582 b 626 432 567 582 626 532 b 449 283 626 333 567 283 z m 158 818 l 331 818 l 453 925 l 574 818 l 746 818 l 543 1046 l 361 1046 z "},"ģ":{"ha":903,"x_min":0,"x_max":0,"o":"m 442 -297 b 843 -50 700 -297 843 -194 b 574 156 843 75 729 147 l 574 158 b 839 440 725 168 839 279 b 694 686 839 549 786 633 b 831 839 782 718 831 774 b 614 976 831 925 751 976 l 588 832 b 682 760 644 832 682 807 b 660 703 682 742 678 724 b 449 742 601 728 531 742 b 57 433 207 742 57 622 b 438 124 57 246 188 136 b 638 11 574 117 638 85 b 424 -108 638 -58 572 -108 b 63 -24 286 -108 169 -76 l 63 -226 b 442 -297 169 -272 293 -297 z m 449 283 b 269 432 329 283 269 333 b 449 582 269 532 329 582 b 626 432 567 582 626 532 b 449 283 626 333 567 283 z m 285 818 l 482 818 l 524 1104 l 378 1104 z "},"ġ":{"ha":903,"x_min":0,"x_max":0,"o":"m 442 -297 b 843 -50 700 -297 843 -194 b 574 156 843 75 729 147 l 574 158 b 839 440 725 168 839 279 b 694 686 839 549 786 633 b 831 839 782 718 831 774 b 617 976 831 925 751 976 l 589 832 b 682 760 644 832 682 807 b 660 703 682 742 678 724 b 449 742 601 728 531 742 b 57 433 207 742 57 622 b 438 124 57 246 188 136 b 638 11 574 117 638 85 b 424 -108 638 -58 572 -108 b 63 -24 286 -108 169 -76 l 63 -226 b 442 -297 169 -272 293 -297 z m 449 283 b 269 432 329 283 269 333 b 449 582 269 532 329 582 b 626 432 567 582 626 532 b 449 283 626 333 567 283 z m 411 831 b 533 943 481 831 533 878 b 411 1056 533 1010 481 1056 b 288 943 340 1056 288 1010 b 411 831 288 878 340 831 z "},"h":{"ha":979,"x_min":0,"x_max":0,"o":"m 101 0 l 315 0 l 315 371 b 497 561 315 486 388 561 b 668 375 604 561 668 492 l 668 0 l 882 0 l 882 414 b 593 742 882 621 776 742 b 294 503 442 742 335 657 l 292 503 l 315 722 l 315 1008 l 101 972 z "},"ħ":{"ha":979,"x_min":0,"x_max":0,"o":"m 101 0 l 315 0 l 315 371 b 497 561 315 486 388 561 b 668 375 604 561 668 492 l 668 0 l 882 0 l 882 414 b 593 742 882 621 776 742 b 294 503 442 742 335 657 l 292 503 l 315 722 l 315 810 l 599 810 l 599 917 l 315 917 l 315 1008 l 101 972 l 101 917 l 26 917 l 26 810 l 101 810 z "},"ĥ":{"ha":979,"x_min":0,"x_max":0,"o":"m 101 0 l 315 0 l 315 371 b 497 561 315 486 388 561 b 668 375 604 561 668 492 l 668 0 l 882 0 l 882 414 b 593 742 882 621 776 742 b 294 503 442 742 335 657 l 292 503 l 315 722 l 315 1008 l 101 972 z m -121 1065 l 78 1065 l 218 1167 l 358 1065 l 557 1065 l 322 1303 l 113 1303 z "},"i":{"ha":417,"x_min":0,"x_max":0,"o":"m 101 0 l 315 0 l 315 722 l 101 722 z m 208 792 b 340 899 285 792 340 835 b 208 1004 340 961 285 1004 b 78 899 132 1004 78 961 b 208 792 78 835 132 792 z "},"ı":{"ha":417,"x_min":0,"x_max":0,"o":"m 101 0 l 315 0 l 315 722 l 101 722 z "},"í":{"ha":417,"x_min":0,"x_max":0,"o":"m 101 0 l 315 0 l 315 722 l 101 722 z m 115 818 l 279 818 l 438 1046 l 228 1046 z "},"ĭ":{"ha":417,"x_min":0,"x_max":0,"o":"m 101 0 l 315 0 l 315 722 l 101 722 z m 210 818 b 428 1046 350 818 429 900 l 279 1046 b 210 951 279 978 257 951 b 140 1046 161 951 139 979 l -10 1046 b 210 818 -11 899 69 818 z "},"î":{"ha":417,"x_min":0,"x_max":0,"o":"m 101 0 l 315 0 l 315 722 l 101 722 z m -33 818 l 129 818 l 210 925 l 290 818 l 453 818 l 288 1046 l 132 1046 z "},"ï":{"ha":417,"x_min":0,"x_max":0,"o":"m 101 0 l 315 0 l 315 722 l 101 722 z m 342 831 b 453 943 404 831 453 878 b 342 1056 453 1010 404 1056 b 231 943 278 1056 231 1010 b 342 831 231 878 278 831 z m 75 831 b 186 943 138 831 186 878 b 75 1056 186 1010 138 1056 b -36 943 13 1056 -36 1010 b 75 831 -36 878 13 831 z "},"ì":{"ha":417,"x_min":0,"x_max":0,"o":"m 101 0 l 315 0 l 315 722 l 101 722 z m 125 818 l 289 818 l 176 1046 l -33 1046 z "},"ĳ":{"ha":879,"x_min":0,"x_max":0,"o":"m 101 0 l 315 0 l 315 722 l 101 722 z m 208 792 b 340 899 285 792 340 835 b 208 1004 340 961 285 1004 b 78 899 132 1004 78 961 b 208 792 78 835 132 792 z m 533 -297 b 776 14 721 -297 776 -158 l 776 722 l 563 722 l 563 14 b 460 -132 563 -90 525 -132 b 403 -125 436 -132 421 -129 l 403 -282 b 533 -297 440 -292 481 -297 z m 669 792 b 801 899 746 792 801 835 b 669 1004 801 961 746 1004 b 539 899 593 1004 539 961 b 669 792 539 835 593 792 z "},"ī":{"ha":417,"x_min":0,"x_max":0,"o":"m 101 0 l 315 0 l 315 722 l 101 722 z m 29 847 l 389 847 l 389 968 l 29 968 z "},"į":{"ha":417,"x_min":0,"x_max":0,"o":"m 101 0 l 193 0 b 47 -226 111 -72 47 -142 b 183 -337 47 -296 99 -337 b 310 -312 235 -337 275 -328 l 310 -189 b 256 -200 292 -196 274 -200 b 217 -161 231 -200 217 -187 b 315 0 217 -117 256 -61 l 315 722 l 101 722 z m 208 831 b 336 943 281 831 336 878 b 208 1056 336 1010 281 1056 b 82 943 138 1056 82 1010 b 208 831 82 878 138 831 z "},"ĩ":{"ha":417,"x_min":0,"x_max":0,"o":"m 101 0 l 315 0 l 315 722 l 101 722 z m 14 818 l 128 818 b 121 864 124 832 121 846 b 149 900 121 888 129 900 b 335 818 193 900 244 818 b 436 933 399 818 436 865 b 407 1046 436 975 424 1017 l 293 1046 b 300 1001 297 1032 300 1018 b 272 964 300 978 290 964 b 86 1046 228 964 176 1046 b -15 932 22 1046 -15 999 b 14 818 -15 889 -3 847 z "},"j":{"ha":417,"x_min":0,"x_max":0,"o":"m 72 -297 b 315 14 260 -297 315 -158 l 315 722 l 101 722 l 101 14 b -1 -132 101 -90 64 -132 b -58 -125 -25 -132 -40 -129 l -58 -282 b 72 -297 -21 -292 19 -297 z m 208 792 b 340 899 285 792 340 835 b 208 1004 340 961 285 1004 b 78 899 132 1004 78 961 b 208 792 78 835 132 792 z "},"ȷ":{"ha":417,"x_min":0,"x_max":0,"o":"m 72 -297 b 315 14 260 -297 315 -158 l 315 722 l 101 722 l 101 14 b -1 -132 101 -90 64 -132 b -58 -125 -25 -132 -40 -129 l -58 -282 b 72 -297 -21 -292 19 -297 z "},"ĵ":{"ha":417,"x_min":0,"x_max":0,"o":"m 72 -297 b 315 14 260 -297 315 -158 l 315 722 l 101 722 l 101 14 b -1 -132 101 -90 64 -132 b -58 -125 -25 -132 -40 -129 l -58 -282 b 72 -297 -21 -292 19 -297 z m -33 818 l 129 818 l 210 925 l 290 818 l 453 818 l 288 1046 l 132 1046 z "},"k":{"ha":911,"x_min":0,"x_max":0,"o":"m 590 164 l 642 0 l 883 0 l 808 203 b 626 361 778 293 725 349 l 547 372 l 547 375 b 822 722 732 410 814 543 l 601 722 b 403 440 592 561 529 440 l 315 440 l 315 1008 l 101 972 l 101 0 l 315 0 l 315 283 l 407 283 b 590 164 497 283 563 251 z "},"ķ":{"ha":911,"x_min":0,"x_max":0,"o":"m 590 164 l 642 0 l 883 0 l 808 203 b 626 361 778 293 725 349 l 547 372 l 547 375 b 822 722 732 410 814 543 l 601 722 b 403 440 592 561 529 440 l 315 440 l 315 1008 l 101 972 l 101 0 l 315 0 l 315 283 l 407 283 b 590 164 497 283 563 251 z m 326 -382 l 482 -382 l 575 -97 l 369 -97 z "},"ĸ":{"ha":911,"x_min":0,"x_max":0,"o":"m 590 153 l 642 0 l 883 0 l 808 192 b 626 350 776 281 725 336 l 547 360 l 547 363 b 822 722 732 397 814 532 l 601 722 b 403 428 592 550 529 428 l 315 428 l 315 722 l 101 722 l 101 0 l 315 0 l 315 271 l 407 271 b 590 153 497 271 561 239 z "},"l":{"ha":417,"x_min":0,"x_max":0,"o":"m 101 0 l 315 0 l 315 1008 l 101 972 z "},"ĺ":{"ha":417,"x_min":0,"x_max":0,"o":"m 101 0 l 315 0 l 315 1008 l 101 972 z m 115 1068 l 279 1068 l 438 1296 l 228 1296 z "},"ľ":{"ha":574,"x_min":0,"x_max":0,"o":"m 101 0 l 315 0 l 315 1008 l 101 972 z m 407 682 l 556 682 l 644 1008 l 450 1008 z "},"ļ":{"ha":417,"x_min":0,"x_max":0,"o":"m 101 0 l 315 0 l 315 1008 l 101 972 z m 81 -382 l 236 -382 l 329 -97 l 124 -97 z "},"ŀ":{"ha":701,"x_min":0,"x_max":0,"o":"m 101 0 l 315 0 l 315 1008 l 101 972 z m 558 414 b 678 526 629 414 678 464 b 558 639 678 589 629 639 b 440 526 489 639 440 589 b 558 414 440 464 489 414 z "},"ł":{"ha":456,"x_min":0,"x_max":0,"o":"m 121 0 l 335 0 l 335 479 l 413 507 l 413 658 l 335 631 l 335 1008 l 121 972 l 121 553 l 42 525 l 42 374 l 121 401 z "},"m":{"ha":1494,"x_min":0,"x_max":0,"o":"m 101 0 l 315 0 l 315 371 b 485 561 315 486 392 561 b 643 375 583 561 643 494 l 643 0 l 857 0 l 857 371 b 1026 561 857 486 933 561 b 1185 375 1124 561 1185 494 l 1185 0 l 1399 0 l 1399 415 b 1122 742 1399 622 1293 742 b 835 503 985 742 875 657 l 832 503 b 581 742 814 657 722 742 b 294 503 444 742 333 656 l 292 503 l 315 722 l 101 722 z "},"n":{"ha":979,"x_min":0,"x_max":0,"o":"m 101 0 l 315 0 l 315 371 b 497 561 315 486 388 561 b 668 375 604 561 668 492 l 668 0 l 882 0 l 882 414 b 593 742 882 621 776 742 b 294 503 442 742 335 657 l 292 503 l 315 722 l 101 722 z "},"ń":{"ha":979,"x_min":0,"x_max":0,"o":"m 101 0 l 315 0 l 315 371 b 497 561 315 486 388 561 b 668 375 604 561 668 492 l 668 0 l 882 0 l 882 414 b 593 742 882 621 776 742 b 294 503 442 742 335 657 l 292 503 l 315 722 l 101 722 z m 400 818 l 576 818 l 774 1046 l 551 1046 z "},"ŉ":{"ha":1176,"x_min":0,"x_max":0,"o":"m 299 0 l 513 0 l 513 371 b 694 561 513 486 585 561 b 865 375 801 561 865 492 l 865 0 l 1079 0 l 1079 414 b 790 742 1079 621 974 742 b 492 503 639 742 532 657 l 489 503 l 513 722 l 299 722 z m 32 685 l 188 685 l 281 969 l 75 969 z "},"ň":{"ha":979,"x_min":0,"x_max":0,"o":"m 101 0 l 315 0 l 315 371 b 497 561 315 486 388 561 b 668 375 604 561 668 492 l 668 0 l 882 0 l 882 414 b 593 742 882 621 776 742 b 294 503 442 742 335 657 l 292 503 l 315 722 l 101 722 z m 394 818 l 576 818 l 779 1046 l 607 1046 l 486 939 l 364 1046 l 192 1046 z "},"ņ":{"ha":979,"x_min":0,"x_max":0,"o":"m 101 0 l 315 0 l 315 371 b 497 561 315 486 388 561 b 668 375 604 561 668 492 l 668 0 l 882 0 l 882 414 b 593 742 882 621 776 742 b 294 503 442 742 335 657 l 292 503 l 315 722 l 101 722 z m 368 -382 l 524 -382 l 617 -97 l 411 -97 z "},"ñ":{"ha":979,"x_min":0,"x_max":0,"o":"m 101 0 l 315 0 l 315 371 b 497 561 315 486 388 561 b 668 375 604 561 668 492 l 668 0 l 882 0 l 882 414 b 593 742 882 621 776 742 b 294 503 442 742 335 657 l 292 503 l 315 722 l 101 722 z m 247 818 l 379 818 b 368 864 374 831 368 847 b 404 900 368 885 379 900 b 624 818 464 900 513 818 b 754 938 703 818 754 869 b 724 1046 754 979 740 1018 l 592 1046 b 603 1000 597 1035 603 1018 b 567 964 603 981 592 964 b 347 1046 507 964 458 1046 b 217 928 268 1046 217 994 b 247 818 217 886 229 847 z "},"ŋ":{"ha":979,"x_min":0,"x_max":0,"o":"m 101 0 l 315 0 l 315 371 b 497 561 315 486 388 561 b 668 375 604 561 668 492 l 668 14 b 565 -132 668 -90 631 -132 b 508 -125 542 -132 526 -129 l 508 -282 b 639 -297 544 -292 586 -297 b 882 14 826 -297 882 -158 l 882 414 b 593 742 882 621 776 742 b 294 503 442 742 335 657 l 292 503 l 315 722 l 101 722 z "},"o":{"ha":986,"x_min":0,"x_max":0,"o":"m 493 -19 b 922 360 744 -19 922 136 b 493 742 922 585 744 742 b 63 360 240 742 63 585 b 493 -19 63 136 240 -19 z m 493 160 b 281 361 363 160 281 243 b 493 561 281 479 363 561 b 706 361 624 561 706 479 b 493 160 706 243 624 160 z "},"ó":{"ha":986,"x_min":0,"x_max":0,"o":"m 493 -19 b 922 360 744 -19 922 136 b 493 742 922 585 744 742 b 63 360 240 742 63 585 b 493 -19 63 136 240 -19 z m 493 160 b 281 361 363 160 281 243 b 493 561 281 479 363 561 b 706 361 624 561 706 479 b 493 160 706 243 624 160 z m 407 818 l 583 818 l 781 1046 l 558 1046 z "},"ŏ":{"ha":986,"x_min":0,"x_max":0,"o":"m 493 -19 b 922 360 744 -19 922 136 b 493 742 922 585 744 742 b 63 360 240 742 63 585 b 493 -19 63 136 240 -19 z m 493 160 b 281 361 363 160 281 243 b 493 561 281 479 363 561 b 706 361 624 561 706 479 b 493 160 706 243 624 160 z m 493 818 b 756 1046 658 818 757 899 l 596 1046 b 493 951 593 979 560 951 b 392 1046 428 951 394 979 l 232 1046 b 493 818 231 899 329 818 z "},"ô":{"ha":986,"x_min":0,"x_max":0,"o":"m 493 -19 b 922 360 744 -19 922 136 b 493 742 922 585 744 742 b 63 360 240 742 63 585 b 493 -19 63 136 240 -19 z m 493 160 b 281 361 363 160 281 243 b 493 561 281 479 363 561 b 706 361 624 561 706 479 b 493 160 706 243 624 160 z m 200 818 l 372 818 l 494 925 l 615 818 l 788 818 l 585 1046 l 403 1046 z "},"ö":{"ha":986,"x_min":0,"x_max":0,"o":"m 493 -19 b 922 360 744 -19 922 136 b 493 742 922 585 744 742 b 63 360 240 742 63 585 b 493 -19 63 136 240 -19 z m 493 160 b 281 361 363 160 281 243 b 493 561 281 479 363 561 b 706 361 624 561 706 479 b 493 160 706 243 624 160 z m 668 831 b 790 943 736 831 790 878 b 668 1056 790 1010 736 1056 b 549 943 601 1056 549 1010 b 668 831 549 878 601 831 z m 315 831 b 436 943 382 831 436 878 b 315 1056 436 1010 382 1056 b 194 943 247 1056 194 1010 b 315 831 194 878 247 831 z "},"ò":{"ha":986,"x_min":0,"x_max":0,"o":"m 493 -19 b 922 360 744 -19 922 136 b 493 742 922 585 744 742 b 63 360 240 742 63 585 b 493 -19 63 136 240 -19 z m 493 160 b 281 361 363 160 281 243 b 493 561 281 479 363 561 b 706 361 624 561 706 479 b 493 160 706 243 624 160 z m 447 818 l 624 818 l 472 1046 l 250 1046 z "},"ő":{"ha":986,"x_min":0,"x_max":0,"o":"m 493 -19 b 922 360 744 -19 922 136 b 493 742 922 585 744 742 b 63 360 240 742 63 585 b 493 -19 63 136 240 -19 z m 493 160 b 281 361 363 160 281 243 b 493 561 281 479 363 561 b 706 361 624 561 706 479 b 493 160 706 243 624 160 z m 515 818 l 671 818 l 828 1046 l 635 1046 z m 249 818 l 404 818 l 561 1046 l 368 1046 z "},"ō":{"ha":986,"x_min":0,"x_max":0,"o":"m 493 -19 b 922 360 744 -19 922 136 b 493 742 922 585 744 742 b 63 360 240 742 63 585 b 493 -19 63 136 240 -19 z m 493 160 b 281 361 363 160 281 243 b 493 561 281 479 363 561 b 706 361 624 561 706 479 b 493 160 706 243 624 160 z m 265 847 l 721 847 l 721 968 l 265 968 z "},"ø":{"ha":986,"x_min":0,"x_max":0,"o":"m 171 97 l 63 -19 l 214 -19 l 263 32 b 493 -19 328 0 406 -19 b 922 360 744 -19 922 136 b 814 625 922 467 883 557 l 922 742 l 771 742 l 722 689 b 493 742 658 722 581 742 b 63 360 240 742 63 585 b 171 97 63 254 103 164 z m 597 543 l 317 235 b 278 361 290 268 278 311 b 493 567 278 497 382 567 b 597 543 529 567 565 560 z m 493 157 b 389 178 453 157 418 164 l 668 485 b 708 361 693 453 708 413 b 493 157 708 233 625 157 z "},"ǿ":{"ha":986,"x_min":0,"x_max":0,"o":"m 171 97 l 63 -19 l 214 -19 l 263 32 b 493 -19 328 0 406 -19 b 922 360 744 -19 922 136 b 814 625 922 467 883 557 l 922 742 l 771 742 l 722 689 b 493 742 658 722 581 742 b 63 360 240 742 63 585 b 171 97 63 254 103 164 z m 597 543 l 317 235 b 278 361 290 268 278 311 b 493 567 278 497 382 567 b 597 543 529 567 565 560 z m 493 157 b 389 178 453 157 418 164 l 668 485 b 708 361 693 453 708 413 b 493 157 708 233 625 157 z m 407 818 l 583 818 l 781 1046 l 558 1046 z "},"õ":{"ha":986,"x_min":0,"x_max":0,"o":"m 493 -19 b 922 360 744 -19 922 136 b 493 742 922 585 744 742 b 63 360 240 742 63 585 b 493 -19 63 136 240 -19 z m 493 160 b 281 361 363 160 281 243 b 493 561 281 479 363 561 b 706 361 624 561 706 479 b 493 160 706 243 624 160 z m 256 818 l 388 818 b 376 864 382 831 376 847 b 413 900 376 885 388 900 b 632 818 472 900 521 818 b 763 938 711 818 763 869 b 732 1046 763 979 749 1018 l 600 1046 b 611 1000 606 1035 611 1018 b 575 964 611 981 600 964 b 356 1046 515 964 467 1046 b 225 928 276 1046 225 994 b 256 818 225 886 238 847 z "},"œ":{"ha":1557,"x_min":0,"x_max":0,"o":"m 486 -19 b 801 122 622 -19 725 31 b 1138 -19 879 31 989 -19 b 1447 36 1258 -19 1350 0 l 1447 208 b 1161 153 1353 174 1254 153 b 925 282 1031 153 953 199 l 1500 358 b 1108 742 1496 597 1356 742 b 797 601 978 742 872 693 b 483 742 724 692 615 742 b 63 360 235 742 63 585 b 486 -19 63 136 233 -19 z m 488 160 b 281 361 354 160 281 236 b 488 564 281 494 376 564 b 693 361 599 564 693 494 b 488 160 693 236 619 160 z m 911 369 b 1111 569 911 497 979 569 b 1294 422 1224 569 1283 518 z "},"p":{"ha":1013,"x_min":0,"x_max":0,"o":"m 101 -278 l 315 -278 l 315 65 b 567 -19 392 8 472 -19 b 950 367 794 -19 950 135 b 608 742 950 592 811 742 b 294 503 453 742 336 654 l 292 503 l 315 722 l 101 722 z m 524 160 b 315 361 393 160 315 235 b 524 561 315 486 393 561 b 732 361 654 561 732 486 b 524 160 732 235 654 160 z "},"þ":{"ha":1013,"x_min":0,"x_max":0,"o":"m 101 -278 l 315 -278 l 315 65 b 567 -19 392 8 472 -19 b 950 367 794 -19 950 135 b 608 742 950 592 811 742 b 294 503 453 742 336 654 l 292 503 l 315 722 l 315 1008 l 101 972 z m 524 160 b 315 361 393 160 315 235 b 524 561 315 486 393 561 b 732 361 654 561 732 486 b 524 160 732 235 654 160 z "},"q":{"ha":1013,"x_min":0,"x_max":0,"o":"m 697 -278 l 911 -278 l 911 722 l 697 722 l 722 503 l 719 503 b 406 742 678 654 560 742 b 63 361 203 742 63 590 b 406 -19 63 138 203 -19 b 719 218 561 -19 676 68 l 722 218 l 697 0 z m 489 160 b 281 361 358 160 281 236 b 489 561 281 486 358 561 b 697 360 619 561 697 486 b 489 160 697 235 619 160 z "},"r":{"ha":703,"x_min":0,"x_max":0,"o":"m 101 0 l 315 0 l 315 376 b 506 563 315 488 392 563 b 653 524 550 563 607 549 l 653 735 b 586 742 635 739 611 742 b 294 503 438 742 335 658 l 292 503 l 315 722 l 101 722 z "},"ŕ":{"ha":703,"x_min":0,"x_max":0,"o":"m 101 0 l 315 0 l 315 376 b 506 563 315 488 392 563 b 653 524 550 563 607 549 l 653 735 b 586 742 635 739 611 742 b 294 503 438 742 335 658 l 292 503 l 315 722 l 101 722 z m 283 818 l 460 818 l 657 1046 l 435 1046 z "},"ř":{"ha":703,"x_min":0,"x_max":0,"o":"m 101 0 l 315 0 l 315 376 b 506 563 315 488 392 563 b 653 524 550 563 607 549 l 653 735 b 586 742 635 739 611 742 b 294 503 438 742 335 658 l 292 503 l 315 722 l 101 722 z m 279 818 l 461 818 l 664 1046 l 492 1046 l 371 939 l 249 1046 l 76 1046 z "},"ŗ":{"ha":703,"x_min":0,"x_max":0,"o":"m 101 0 l 315 0 l 315 376 b 506 563 315 488 392 563 b 653 524 550 563 607 549 l 653 735 b 586 742 635 739 611 742 b 294 503 438 742 335 658 l 292 503 l 315 722 l 101 722 z m 81 -382 l 236 -382 l 329 -97 l 124 -97 z "},"s":{"ha":793,"x_min":0,"x_max":0,"o":"m 401 -19 b 744 196 621 -19 744 57 b 439 429 744 318 653 386 b 276 521 321 456 276 481 b 401 582 276 563 318 582 b 694 524 471 582 561 565 l 694 697 b 379 742 551 731 468 742 b 64 535 172 742 64 669 b 364 299 64 407 153 343 b 532 200 485 271 532 243 b 389 140 532 160 486 140 b 75 206 286 140 176 164 l 75 38 b 401 -19 199 -3 297 -19 z "},"ś":{"ha":793,"x_min":0,"x_max":0,"o":"m 401 -19 b 744 196 621 -19 744 57 b 439 429 744 318 653 386 b 276 521 321 456 276 481 b 401 582 276 563 318 582 b 694 524 471 582 561 565 l 694 697 b 379 742 551 731 468 742 b 64 535 172 742 64 669 b 364 299 64 407 153 343 b 532 200 485 271 532 243 b 389 140 532 160 486 140 b 75 206 286 140 176 164 l 75 38 b 401 -19 199 -3 297 -19 z m 301 818 l 478 818 l 675 1046 l 453 1046 z "},"š":{"ha":793,"x_min":0,"x_max":0,"o":"m 401 -19 b 744 196 621 -19 744 57 b 439 429 744 318 653 386 b 276 521 321 456 276 481 b 401 582 276 563 318 582 b 694 524 471 582 561 565 l 694 697 b 379 742 551 731 468 742 b 64 535 172 742 64 669 b 364 299 64 407 153 343 b 532 200 485 271 532 243 b 389 140 532 160 486 140 b 75 206 286 140 176 164 l 75 38 b 401 -19 199 -3 297 -19 z m 297 818 l 479 818 l 682 1046 l 510 1046 l 389 939 l 267 1046 l 94 1046 z "},"ş":{"ha":793,"x_min":0,"x_max":0,"o":"m 406 -337 b 575 -203 510 -337 575 -287 b 410 -82 575 -111 500 -74 l 450 -18 b 744 196 639 -7 744 68 b 439 429 744 318 653 386 b 276 521 321 456 276 481 b 401 582 276 563 318 582 b 694 524 471 582 561 565 l 694 697 b 379 742 551 731 468 742 b 64 535 172 742 64 669 b 364 299 64 407 153 343 b 532 200 485 271 532 243 b 389 140 532 160 486 140 b 75 206 286 140 176 164 l 75 38 b 347 -18 178 4 263 -12 l 269 -165 b 354 -160 294 -161 321 -160 b 414 -192 394 -160 414 -171 b 360 -224 414 -214 393 -224 b 251 -196 325 -224 289 -211 l 251 -312 b 406 -337 300 -328 340 -337 z "},"ŝ":{"ha":793,"x_min":0,"x_max":0,"o":"m 401 -19 b 744 196 621 -19 744 57 b 439 429 744 318 653 386 b 276 521 321 456 276 481 b 401 582 276 563 318 582 b 694 524 471 582 561 565 l 694 697 b 379 742 551 731 468 742 b 64 535 172 742 64 669 b 364 299 64 407 153 343 b 532 200 485 271 532 243 b 389 140 532 160 486 140 b 75 206 286 140 176 164 l 75 38 b 401 -19 199 -3 297 -19 z m 94 818 l 267 818 l 389 925 l 510 818 l 682 818 l 479 1046 l 297 1046 z "},"ș":{"ha":793,"x_min":0,"x_max":0,"o":"m 401 -19 b 744 196 621 -19 744 57 b 439 429 744 318 653 386 b 276 521 321 456 276 481 b 401 582 276 563 318 582 b 694 524 471 582 561 565 l 694 697 b 379 742 551 731 468 742 b 64 535 172 742 64 669 b 364 299 64 407 153 343 b 532 200 485 271 532 243 b 389 140 532 160 486 140 b 75 206 286 140 176 164 l 75 38 b 401 -19 199 -3 297 -19 z m 274 -382 l 429 -382 l 522 -97 l 317 -97 z "},"ß":{"ha":939,"x_min":0,"x_max":0,"o":"m 603 -19 b 885 226 749 -19 885 68 b 708 511 885 390 708 454 b 828 763 708 565 828 635 b 490 992 828 883 715 992 b 101 631 239 992 101 850 l 101 0 l 315 0 l 317 643 b 485 824 317 771 375 824 b 618 729 575 824 618 789 b 514 493 618 624 514 572 b 669 249 514 413 669 357 b 556 149 669 185 628 149 b 382 193 485 149 433 168 l 383 24 b 603 -19 442 -1 507 -19 z "},"ſ":{"ha":665,"x_min":0,"x_max":0,"o":"m 101 719 l 101 0 l 315 0 l 315 690 b 440 801 315 774 358 801 b 633 771 496 801 550 793 l 633 956 b 390 992 547 979 474 992 b 101 719 221 992 101 903 z "},"t":{"ha":747,"x_min":0,"x_max":0,"o":"m 467 -19 b 686 14 540 -19 613 -8 l 686 199 b 515 171 622 179 564 171 b 375 321 414 171 375 213 l 375 540 l 674 540 l 674 722 l 375 722 l 375 875 l 282 875 l 281 864 b 60 686 253 767 171 700 l 50 685 l 50 540 l 161 540 l 161 283 b 467 -19 161 74 256 -19 z "},"ŧ":{"ha":747,"x_min":0,"x_max":0,"o":"m 467 -19 b 686 14 540 -19 613 -8 l 686 199 b 515 171 622 179 564 171 b 375 321 414 171 375 213 l 375 349 l 632 349 l 632 443 l 375 443 l 375 553 l 674 553 l 674 722 l 375 722 l 375 875 l 282 875 l 281 864 b 60 686 253 767 171 700 l 50 685 l 50 553 l 161 553 l 161 443 l 50 443 l 50 349 l 161 349 l 161 283 b 467 -19 161 74 256 -19 z "},"ť":{"ha":749,"x_min":0,"x_max":0,"o":"m 467 -19 b 686 14 540 -19 613 -8 l 686 199 b 515 171 622 179 564 171 b 375 321 414 171 375 213 l 375 540 l 674 540 l 674 722 l 375 722 l 375 875 l 282 875 l 281 864 b 60 686 253 767 171 700 l 50 685 l 50 540 l 161 540 l 161 283 b 467 -19 161 74 256 -19 z m 474 806 l 622 806 l 713 1110 l 518 1110 z "},"ţ":{"ha":747,"x_min":0,"x_max":0,"o":"m 458 -337 b 628 -203 563 -337 628 -287 b 463 -82 628 -111 553 -74 l 501 -18 b 686 14 564 -15 624 -4 l 686 199 b 515 171 622 179 564 171 b 375 321 414 171 375 213 l 375 540 l 674 540 l 674 722 l 375 722 l 375 875 l 282 875 l 281 864 b 60 686 253 767 171 700 l 50 685 l 50 540 l 161 540 l 161 283 b 401 -17 161 97 236 3 l 322 -165 b 407 -160 347 -161 374 -160 b 467 -192 447 -160 467 -171 b 413 -224 467 -214 446 -224 b 304 -196 378 -224 342 -211 l 304 -312 b 458 -337 353 -328 393 -337 z "},"ț":{"ha":747,"x_min":0,"x_max":0,"o":"m 467 -19 b 686 14 540 -19 613 -8 l 686 199 b 515 171 622 179 564 171 b 375 321 414 171 375 213 l 375 540 l 674 540 l 674 722 l 375 722 l 375 875 l 282 875 l 281 864 b 60 686 253 767 171 700 l 50 685 l 50 540 l 161 540 l 161 283 b 467 -19 161 74 256 -19 z m 326 -382 l 482 -382 l 575 -97 l 369 -97 z "},"u":{"ha":983,"x_min":0,"x_max":0,"o":"m 385 -19 b 689 218 542 -19 649 65 l 692 218 l 668 0 l 882 0 l 882 722 l 668 722 l 668 351 b 481 160 668 235 596 160 b 315 338 374 160 315 219 l 315 722 l 101 722 l 101 299 b 385 -19 101 90 203 -19 z "},"ú":{"ha":983,"x_min":0,"x_max":0,"o":"m 385 -19 b 689 218 542 -19 649 65 l 692 218 l 668 0 l 882 0 l 882 722 l 668 722 l 668 351 b 481 160 668 235 596 160 b 315 338 374 160 315 219 l 315 722 l 101 722 l 101 299 b 385 -19 101 90 203 -19 z m 406 818 l 582 818 l 779 1046 l 557 1046 z "},"ŭ":{"ha":983,"x_min":0,"x_max":0,"o":"m 385 -19 b 689 218 542 -19 649 65 l 692 218 l 668 0 l 882 0 l 882 722 l 668 722 l 668 351 b 481 160 668 235 596 160 b 315 338 374 160 315 219 l 315 722 l 101 722 l 101 299 b 385 -19 101 90 203 -19 z m 492 818 b 754 1046 657 818 756 899 l 594 1046 b 492 951 592 979 558 951 b 390 1046 426 951 393 979 l 231 1046 b 492 818 229 899 328 818 z "},"û":{"ha":983,"x_min":0,"x_max":0,"o":"m 385 -19 b 689 218 542 -19 649 65 l 692 218 l 668 0 l 882 0 l 882 722 l 668 722 l 668 351 b 481 160 668 235 596 160 b 315 338 374 160 315 219 l 315 722 l 101 722 l 101 299 b 385 -19 101 90 203 -19 z m 199 818 l 371 818 l 493 925 l 614 818 l 786 818 l 583 1046 l 401 1046 z "},"ü":{"ha":983,"x_min":0,"x_max":0,"o":"m 385 -19 b 689 218 542 -19 649 65 l 692 218 l 668 0 l 882 0 l 882 722 l 668 722 l 668 351 b 481 160 668 235 596 160 b 315 338 374 160 315 219 l 315 722 l 101 722 l 101 299 b 385 -19 101 90 203 -19 z m 667 831 b 789 943 735 831 789 878 b 667 1056 789 1010 735 1056 b 547 943 600 1056 547 1010 b 667 831 547 878 600 831 z m 314 831 b 435 943 381 831 435 878 b 314 1056 435 1010 381 1056 b 193 943 246 1056 193 1010 b 314 831 193 878 246 831 z "},"ù":{"ha":983,"x_min":0,"x_max":0,"o":"m 385 -19 b 689 218 542 -19 649 65 l 692 218 l 668 0 l 882 0 l 882 722 l 668 722 l 668 351 b 481 160 668 235 596 160 b 315 338 374 160 315 219 l 315 722 l 101 722 l 101 299 b 385 -19 101 90 203 -19 z m 446 818 l 622 818 l 471 1046 l 249 1046 z "},"ű":{"ha":983,"x_min":0,"x_max":0,"o":"m 385 -19 b 689 218 542 -19 649 65 l 692 218 l 668 0 l 882 0 l 882 722 l 668 722 l 668 351 b 481 160 668 235 596 160 b 315 338 374 160 315 219 l 315 722 l 101 722 l 101 299 b 385 -19 101 90 203 -19 z m 514 818 l 669 818 l 826 1046 l 633 1046 z m 247 818 l 403 818 l 560 1046 l 367 1046 z "},"ū":{"ha":983,"x_min":0,"x_max":0,"o":"m 385 -19 b 689 218 542 -19 649 65 l 692 218 l 668 0 l 882 0 l 882 722 l 668 722 l 668 351 b 481 160 668 235 596 160 b 315 338 374 160 315 219 l 315 722 l 101 722 l 101 299 b 385 -19 101 90 203 -19 z m 264 847 l 719 847 l 719 968 l 264 968 z "},"ų":{"ha":983,"x_min":0,"x_max":0,"o":"m 385 -19 b 689 218 542 -19 649 65 l 692 218 l 668 0 l 760 0 b 614 -226 678 -72 614 -142 b 750 -337 614 -296 665 -337 b 876 -312 801 -337 842 -328 l 876 -189 b 822 -200 858 -196 840 -200 b 783 -161 797 -200 783 -187 b 882 0 783 -117 822 -61 l 882 722 l 668 722 l 668 351 b 481 160 668 235 596 160 b 315 338 374 160 315 219 l 315 722 l 101 722 l 101 299 b 385 -19 101 90 203 -19 z "},"ů":{"ha":983,"x_min":0,"x_max":0,"o":"m 385 -19 b 689 218 542 -19 649 65 l 692 218 l 668 0 l 882 0 l 882 722 l 668 722 l 668 351 b 481 160 668 235 596 160 b 315 338 374 160 315 219 l 315 722 l 101 722 l 101 299 b 385 -19 101 90 203 -19 z m 492 818 b 713 963 629 818 713 874 b 492 1107 713 1053 629 1107 b 271 963 353 1107 271 1053 b 492 818 271 874 353 818 z m 492 910 b 417 963 444 910 417 931 b 492 1015 417 996 444 1015 b 567 963 539 1015 567 996 b 492 910 567 931 539 910 z "},"ũ":{"ha":983,"x_min":0,"x_max":0,"o":"m 385 -19 b 689 218 542 -19 649 65 l 692 218 l 668 0 l 882 0 l 882 722 l 668 722 l 668 351 b 481 160 668 235 596 160 b 315 338 374 160 315 219 l 315 722 l 101 722 l 101 299 b 385 -19 101 90 203 -19 z m 253 818 l 385 818 b 374 864 379 831 374 847 b 410 900 374 885 385 900 b 629 818 469 900 518 818 b 760 938 708 818 760 869 b 729 1046 760 979 746 1018 l 597 1046 b 608 1000 603 1035 608 1018 b 572 964 608 981 597 964 b 353 1046 513 964 464 1046 b 222 928 274 1046 222 994 b 253 818 222 886 235 847 z "},"v":{"ha":879,"x_min":0,"x_max":0,"o":"m 315 0 l 576 0 l 856 722 l 639 722 l 449 168 l 446 168 l 246 722 l 24 722 z "},"w":{"ha":1288,"x_min":0,"x_max":0,"o":"m 204 0 l 454 0 l 642 372 l 644 372 l 833 0 l 1083 0 l 1260 722 l 1036 722 l 975 422 l 933 169 l 931 169 l 647 742 l 640 742 l 358 169 l 356 169 l 315 421 l 251 722 l 28 722 z "},"ẃ":{"ha":1288,"x_min":0,"x_max":0,"o":"m 204 0 l 454 0 l 642 372 l 644 372 l 833 0 l 1083 0 l 1260 722 l 1036 722 l 975 422 l 933 169 l 931 169 l 647 742 l 640 742 l 358 169 l 356 169 l 315 421 l 251 722 l 28 722 z m 558 818 l 735 818 l 932 1046 l 710 1046 z "},"ŵ":{"ha":1288,"x_min":0,"x_max":0,"o":"m 204 0 l 454 0 l 642 372 l 644 372 l 833 0 l 1083 0 l 1260 722 l 1036 722 l 975 422 l 933 169 l 931 169 l 647 742 l 640 742 l 358 169 l 356 169 l 315 421 l 251 722 l 28 722 z m 350 818 l 522 818 l 644 925 l 765 818 l 938 818 l 735 1046 l 553 1046 z "},"ẅ":{"ha":1288,"x_min":0,"x_max":0,"o":"m 204 0 l 454 0 l 642 372 l 644 372 l 833 0 l 1083 0 l 1260 722 l 1036 722 l 975 422 l 933 169 l 931 169 l 647 742 l 640 742 l 358 169 l 356 169 l 315 421 l 251 722 l 28 722 z m 819 831 b 942 943 888 831 942 878 b 819 1056 942 1010 888 1056 b 700 943 753 1056 700 1010 b 819 831 700 878 753 831 z m 467 831 b 588 943 533 831 588 878 b 467 1056 588 1010 533 1056 b 346 943 399 1056 346 1010 b 467 831 346 878 399 831 z "},"ẁ":{"ha":1288,"x_min":0,"x_max":0,"o":"m 204 0 l 454 0 l 642 372 l 644 372 l 833 0 l 1083 0 l 1260 722 l 1036 722 l 975 422 l 933 169 l 931 169 l 647 742 l 640 742 l 358 169 l 356 169 l 315 421 l 251 722 l 28 722 z m 599 818 l 775 818 l 624 1046 l 401 1046 z "},"x":{"ha":879,"x_min":0,"x_max":0,"o":"m 619 0 l 863 0 l 585 374 l 850 722 l 615 722 l 442 485 l 267 722 l 28 722 l 294 369 l 17 0 l 254 0 l 436 257 z "},"y":{"ha":896,"x_min":0,"x_max":0,"o":"m 282 -297 b 589 3 460 -297 508 -203 l 874 722 l 656 722 l 478 218 l 246 722 l 24 722 l 382 3 l 369 -36 b 258 -124 353 -96 318 -124 b 81 -82 200 -124 150 -111 l 81 -262 b 282 -297 157 -286 211 -297 z "},"ý":{"ha":896,"x_min":0,"x_max":0,"o":"m 282 -297 b 589 3 460 -297 508 -203 l 874 722 l 656 722 l 478 218 l 246 722 l 24 722 l 382 3 l 369 -36 b 258 -124 353 -96 318 -124 b 81 -82 200 -124 150 -111 l 81 -262 b 282 -297 157 -286 211 -297 z m 367 818 l 543 818 l 740 1046 l 518 1046 z "},"ŷ":{"ha":896,"x_min":0,"x_max":0,"o":"m 282 -297 b 589 3 460 -297 508 -203 l 874 722 l 656 722 l 478 218 l 246 722 l 24 722 l 382 3 l 369 -36 b 258 -124 353 -96 318 -124 b 81 -82 200 -124 150 -111 l 81 -262 b 282 -297 157 -286 211 -297 z m 158 818 l 331 818 l 453 925 l 574 818 l 746 818 l 543 1046 l 361 1046 z "},"ÿ":{"ha":896,"x_min":0,"x_max":0,"o":"m 282 -297 b 589 3 460 -297 508 -203 l 874 722 l 656 722 l 478 218 l 246 722 l 24 722 l 382 3 l 369 -36 b 258 -124 353 -96 318 -124 b 81 -82 200 -124 150 -111 l 81 -262 b 282 -297 157 -286 211 -297 z m 628 831 b 750 943 696 831 750 878 b 628 1056 750 1010 696 1056 b 508 943 561 1056 508 1010 b 628 831 508 878 561 831 z m 275 831 b 396 943 342 831 396 878 b 275 1056 396 1010 342 1056 b 154 943 207 1056 154 1010 b 275 831 154 878 207 831 z "},"ỳ":{"ha":896,"x_min":0,"x_max":0,"o":"m 282 -297 b 589 3 460 -297 508 -203 l 874 722 l 656 722 l 478 218 l 246 722 l 24 722 l 382 3 l 369 -36 b 258 -124 353 -96 318 -124 b 81 -82 200 -124 150 -111 l 81 -262 b 282 -297 157 -286 211 -297 z m 407 818 l 583 818 l 432 1046 l 210 1046 z "},"z":{"ha":788,"x_min":0,"x_max":0,"o":"m 32 0 l 735 0 l 735 182 l 367 182 l 751 715 l 751 722 l 72 722 l 72 540 l 421 540 l 32 7 z "},"ź":{"ha":788,"x_min":0,"x_max":0,"o":"m 32 0 l 735 0 l 735 182 l 367 182 l 751 715 l 751 722 l 72 722 l 72 540 l 421 540 l 32 7 z m 307 818 l 483 818 l 681 1046 l 458 1046 z "},"ž":{"ha":788,"x_min":0,"x_max":0,"o":"m 32 0 l 735 0 l 735 182 l 367 182 l 751 715 l 751 722 l 72 722 l 72 540 l 421 540 l 32 7 z m 301 818 l 483 818 l 686 1046 l 514 1046 l 393 939 l 271 1046 l 99 1046 z "},"ż":{"ha":788,"x_min":0,"x_max":0,"o":"m 32 0 l 735 0 l 735 182 l 367 182 l 751 715 l 751 722 l 72 722 l 72 540 l 421 540 l 32 7 z m 392 831 b 519 943 464 831 519 878 b 392 1056 519 1010 464 1056 b 265 943 321 1056 265 1010 b 392 831 265 878 321 831 z "},"ª":{"ha":789,"x_min":0,"x_max":0,"o":"m 281 317 b 551 529 418 317 513 389 l 554 529 l 532 335 l 729 335 l 729 708 b 408 986 729 890 618 986 b 106 932 314 986 217 968 l 106 768 b 367 833 200 813 288 833 b 532 710 472 833 531 792 l 319 710 b 61 511 156 710 61 639 b 281 317 61 389 144 317 z m 353 468 b 251 550 288 468 251 496 b 360 633 251 604 289 633 l 532 633 l 532 611 b 353 468 532 532 450 468 z "},"º":{"ha":888,"x_min":0,"x_max":0,"o":"m 443 322 b 826 654 672 322 826 456 b 443 985 826 850 672 985 b 61 654 215 985 61 850 b 443 322 61 456 215 322 z m 443 483 b 261 654 331 483 261 549 b 443 825 261 767 350 825 b 628 654 538 825 628 767 b 443 483 628 549 557 483 z "},"А":{"ha":1031,"x_min":0,"x_max":0,"o":"m 17 0 l 243 0 l 296 158 l 733 158 l 788 0 l 1014 0 l 654 972 l 382 972 z m 354 332 l 517 796 l 678 332 z "},"Б":{"ha":1021,"x_min":0,"x_max":0,"o":"m 122 0 l 542 0 b 961 304 833 0 961 106 b 543 597 961 497 835 597 l 347 597 l 347 794 l 867 794 l 867 972 l 122 972 z m 524 164 l 347 164 l 347 446 l 524 446 b 729 304 678 446 729 401 b 524 164 729 208 678 164 z "},"В":{"ha":1039,"x_min":0,"x_max":0,"o":"m 122 0 l 588 0 b 974 256 844 0 974 86 b 692 500 974 404 872 492 l 692 503 b 946 732 858 515 946 596 b 586 972 946 893 825 972 l 122 972 z m 536 561 l 347 561 l 347 808 l 540 808 b 717 693 663 808 717 772 b 536 561 717 608 653 561 z m 347 164 l 347 417 l 540 417 b 739 292 682 417 739 381 b 540 164 739 201 681 164 z "},"Г":{"ha":850,"x_min":0,"x_max":0,"o":"m 122 0 l 347 0 l 347 772 l 800 772 l 800 972 l 122 972 z "},"Ѓ":{"ha":850,"x_min":0,"x_max":0,"o":"m 122 0 l 347 0 l 347 772 l 800 772 l 800 972 l 122 972 z m 346 1065 l 551 1065 l 778 1304 l 519 1304 z "},"Ґ":{"ha":850,"x_min":0,"x_max":0,"o":"m 122 0 l 347 0 l 347 772 l 800 772 l 800 1194 l 575 1194 l 575 972 l 122 972 z "},"Д":{"ha":1192,"x_min":0,"x_max":0,"o":"m 11 -222 l 233 -222 l 233 0 l 932 0 l 932 -222 l 1154 -222 l 1154 200 l 1026 200 l 1026 972 l 204 972 l 204 575 b 131 200 204 404 181 297 l 11 200 z m 360 200 b 421 560 401 297 421 410 l 421 776 l 806 776 l 806 200 z "},"Е":{"ha":913,"x_min":0,"x_max":0,"o":"m 122 0 l 831 0 l 831 179 l 347 179 l 347 406 l 794 406 l 794 567 l 347 567 l 347 793 l 831 793 l 831 972 l 122 972 z "},"Ѐ":{"ha":913,"x_min":0,"x_max":0,"o":"m 122 0 l 831 0 l 831 179 l 347 179 l 347 406 l 794 406 l 794 567 l 347 567 l 347 793 l 831 793 l 831 972 l 122 972 z m 392 1065 l 596 1065 l 424 1304 l 164 1304 z "},"Ё":{"ha":913,"x_min":0,"x_max":0,"o":"m 122 0 l 831 0 l 831 179 l 347 179 l 347 406 l 794 406 l 794 567 l 347 567 l 347 793 l 831 793 l 831 972 l 122 972 z m 676 1074 b 804 1192 749 1074 804 1124 b 676 1311 804 1261 749 1311 b 550 1192 607 1311 550 1261 b 676 1074 550 1124 607 1074 z m 282 1074 b 410 1192 353 1074 410 1124 b 282 1311 410 1261 353 1311 b 156 1192 211 1311 156 1261 b 282 1074 156 1124 211 1074 z "},"Ж":{"ha":1579,"x_min":0,"x_max":0,"o":"m 1232 222 l 1300 0 l 1550 0 l 1454 281 b 1211 481 1410 406 1342 463 l 1132 490 l 1132 493 b 1476 972 1374 533 1451 703 l 1247 972 b 965 561 1232 735 1163 561 l 900 561 l 900 972 l 678 972 l 678 561 l 614 561 b 332 972 417 561 347 735 l 103 972 b 447 493 128 703 204 533 l 447 490 l 368 481 b 125 281 236 463 168 406 l 28 0 l 279 0 l 346 222 b 613 389 383 342 464 389 l 678 389 l 678 0 l 900 0 l 900 389 l 965 389 b 1232 222 1114 389 1194 342 z "},"З":{"ha":918,"x_min":0,"x_max":0,"o":"m 444 -19 b 853 268 682 -19 853 90 b 569 500 853 403 750 490 l 569 503 b 839 731 728 518 839 589 b 465 992 839 885 710 992 b 79 936 336 992 197 967 l 79 739 b 433 808 197 781 331 808 b 610 697 561 808 610 769 b 421 565 610 614 539 565 l 175 565 l 175 411 l 428 411 b 618 286 564 411 618 368 b 432 163 618 208 549 163 b 63 240 326 163 194 185 l 63 43 b 444 -19 192 -1 307 -19 z "},"И":{"ha":1214,"x_min":0,"x_max":0,"o":"m 122 0 l 363 0 l 871 685 l 874 685 l 865 442 l 865 0 l 1092 0 l 1092 972 l 851 972 l 343 288 l 340 288 l 347 531 l 347 972 l 122 972 z "},"Й":{"ha":1214,"x_min":0,"x_max":0,"o":"m 122 0 l 363 0 l 871 685 l 874 685 l 865 442 l 865 0 l 1092 0 l 1092 972 l 851 972 l 343 288 l 340 288 l 347 531 l 347 972 l 122 972 z m 607 1056 b 883 1126 721 1056 818 1085 l 883 1285 b 607 1208 799 1232 713 1208 b 332 1285 503 1208 417 1232 l 332 1126 b 607 1056 397 1085 494 1056 z "},"Ѝ":{"ha":1214,"x_min":0,"x_max":0,"o":"m 122 0 l 363 0 l 871 685 l 874 685 l 865 442 l 865 0 l 1092 0 l 1092 972 l 851 972 l 343 288 l 340 288 l 347 531 l 347 972 l 122 972 z m 518 1065 l 722 1065 l 550 1304 l 290 1304 z "},"К":{"ha":1088,"x_min":0,"x_max":0,"o":"m 742 222 l 810 0 l 1060 0 l 963 281 b 721 481 919 406 851 463 l 642 490 l 642 493 b 986 972 883 533 961 703 l 757 972 b 475 561 742 735 672 561 l 347 561 l 347 972 l 122 972 l 122 0 l 347 0 l 347 389 l 475 389 b 742 222 624 389 704 342 z "},"Ќ":{"ha":1088,"x_min":0,"x_max":0,"o":"m 742 222 l 810 0 l 1060 0 l 963 281 b 721 481 919 406 851 463 l 642 490 l 642 493 b 986 972 883 533 961 703 l 757 972 b 475 561 742 735 672 561 l 347 561 l 347 972 l 122 972 l 122 0 l 347 0 l 347 389 l 475 389 b 742 222 624 389 704 342 z m 426 1065 l 632 1065 l 858 1304 l 600 1304 z "},"Л":{"ha":1157,"x_min":0,"x_max":0,"o":"m 160 -19 b 440 472 344 -19 440 111 l 440 772 l 810 772 l 810 0 l 1035 0 l 1035 972 l 224 972 l 224 528 b 106 182 224 264 183 182 b 18 193 69 182 44 188 l 18 -3 b 160 -19 53 -11 94 -19 z "},"М":{"ha":1417,"x_min":0,"x_max":0,"o":"m 704 -19 l 711 -19 l 1076 644 l 1079 644 l 1067 389 l 1067 0 l 1293 0 l 1294 972 l 1044 972 l 708 324 l 371 972 l 122 972 l 124 0 l 349 0 l 349 389 l 338 644 l 340 644 z "},"Н":{"ha":1164,"x_min":0,"x_max":0,"o":"m 815 0 l 1042 0 l 1042 972 l 815 972 l 815 575 l 347 575 l 347 972 l 122 972 l 122 0 l 347 0 l 347 375 l 815 375 z "},"О":{"ha":1206,"x_min":0,"x_max":0,"o":"m 603 -19 b 1131 486 906 -19 1131 182 b 603 992 1131 790 906 992 b 75 486 300 992 75 790 b 603 -19 75 182 300 -19 z m 603 182 b 310 486 429 182 310 290 b 603 792 310 682 429 792 b 896 486 776 792 896 682 b 603 182 896 290 776 182 z "},"П":{"ha":1157,"x_min":0,"x_max":0,"o":"m 122 0 l 347 0 l 347 772 l 808 772 l 808 0 l 1035 0 l 1035 972 l 122 972 z "},"Р":{"ha":1033,"x_min":0,"x_max":0,"o":"m 122 0 l 347 0 l 347 269 l 518 269 b 975 618 833 269 975 379 b 519 972 975 858 829 972 l 122 972 z m 517 456 l 347 456 l 347 786 l 517 786 b 740 621 681 786 740 742 b 517 456 740 500 681 456 z "},"С":{"ha":990,"x_min":0,"x_max":0,"o":"m 613 -19 b 924 22 704 -19 822 -6 l 924 231 b 618 181 817 197 704 181 b 310 486 431 181 310 289 b 618 792 310 685 431 792 b 914 740 701 792 813 774 l 914 949 b 611 992 804 978 699 992 b 75 486 299 992 75 790 b 613 -19 75 182 299 -19 z "},"Т":{"ha":961,"x_min":0,"x_max":0,"o":"m 367 0 l 593 0 l 593 772 l 911 772 l 911 972 l 49 972 l 49 772 l 367 772 z "},"У":{"ha":1011,"x_min":0,"x_max":0,"o":"m 196 0 l 346 0 b 631 188 492 0 571 60 l 997 972 l 774 972 l 550 496 l 267 972 l 17 972 l 447 276 b 313 192 418 219 382 192 l 196 192 z "},"Ў":{"ha":1011,"x_min":0,"x_max":0,"o":"m 196 0 l 346 0 b 631 188 492 0 571 60 l 997 972 l 774 972 l 550 496 l 267 972 l 17 972 l 447 276 b 313 192 418 219 382 192 l 196 192 z m 507 1056 b 783 1126 621 1056 718 1085 l 783 1285 b 507 1208 699 1232 613 1208 b 232 1285 403 1208 317 1232 l 232 1126 b 507 1056 297 1085 394 1056 z "},"Ф":{"ha":1472,"x_min":0,"x_max":0,"o":"m 618 8 l 626 8 l 626 -126 l 846 -126 l 846 8 l 854 8 b 1394 486 1186 8 1394 193 b 854 964 1394 778 1186 964 l 846 964 l 846 1099 l 626 1099 l 626 964 l 618 964 b 78 486 286 964 78 778 b 618 8 78 193 286 8 z m 310 485 b 618 772 310 675 413 772 l 635 772 l 635 200 l 618 200 b 310 485 413 200 310 296 z m 838 200 l 838 772 l 856 772 b 1163 485 1060 772 1163 675 b 851 200 1163 296 1056 200 z "},"Х":{"ha":1049,"x_min":0,"x_max":0,"o":"m 779 0 l 1032 0 l 672 506 l 1004 972 l 754 972 l 525 644 l 297 972 l 44 972 l 376 504 l 17 0 l 267 0 l 524 358 z "},"Ч":{"ha":1079,"x_min":0,"x_max":0,"o":"m 731 328 l 731 0 l 957 0 l 957 972 l 731 972 l 731 515 b 515 476 664 490 592 476 b 333 644 383 476 333 533 l 333 972 l 108 972 l 108 624 b 468 281 108 393 228 281 b 731 328 546 281 657 301 z "},"Ц":{"ha":1200,"x_min":0,"x_max":0,"o":"m 939 -222 l 1163 -222 l 1163 200 l 1035 200 l 1035 972 l 808 972 l 808 200 l 347 200 l 347 972 l 122 972 l 122 0 l 939 0 z "},"Ш":{"ha":1685,"x_min":0,"x_max":0,"o":"m 122 0 l 1563 0 l 1563 972 l 1336 972 l 1336 200 l 956 200 l 956 972 l 729 972 l 729 200 l 347 200 l 347 972 l 122 972 z "},"Щ":{"ha":1728,"x_min":0,"x_max":0,"o":"m 1467 -222 l 1690 -222 l 1690 200 l 1563 200 l 1563 972 l 1336 972 l 1336 200 l 956 200 l 956 972 l 729 972 l 729 200 l 347 200 l 347 972 l 122 972 l 122 0 l 1467 0 z "},"Џ":{"ha":1157,"x_min":0,"x_max":0,"o":"m 467 -222 l 690 -222 l 690 0 l 1035 0 l 1035 972 l 808 972 l 808 200 l 347 200 l 347 972 l 122 972 l 122 0 l 467 0 z "},"Ь":{"ha":1024,"x_min":0,"x_max":0,"o":"m 122 0 l 543 0 b 965 336 833 0 965 106 b 544 674 965 569 831 674 l 347 674 l 347 972 l 122 972 z m 525 176 l 347 176 l 347 497 l 525 497 b 731 336 679 497 731 453 b 525 176 731 222 679 176 z "},"Ы":{"ha":1472,"x_min":0,"x_max":0,"o":"m 122 0 l 543 0 b 965 336 833 0 965 106 b 544 674 965 569 831 674 l 347 674 l 347 972 l 122 972 z m 525 176 l 347 176 l 347 497 l 525 497 b 731 336 679 497 731 453 b 525 176 731 222 679 176 z m 1125 0 l 1350 0 l 1350 972 l 1125 972 z "},"Ъ":{"ha":1171,"x_min":0,"x_max":0,"o":"m 269 0 l 692 0 b 1114 336 982 0 1114 106 b 693 674 1114 569 979 674 l 496 674 l 496 972 l 49 972 l 49 772 l 269 772 z m 674 176 l 496 176 l 496 497 l 674 497 b 879 336 828 497 879 453 b 674 176 879 222 828 176 z "},"Љ":{"ha":1711,"x_min":0,"x_max":0,"o":"m 160 -19 b 440 472 344 -19 440 111 l 440 772 l 810 772 l 810 0 l 1231 0 b 1653 336 1521 0 1653 106 b 1232 674 1653 569 1518 674 l 1035 674 l 1035 972 l 224 972 l 224 528 b 106 182 224 264 183 182 b 18 193 69 182 44 188 l 18 -3 b 160 -19 53 -11 94 -19 z m 1213 176 l 1035 176 l 1035 497 l 1213 497 b 1418 336 1367 497 1418 453 b 1213 176 1418 222 1367 176 z "},"Њ":{"ha":1717,"x_min":0,"x_max":0,"o":"m 122 0 l 347 0 l 347 419 l 815 419 l 815 0 l 1236 0 b 1658 314 1528 0 1658 106 b 1238 619 1658 515 1525 619 l 1042 619 l 1042 972 l 815 972 l 815 619 l 347 619 l 347 972 l 122 972 z m 1219 176 l 1042 176 l 1042 443 l 1219 443 b 1425 314 1372 443 1425 399 b 1219 176 1425 222 1372 176 z "},"Ѕ":{"ha":957,"x_min":0,"x_max":0,"o":"m 490 -19 b 896 256 747 -19 896 76 b 547 563 896 399 801 490 b 314 708 414 603 314 633 b 474 806 314 771 369 806 b 843 739 583 806 708 783 l 843 935 b 463 990 683 975 578 990 b 83 719 217 990 83 899 b 461 414 83 524 256 467 b 665 263 614 367 665 328 b 488 165 665 193 615 165 b 94 244 351 165 201 196 l 94 43 b 490 -19 225 -1 342 -19 z "},"Є":{"ha":993,"x_min":0,"x_max":0,"o":"m 606 -19 b 921 22 697 -19 819 -6 l 921 218 b 618 169 814 185 704 169 b 314 413 446 169 338 253 l 811 413 l 811 560 l 314 560 b 615 804 338 721 446 804 b 911 753 706 804 810 786 l 911 949 b 600 992 801 978 693 992 b 75 486 275 992 75 790 b 606 -19 75 182 288 -19 z "},"Э":{"ha":993,"x_min":0,"x_max":0,"o":"m 388 -19 b 918 486 706 -19 918 182 b 393 992 918 790 718 992 b 82 949 300 992 192 978 l 82 753 b 378 804 183 786 288 804 b 679 560 547 804 656 721 l 182 560 l 182 413 l 679 413 b 375 169 656 253 547 169 b 72 218 289 169 179 185 l 72 22 b 388 -19 174 -6 296 -19 z "},"І":{"ha":469,"x_min":0,"x_max":0,"o":"m 122 0 l 347 0 l 347 972 l 122 972 z "},"Ї":{"ha":469,"x_min":0,"x_max":0,"o":"m 122 0 l 347 0 l 347 972 l 122 972 z m 431 1074 b 558 1192 503 1074 558 1124 b 431 1311 558 1261 503 1311 b 304 1192 361 1311 304 1261 b 431 1074 304 1124 361 1074 z m 36 1074 b 164 1192 107 1074 164 1124 b 36 1311 164 1261 107 1311 b -90 1192 -35 1311 -90 1261 b 36 1074 -90 1124 -35 1074 z "},"Ј":{"ha":903,"x_min":0,"x_max":0,"o":"m 374 -19 b 788 399 640 -19 788 115 l 788 972 l 122 972 l 122 772 l 561 772 l 561 397 b 346 188 561 256 494 188 b 79 238 249 188 171 206 l 79 22 b 374 -19 165 -1 263 -19 z "},"Ћ":{"ha":1274,"x_min":0,"x_max":0,"o":"m 339 0 l 565 0 l 565 269 b 768 471 565 381 638 471 b 956 269 897 471 956 389 l 956 0 l 1182 0 l 1182 306 b 864 643 1182 508 1061 643 b 565 501 733 643 625 581 l 565 772 l 953 772 l 953 972 l 49 972 l 49 772 l 339 772 z "},"Ю":{"ha":1610,"x_min":0,"x_max":0,"o":"m 1018 -19 b 1535 486 1311 -19 1535 182 b 1018 992 1535 790 1311 992 b 511 567 756 992 547 825 l 347 567 l 347 972 l 122 972 l 122 0 l 347 0 l 347 385 l 514 385 b 1018 -19 558 138 763 -19 z m 1018 182 b 736 486 854 182 736 290 b 1018 792 736 682 854 792 b 1300 486 1182 792 1300 682 b 1018 182 1300 290 1182 182 z "},"Я":{"ha":1056,"x_min":0,"x_max":0,"o":"m 149 253 l 42 0 l 293 0 l 369 207 b 569 342 404 299 463 342 l 708 342 l 708 0 l 935 0 l 935 972 l 511 972 b 94 679 218 972 94 868 b 378 418 94 518 236 429 l 378 415 b 149 253 243 403 188 347 z m 554 490 b 322 644 392 490 322 535 b 544 792 322 749 383 792 l 708 792 l 708 490 z "},"Ђ":{"ha":1274,"x_min":0,"x_max":0,"o":"m 926 -201 b 1182 110 1119 -201 1182 -62 l 1182 306 b 864 643 1182 508 1061 643 b 565 501 733 643 625 581 l 565 772 l 953 772 l 953 972 l 49 972 l 49 772 l 339 772 l 339 0 l 565 0 l 565 269 b 768 471 565 381 638 471 b 956 269 897 471 956 389 l 956 108 b 861 -36 956 4 925 -36 b 804 -29 838 -36 822 -33 l 804 -186 b 926 -201 842 -196 875 -201 z "},"Ӕ":{"ha":1526,"x_min":0,"x_max":0,"o":"m 7 0 l 254 0 l 357 158 l 754 158 l 754 0 l 1444 0 l 1444 179 l 975 179 l 975 406 l 1408 406 l 1408 567 l 975 567 l 975 793 l 1444 793 l 1444 972 l 629 972 z m 457 332 l 754 792 l 754 332 z "},"а":{"ha":904,"x_min":0,"x_max":0,"o":"m 311 -19 b 617 218 465 -19 572 63 l 619 218 l 596 0 l 810 0 l 810 422 b 450 742 810 633 685 742 b 113 681 349 742 236 721 l 113 497 b 406 569 218 546 317 569 b 596 425 529 569 594 519 l 353 425 b 61 200 167 425 61 344 b 311 -19 61 63 156 -19 z m 388 147 b 269 240 311 147 269 179 b 394 338 269 304 313 338 l 596 338 l 596 313 b 388 147 596 221 500 147 z "},"б":{"ha":983,"x_min":0,"x_max":0,"o":"m 507 -19 b 922 343 767 -19 922 135 b 594 671 922 540 788 671 b 281 458 447 671 325 597 l 278 458 l 293 571 l 293 579 b 418 763 293 671 340 736 b 842 842 553 810 735 794 l 842 1029 b 350 921 707 974 496 964 b 85 540 175 867 85 719 l 85 358 b 507 -19 85 119 258 -19 z m 514 151 b 310 338 385 151 310 226 b 518 524 310 451 390 524 b 714 340 644 524 714 453 b 514 151 714 226 642 151 z "},"в":{"ha":904,"x_min":0,"x_max":0,"o":"m 101 0 l 551 0 b 839 193 744 0 839 65 b 638 371 839 303 767 363 l 638 372 b 817 543 756 388 817 447 b 551 722 817 658 724 722 l 101 722 z m 506 140 l 311 140 l 311 304 l 506 304 b 625 224 585 304 625 282 b 506 140 625 167 585 140 z m 499 419 l 311 419 l 311 582 l 500 582 b 607 503 572 582 607 556 b 499 419 607 449 567 419 z "},"г":{"ha":733,"x_min":0,"x_max":0,"o":"m 101 0 l 315 0 l 315 542 l 683 542 l 683 722 l 101 722 z "},"ѓ":{"ha":733,"x_min":0,"x_max":0,"o":"m 101 0 l 315 0 l 315 542 l 683 542 l 683 722 l 101 722 z m 308 818 l 485 818 l 682 1046 l 460 1046 z "},"ґ":{"ha":733,"x_min":0,"x_max":0,"o":"m 101 0 l 315 0 l 315 542 l 683 542 l 683 906 l 469 906 l 469 722 l 101 722 z "},"д":{"ha":1008,"x_min":0,"x_max":0,"o":"m 19 -183 l 233 -183 l 233 0 l 767 0 l 767 -183 l 981 -183 l 981 186 l 868 186 l 868 722 l 168 722 l 168 418 b 121 186 168 315 151 244 l 19 186 z m 332 178 b 368 378 354 229 368 293 l 368 551 l 661 551 l 661 178 z "},"е":{"ha":926,"x_min":0,"x_max":0,"o":"m 507 -19 b 817 36 628 -19 719 0 l 817 208 b 529 153 722 174 624 153 b 294 281 400 153 324 199 l 869 358 b 472 742 865 597 725 742 b 63 363 222 742 63 592 b 507 -19 63 133 225 -19 z m 281 368 b 481 569 281 497 349 569 b 664 422 593 569 653 518 z "},"ѐ":{"ha":926,"x_min":0,"x_max":0,"o":"m 507 -19 b 817 36 628 -19 719 0 l 817 208 b 529 153 722 174 624 153 b 294 281 400 153 324 199 l 869 358 b 472 742 865 597 725 742 b 63 363 222 742 63 592 b 507 -19 63 133 225 -19 z m 422 818 l 599 818 l 447 1046 l 225 1046 z m 281 368 b 481 569 281 497 349 569 b 664 422 593 569 653 518 z "},"ё":{"ha":926,"x_min":0,"x_max":0,"o":"m 507 -19 b 817 36 628 -19 719 0 l 817 208 b 529 153 722 174 624 153 b 294 281 400 153 324 199 l 869 358 b 472 742 865 597 725 742 b 63 363 222 742 63 592 b 507 -19 63 133 225 -19 z m 644 831 b 767 943 713 831 767 878 b 644 1056 767 1010 713 1056 b 525 943 578 1056 525 1010 b 644 831 525 878 578 831 z m 292 831 b 413 943 358 831 413 878 b 292 1056 413 1010 358 1056 b 171 943 224 1056 171 1010 b 292 831 171 878 224 831 z m 281 368 b 481 569 281 497 349 569 b 664 422 593 569 653 518 z "},"ж":{"ha":1338,"x_min":0,"x_max":0,"o":"m 1017 153 l 1068 0 l 1310 0 l 1235 192 b 1053 350 1201 281 1151 336 l 972 360 l 972 363 b 1249 722 1158 397 1239 532 l 1026 722 b 829 428 1018 550 956 428 l 774 428 l 774 722 l 564 722 l 564 428 l 508 428 b 310 722 381 428 318 550 l 89 722 b 364 363 97 532 179 397 l 364 360 l 285 350 b 101 192 186 336 135 281 l 28 0 l 269 0 l 321 153 b 503 271 350 239 414 271 l 564 271 l 564 0 l 774 0 l 774 271 l 833 271 b 1017 153 924 271 988 239 z "},"з":{"ha":800,"x_min":0,"x_max":0,"o":"m 390 -19 b 735 197 594 -19 735 60 b 539 374 735 300 661 361 l 539 375 b 724 547 638 393 724 442 b 404 742 724 663 617 742 b 83 699 299 742 181 722 l 83 532 b 378 585 186 565 294 585 b 511 513 472 585 511 560 b 374 428 511 457 461 428 l 164 428 l 164 299 l 376 299 b 518 218 476 299 518 271 b 378 136 518 167 465 136 b 71 190 293 136 183 151 l 71 24 b 390 -19 178 -7 278 -19 z "},"и":{"ha":992,"x_min":0,"x_max":0,"o":"m 101 0 l 315 0 l 682 460 l 685 460 l 676 278 l 676 0 l 890 0 l 890 722 l 676 722 l 310 263 l 307 263 l 315 444 l 315 722 l 101 722 z "},"й":{"ha":992,"x_min":0,"x_max":0,"o":"m 101 0 l 315 0 l 682 460 l 685 460 l 676 278 l 676 0 l 890 0 l 890 722 l 676 722 l 310 263 l 307 263 l 315 444 l 315 722 l 101 722 z m 515 804 b 757 857 603 804 692 825 l 757 1010 b 515 951 672 968 596 951 b 272 1010 433 951 357 968 l 272 857 b 515 804 338 825 426 804 z "},"ѝ":{"ha":992,"x_min":0,"x_max":0,"o":"m 101 0 l 315 0 l 682 460 l 685 460 l 676 278 l 676 0 l 890 0 l 890 722 l 676 722 l 310 263 l 307 263 l 315 444 l 315 722 l 101 722 z m 465 818 l 642 818 l 490 1046 l 268 1046 z "},"к":{"ha":911,"x_min":0,"x_max":0,"o":"m 590 153 l 642 0 l 883 0 l 808 192 b 626 350 776 281 725 336 l 547 360 l 547 363 b 822 722 732 397 814 532 l 601 722 b 403 428 592 550 529 428 l 315 428 l 315 722 l 101 722 l 101 0 l 315 0 l 315 271 l 407 271 b 590 153 497 271 561 239 z "},"ќ":{"ha":911,"x_min":0,"x_max":0,"o":"m 590 153 l 642 0 l 883 0 l 808 192 b 626 350 776 281 725 336 l 547 360 l 547 363 b 822 722 732 397 814 532 l 601 722 b 403 428 592 550 529 428 l 315 428 l 315 722 l 101 722 l 101 0 l 315 0 l 315 271 l 407 271 b 590 153 497 271 561 239 z m 368 818 l 544 818 l 742 1046 l 519 1046 z "},"л":{"ha":974,"x_min":0,"x_max":0,"o":"m 140 -19 b 381 332 290 -19 381 68 l 381 542 l 657 542 l 657 0 l 871 0 l 871 722 l 181 722 l 181 386 b 86 169 181 221 146 169 b 19 178 63 169 40 174 l 19 -4 b 140 -19 44 -11 88 -19 z "},"м":{"ha":1188,"x_min":0,"x_max":0,"o":"m 590 -19 l 597 -19 l 883 447 l 886 447 l 874 257 l 874 0 l 1083 0 l 1085 722 l 853 722 l 593 281 l 333 722 l 101 722 l 103 0 l 313 0 l 313 257 l 301 447 l 304 447 z "},"н":{"ha":974,"x_min":0,"x_max":0,"o":"m 658 0 l 872 0 l 872 722 l 658 722 l 658 439 l 315 439 l 315 722 l 101 722 l 101 0 l 315 0 l 315 260 l 658 260 z "},"о":{"ha":986,"x_min":0,"x_max":0,"o":"m 493 -19 b 922 360 744 -19 922 136 b 493 742 922 585 744 742 b 63 360 240 742 63 585 b 493 -19 63 136 240 -19 z m 493 160 b 281 361 363 160 281 243 b 493 561 281 479 363 561 b 706 361 624 561 706 479 b 493 160 706 243 624 160 z "},"п":{"ha":969,"x_min":0,"x_max":0,"o":"m 654 0 l 868 0 l 868 722 l 101 722 l 101 0 l 315 0 l 315 542 l 654 542 z "},"р":{"ha":1013,"x_min":0,"x_max":0,"o":"m 101 -278 l 315 -278 l 315 65 b 567 -19 392 8 472 -19 b 950 367 794 -19 950 135 b 608 742 950 592 811 742 b 294 503 453 742 336 654 l 292 503 l 315 722 l 101 722 z m 524 160 b 315 361 393 160 315 235 b 524 561 315 486 393 561 b 732 361 654 561 732 486 b 524 160 732 235 654 160 z "},"с":{"ha":819,"x_min":0,"x_max":0,"o":"m 497 -19 b 746 14 588 -19 683 -7 l 746 199 b 510 167 676 179 590 167 b 281 360 361 167 281 242 b 510 554 281 483 360 554 b 742 525 583 554 664 544 l 742 710 b 508 742 668 731 593 742 b 63 360 236 742 63 586 b 497 -19 63 139 238 -19 z "},"т":{"ha":829,"x_min":0,"x_max":0,"o":"m 307 0 l 521 0 l 521 543 l 779 543 l 779 722 l 49 722 l 49 543 l 307 543 z "},"у":{"ha":896,"x_min":0,"x_max":0,"o":"m 282 -297 b 589 3 460 -297 508 -203 l 874 722 l 656 722 l 478 218 l 246 722 l 24 722 l 382 3 l 369 -36 b 258 -124 353 -96 318 -124 b 81 -82 200 -124 150 -111 l 81 -262 b 282 -297 157 -286 211 -297 z "},"ў":{"ha":896,"x_min":0,"x_max":0,"o":"m 282 -297 b 589 3 460 -297 508 -203 l 874 722 l 656 722 l 478 218 l 246 722 l 24 722 l 382 3 l 369 -36 b 258 -124 353 -96 318 -124 b 81 -82 200 -124 150 -111 l 81 -262 b 282 -297 157 -286 211 -297 z m 456 804 b 697 857 543 804 632 825 l 697 1010 b 456 951 613 968 536 951 b 213 1010 374 951 297 968 l 213 857 b 456 804 278 825 367 804 z "},"ф":{"ha":1264,"x_min":0,"x_max":0,"o":"m 492 -19 l 525 -19 l 525 -278 l 739 -278 l 739 -19 l 772 -19 b 1201 360 1026 -19 1201 136 b 772 742 1201 585 1026 742 l 739 742 l 739 1008 l 525 972 l 525 742 l 492 742 b 63 360 238 742 63 585 b 492 -19 63 136 238 -19 z m 274 361 b 482 564 274 489 351 564 l 539 564 l 539 158 l 482 158 b 274 361 351 158 274 233 z m 725 158 l 725 564 l 782 564 b 990 361 913 564 990 489 b 782 158 990 233 913 158 z "},"х":{"ha":879,"x_min":0,"x_max":0,"o":"m 619 0 l 863 0 l 585 374 l 850 722 l 615 722 l 442 485 l 267 722 l 28 722 l 294 369 l 17 0 l 254 0 l 436 257 z "},"ч":{"ha":924,"x_min":0,"x_max":0,"o":"m 608 224 l 608 0 l 822 0 l 822 722 l 608 722 l 608 397 b 443 365 560 379 503 365 b 301 493 332 365 301 411 l 301 722 l 88 722 l 88 467 b 393 185 88 281 186 185 b 608 224 461 185 550 203 z "},"ц":{"ha":997,"x_min":0,"x_max":0,"o":"m 756 -183 l 969 -183 l 969 186 l 857 186 l 857 722 l 643 722 l 643 186 l 315 186 l 315 722 l 101 722 l 101 0 l 756 0 z "},"ш":{"ha":1400,"x_min":0,"x_max":0,"o":"m 101 0 l 1299 0 l 1299 722 l 1085 722 l 1085 186 l 807 186 l 807 722 l 593 722 l 593 186 l 315 186 l 315 722 l 101 722 z "},"щ":{"ha":1438,"x_min":0,"x_max":0,"o":"m 1196 -183 l 1410 -183 l 1410 186 l 1299 186 l 1299 722 l 1085 722 l 1085 186 l 807 186 l 807 722 l 593 722 l 593 186 l 315 186 l 315 722 l 101 722 l 101 0 l 1196 0 z "},"џ":{"ha":960,"x_min":0,"x_max":0,"o":"m 374 -183 l 588 -183 l 588 0 l 857 0 l 857 722 l 643 722 l 643 186 l 315 186 l 315 722 l 101 722 l 101 0 l 374 0 z "},"ь":{"ha":874,"x_min":0,"x_max":0,"o":"m 101 0 l 471 0 b 817 260 715 0 817 81 b 471 518 817 440 711 518 l 311 518 l 311 722 l 101 722 z m 446 153 l 311 153 l 311 367 l 446 367 b 604 260 563 367 604 338 b 446 153 604 183 563 153 z "},"ы":{"ha":1260,"x_min":0,"x_max":0,"o":"m 101 0 l 471 0 b 817 260 715 0 817 81 b 471 518 817 440 711 518 l 311 518 l 311 722 l 101 722 z m 446 153 l 311 153 l 311 367 l 446 367 b 604 260 563 367 604 338 b 446 153 604 183 563 153 z m 944 0 l 1158 0 l 1158 722 l 944 722 z "},"ъ":{"ha":992,"x_min":0,"x_max":0,"o":"m 219 0 l 588 0 b 935 260 832 0 935 81 b 589 518 935 440 829 518 l 429 518 l 429 722 l 42 722 l 42 542 l 219 542 z m 564 153 l 429 153 l 429 367 l 564 367 b 721 260 681 367 721 338 b 564 153 721 183 681 153 z "},"љ":{"ha":1433,"x_min":0,"x_max":0,"o":"m 140 -19 b 381 332 290 -19 381 68 l 381 542 l 657 542 l 657 0 l 1031 0 b 1378 260 1275 0 1378 81 b 1031 518 1378 440 1271 518 l 871 518 l 871 722 l 181 722 l 181 386 b 86 169 181 221 146 169 b 19 178 63 169 40 174 l 19 -4 b 140 -19 44 -11 88 -19 z m 1006 153 l 871 153 l 871 367 l 1007 367 b 1164 260 1124 367 1164 338 b 1006 153 1164 183 1124 153 z "},"њ":{"ha":1431,"x_min":0,"x_max":0,"o":"m 101 0 l 315 0 l 315 310 l 658 310 l 658 0 l 1036 0 b 1374 250 1271 0 1374 81 b 1036 489 1374 413 1267 489 l 868 489 l 868 722 l 658 722 l 658 489 l 315 489 l 315 722 l 101 722 z m 1013 153 l 868 153 l 868 339 l 1013 339 b 1160 250 1119 339 1160 308 b 1013 153 1160 183 1119 153 z "},"ѕ":{"ha":793,"x_min":0,"x_max":0,"o":"m 401 -19 b 744 196 621 -19 744 57 b 439 429 744 318 653 386 b 276 521 321 456 276 481 b 401 582 276 563 318 582 b 694 524 471 582 561 565 l 694 697 b 379 742 551 731 468 742 b 64 535 172 742 64 669 b 364 299 64 407 153 343 b 532 200 485 271 532 243 b 389 140 532 160 486 140 b 75 206 286 140 176 164 l 75 38 b 401 -19 199 -3 297 -19 z "},"є":{"ha":818,"x_min":0,"x_max":0,"o":"m 497 -19 b 746 14 588 -19 683 -7 l 746 181 b 515 147 676 161 603 147 b 285 307 385 147 306 206 l 661 307 l 661 421 l 286 421 b 517 574 308 521 386 574 b 742 543 596 574 663 561 l 742 710 b 508 742 668 731 593 742 b 63 360 236 742 63 586 b 497 -19 63 139 238 -19 z "},"э":{"ha":818,"x_min":0,"x_max":0,"o":"m 321 -19 b 756 360 581 -19 756 139 b 310 742 756 586 582 742 b 76 710 225 742 150 731 l 76 543 b 301 574 156 561 222 574 b 532 421 432 574 510 521 l 157 421 l 157 307 l 533 307 b 303 147 513 206 433 147 b 72 181 215 147 142 161 l 72 14 b 321 -19 135 -7 231 -19 z "},"і":{"ha":417,"x_min":0,"x_max":0,"o":"m 101 0 l 315 0 l 315 722 l 101 722 z m 208 792 b 340 899 285 792 340 835 b 208 1004 340 961 285 1004 b 78 899 132 1004 78 961 b 208 792 78 835 132 792 z "},"ї":{"ha":417,"x_min":0,"x_max":0,"o":"m 101 0 l 315 0 l 315 722 l 101 722 z m 342 831 b 453 943 404 831 453 878 b 342 1056 453 1010 404 1056 b 231 943 278 1056 231 1010 b 342 831 231 878 278 831 z m 75 831 b 186 943 138 831 186 878 b 75 1056 186 1010 138 1056 b -36 943 13 1056 -36 1010 b 75 831 -36 878 13 831 z "},"ј":{"ha":417,"x_min":0,"x_max":0,"o":"m 72 -297 b 315 14 260 -297 315 -158 l 315 722 l 101 722 l 101 14 b -1 -132 101 -90 64 -132 b -58 -125 -25 -132 -40 -129 l -58 -282 b 72 -297 -21 -292 19 -297 z m 208 792 b 340 899 285 792 340 835 b 208 1004 340 961 285 1004 b 78 899 132 1004 78 961 b 208 792 78 835 132 792 z "},"ћ":{"ha":979,"x_min":0,"x_max":0,"o":"m 101 0 l 315 0 l 315 371 b 497 561 315 486 388 561 b 668 375 604 561 668 492 l 668 0 l 882 0 l 882 414 b 593 742 882 621 776 742 b 294 503 442 742 335 657 l 292 503 l 315 722 l 315 810 l 599 810 l 599 917 l 315 917 l 315 1008 l 101 972 l 101 917 l 26 917 l 26 810 l 101 810 z "},"ю":{"ha":1329,"x_min":0,"x_max":0,"o":"m 846 -19 b 1267 360 1093 -19 1267 136 b 846 742 1267 585 1093 742 b 433 431 629 742 467 617 l 315 431 l 315 722 l 101 722 l 101 0 l 315 0 l 315 268 l 439 268 b 846 -19 479 94 638 -19 z m 846 160 b 642 361 719 160 642 236 b 846 561 642 486 719 561 b 1049 361 972 561 1049 486 b 846 160 1049 236 972 160 z "},"я":{"ha":886,"x_min":0,"x_max":0,"o":"m 107 178 l 31 0 l 256 0 l 314 140 b 488 244 344 217 388 244 l 569 244 l 569 0 l 783 0 l 783 722 l 410 722 b 74 510 176 722 74 646 b 332 307 74 385 161 315 l 332 304 l 267 296 b 107 178 186 286 143 263 z m 457 367 b 278 472 332 367 278 397 b 440 568 278 544 325 568 l 569 568 l 569 367 z "},"ђ":{"ha":979,"x_min":0,"x_max":0,"o":"m 639 -297 b 882 14 826 -297 882 -158 l 882 414 b 593 742 882 621 775 742 b 294 503 442 742 335 657 l 292 503 l 315 722 l 315 810 l 599 810 l 599 917 l 315 917 l 315 1008 l 101 972 l 101 917 l 26 917 l 26 810 l 101 810 l 101 0 l 315 0 l 315 371 b 497 561 315 486 388 561 b 668 375 604 561 668 492 l 668 14 b 565 -132 668 -90 631 -132 b 508 -125 542 -132 526 -129 l 508 -282 b 639 -297 544 -292 586 -297 z "},"ӕ":{"ha":1454,"x_min":0,"x_max":0,"o":"m 311 -19 b 640 208 471 -19 585 69 b 1035 -19 689 72 817 -19 b 1346 36 1156 -19 1247 0 l 1346 208 b 1058 153 1250 174 1153 153 b 824 282 929 153 853 199 l 1397 358 b 1010 742 1394 597 1254 742 b 722 625 885 742 786 706 b 450 742 667 706 574 742 b 113 681 349 742 236 721 l 113 497 b 406 569 218 546 317 569 b 596 425 529 569 594 519 l 353 425 b 61 200 167 425 61 344 b 311 -19 61 63 156 -19 z m 388 147 b 269 240 311 147 269 179 b 394 338 269 304 313 338 l 596 338 l 596 313 b 388 147 596 221 500 147 z m 1192 422 l 810 368 b 1008 569 810 500 878 569 b 1192 422 1121 569 1182 518 z "},"⁄":{"ha":382,"x_min":0,"x_max":0,"o":"m -82 -19 l 97 -19 l 474 992 l 294 992 z "},"½":{"ha":1385,"x_min":0,"x_max":0,"o":"m 193 335 l 368 335 l 368 985 l 363 985 l 21 832 l 21 672 l 193 751 z m 360 -19 l 539 -19 l 915 992 l 736 992 z m 847 0 l 1350 0 l 1350 147 l 1139 147 l 1221 247 b 1326 485 1289 331 1326 403 b 1114 650 1326 588 1250 650 b 868 608 1024 650 942 633 l 868 460 b 1067 508 953 493 1010 508 b 1149 446 1121 508 1149 486 b 1068 282 1149 397 1125 353 l 847 6 z "},"⅓":{"ha":1392,"x_min":0,"x_max":0,"o":"m 193 335 l 368 335 l 368 985 l 363 985 l 21 832 l 21 672 l 193 751 z m 360 -19 l 539 -19 l 915 992 l 736 992 z m 1093 -12 b 1357 196 1250 -12 1357 63 b 1153 374 1357 322 1274 382 l 1347 633 l 1347 638 l 872 638 l 872 490 l 1075 490 l 931 282 b 1058 300 972 293 1014 300 b 1176 217 1139 300 1176 275 b 1065 126 1176 154 1138 126 b 863 174 996 126 939 142 l 863 26 b 1093 -12 938 0 999 -12 z "},"⅔":{"ha":1511,"x_min":0,"x_max":0,"o":"m 24 335 l 526 335 l 526 482 l 315 482 l 397 582 b 503 819 465 665 503 738 b 290 985 503 922 426 985 b 44 943 200 985 118 968 l 44 794 b 243 843 129 828 186 843 b 325 781 297 843 325 821 b 244 617 325 732 301 688 l 24 340 z m 479 -19 l 658 -19 l 1035 992 l 856 992 z m 1213 -12 b 1476 196 1369 -12 1476 63 b 1272 374 1476 322 1393 382 l 1467 633 l 1467 638 l 992 638 l 992 490 l 1194 490 l 1050 282 b 1178 300 1092 293 1133 300 b 1296 217 1258 300 1296 275 b 1185 126 1296 154 1257 126 b 982 174 1115 126 1058 142 l 982 26 b 1213 -12 1057 0 1118 -12 z "},"¼":{"ha":1514,"x_min":0,"x_max":0,"o":"m 193 335 l 368 335 l 368 985 l 363 985 l 21 832 l 21 672 l 193 751 z m 360 -19 l 539 -19 l 915 992 l 736 992 z m 1225 0 l 1392 0 l 1392 115 l 1483 115 l 1483 258 l 1392 258 l 1392 401 l 1244 401 l 1235 253 l 1082 253 l 1282 638 l 1104 638 l 836 119 l 836 115 l 1225 115 z "},"¾":{"ha":1640,"x_min":0,"x_max":0,"o":"m 269 322 b 533 531 426 322 533 397 b 329 708 533 657 450 717 l 524 968 l 524 972 l 49 972 l 49 825 l 251 825 l 107 617 b 235 635 149 628 190 635 b 353 551 315 635 353 610 b 242 461 353 489 314 461 b 39 508 172 461 115 476 l 39 361 b 269 322 114 335 175 322 z m 486 -19 l 665 -19 l 1042 992 l 863 992 z m 1351 0 l 1518 0 l 1518 115 l 1610 115 l 1610 258 l 1518 258 l 1518 401 l 1371 401 l 1361 253 l 1208 253 l 1408 638 l 1231 638 l 963 119 l 963 115 l 1351 115 z "},"⅕":{"ha":1390,"x_min":0,"x_max":0,"o":"m 193 335 l 368 335 l 368 985 l 363 985 l 21 832 l 21 672 l 193 751 z m 360 -19 l 539 -19 l 915 992 l 736 992 z m 1096 -12 b 1356 204 1264 -12 1356 57 b 1164 396 1356 329 1276 396 b 1029 368 1107 396 1063 383 l 1042 503 l 1321 503 l 1321 638 l 913 638 l 871 274 b 1054 301 922 288 988 301 b 1176 214 1135 301 1176 276 b 1064 128 1176 147 1136 128 b 863 174 993 128 932 143 l 863 26 b 1096 -12 926 4 1011 -12 z "},"⅖":{"ha":1511,"x_min":0,"x_max":0,"o":"m 24 335 l 526 335 l 526 482 l 315 482 l 397 582 b 503 819 465 665 503 738 b 290 985 503 922 426 985 b 44 943 200 985 118 968 l 44 794 b 243 843 129 828 186 843 b 325 781 297 843 325 821 b 244 617 325 732 301 688 l 24 340 z m 479 -19 l 658 -19 l 1035 992 l 856 992 z m 1215 -12 b 1475 204 1383 -12 1475 57 b 1283 396 1475 329 1396 396 b 1149 368 1226 396 1182 383 l 1161 503 l 1440 503 l 1440 638 l 1032 638 l 990 274 b 1174 301 1042 288 1107 301 b 1296 214 1254 301 1296 276 b 1183 128 1296 147 1256 128 b 982 174 1113 128 1051 143 l 982 26 b 1215 -12 1046 4 1131 -12 z "},"⅗":{"ha":1517,"x_min":0,"x_max":0,"o":"m 269 322 b 533 531 426 322 533 397 b 329 708 533 657 450 717 l 524 968 l 524 972 l 49 972 l 49 825 l 251 825 l 107 617 b 235 635 149 628 190 635 b 353 551 315 635 353 610 b 242 461 353 489 314 461 b 39 508 172 461 115 476 l 39 361 b 269 322 114 335 175 322 z m 486 -19 l 665 -19 l 1042 992 l 863 992 z m 1222 -12 b 1482 204 1390 -12 1482 57 b 1290 396 1482 329 1403 396 b 1156 368 1233 396 1189 383 l 1168 503 l 1447 503 l 1447 638 l 1039 638 l 997 274 b 1181 301 1049 288 1114 301 b 1303 214 1261 301 1303 276 b 1190 128 1303 147 1263 128 b 989 174 1119 128 1058 143 l 989 26 b 1222 -12 1053 4 1138 -12 z "},"⅘":{"ha":1640,"x_min":0,"x_max":0,"o":"m 401 335 l 568 335 l 568 450 l 660 450 l 660 593 l 568 593 l 568 736 l 421 736 l 411 588 l 258 588 l 458 972 l 281 972 l 13 454 l 13 450 l 401 450 z m 608 -19 l 788 -19 l 1164 992 l 985 992 z m 1344 -12 b 1604 204 1513 -12 1604 57 b 1413 396 1604 329 1525 396 b 1278 368 1356 396 1311 383 l 1290 503 l 1569 503 l 1569 638 l 1161 638 l 1119 274 b 1303 301 1171 288 1236 301 b 1425 214 1383 301 1425 276 b 1313 128 1425 147 1385 128 b 1111 174 1242 128 1181 143 l 1111 26 b 1344 -12 1175 4 1260 -12 z "},"⅙":{"ha":1479,"x_min":0,"x_max":0,"o":"m 193 335 l 368 335 l 368 985 l 363 985 l 21 832 l 21 672 l 193 751 z m 360 -19 l 539 -19 l 915 992 l 736 992 z m 1153 -12 b 1440 221 1328 -12 1440 74 b 1226 438 1440 353 1354 438 b 1108 406 1179 438 1143 426 l 1292 638 l 1088 638 l 950 449 b 863 221 896 376 863 307 b 1153 -12 863 72 971 -12 z m 1151 124 b 1043 219 1085 124 1043 156 b 1151 314 1043 282 1085 314 b 1260 219 1218 314 1260 283 b 1151 124 1260 156 1218 124 z "},"⅚":{"ha":1604,"x_min":0,"x_max":0,"o":"m 272 322 b 532 539 440 322 532 392 b 340 731 532 664 453 731 b 206 703 283 731 239 718 l 218 838 l 497 838 l 497 972 l 89 972 l 47 608 b 231 636 99 622 164 636 b 353 549 311 636 353 611 b 240 463 353 482 313 463 b 39 508 169 463 108 478 l 39 361 b 272 322 103 339 188 322 z m 486 -19 l 665 -19 l 1042 992 l 863 992 z m 1278 -12 b 1565 221 1453 -12 1565 74 b 1351 438 1565 353 1479 438 b 1233 406 1304 438 1268 426 l 1417 638 l 1213 638 l 1075 449 b 988 221 1021 376 988 307 b 1278 -12 988 72 1096 -12 z m 1276 124 b 1168 219 1210 124 1168 156 b 1276 314 1168 282 1210 314 b 1385 219 1343 314 1385 283 b 1276 124 1385 156 1343 124 z "},"⅐":{"ha":1389,"x_min":0,"x_max":0,"o":"m 193 335 l 368 335 l 368 985 l 363 985 l 21 832 l 21 672 l 193 751 z m 360 -19 l 539 -19 l 915 992 l 736 992 z m 944 0 l 1124 0 l 1378 633 l 1378 638 l 857 638 l 857 490 l 1143 490 z "},"⅛":{"ha":1453,"x_min":0,"x_max":0,"o":"m 193 335 l 368 335 l 368 985 l 363 985 l 21 832 l 21 672 l 193 751 z m 360 -19 l 539 -19 l 915 992 l 736 992 z m 1139 -12 b 1418 175 1331 -12 1418 58 b 1293 339 1418 247 1364 313 b 1397 474 1354 361 1397 408 b 1139 651 1397 583 1310 651 b 879 474 967 651 879 583 b 983 339 879 407 922 361 b 858 175 911 311 858 246 b 1139 -12 858 58 946 -12 z m 1139 115 b 1029 192 1060 115 1029 143 b 1139 274 1029 238 1063 274 b 1247 192 1215 274 1247 238 b 1139 115 1247 143 1218 115 z m 1139 388 b 1044 460 1072 388 1044 417 b 1139 531 1044 501 1072 531 b 1232 460 1204 531 1232 501 b 1139 388 1232 417 1206 388 z "},"⅜":{"ha":1579,"x_min":0,"x_max":0,"o":"m 269 322 b 533 531 426 322 533 397 b 329 708 533 657 450 717 l 524 968 l 524 972 l 49 972 l 49 825 l 251 825 l 107 617 b 235 635 149 628 190 635 b 353 551 315 635 353 610 b 242 461 353 489 314 461 b 39 508 172 461 115 476 l 39 361 b 269 322 114 335 175 322 z m 486 -19 l 665 -19 l 1042 992 l 863 992 z m 1265 -12 b 1544 175 1457 -12 1544 58 b 1419 339 1544 247 1490 313 b 1524 474 1481 361 1524 408 b 1265 651 1524 583 1436 651 b 1006 474 1093 651 1006 583 b 1110 339 1006 407 1049 361 b 985 175 1038 311 985 246 b 1265 -12 985 58 1072 -12 z m 1265 115 b 1156 192 1186 115 1156 143 b 1265 274 1156 238 1189 274 b 1374 192 1342 274 1374 238 b 1265 115 1374 143 1344 115 z m 1265 388 b 1171 460 1199 388 1171 417 b 1265 531 1171 501 1199 531 b 1358 460 1331 531 1358 501 b 1265 388 1358 417 1332 388 z "},"⅝":{"ha":1579,"x_min":0,"x_max":0,"o":"m 272 322 b 532 539 440 322 532 392 b 340 731 532 664 453 731 b 206 703 283 731 239 718 l 218 838 l 497 838 l 497 972 l 89 972 l 47 608 b 231 636 99 622 164 636 b 353 549 311 636 353 611 b 240 463 353 482 313 463 b 39 508 169 463 108 478 l 39 361 b 272 322 103 339 188 322 z m 486 -19 l 665 -19 l 1042 992 l 863 992 z m 1264 -12 b 1543 175 1456 -12 1543 58 b 1418 339 1543 247 1489 313 b 1522 474 1479 361 1522 408 b 1264 651 1522 583 1435 651 b 1004 474 1092 651 1004 583 b 1108 339 1004 407 1047 361 b 983 175 1036 311 983 246 b 1264 -12 983 58 1071 -12 z m 1264 115 b 1154 192 1185 115 1154 143 b 1264 274 1154 238 1188 274 b 1372 192 1340 274 1372 238 b 1264 115 1372 143 1343 115 z m 1264 388 b 1169 460 1197 388 1169 417 b 1264 531 1169 501 1197 531 b 1357 460 1329 531 1357 501 b 1264 388 1357 417 1331 388 z "},"⅞":{"ha":1576,"x_min":0,"x_max":0,"o":"m 121 335 l 300 335 l 554 968 l 554 972 l 33 972 l 33 825 l 319 825 z m 483 -19 l 663 -19 l 1039 992 l 860 992 z m 1263 -12 b 1542 175 1454 -12 1542 58 b 1417 339 1542 247 1488 313 b 1521 474 1478 361 1521 408 b 1263 651 1521 583 1433 651 b 1003 474 1090 651 1003 583 b 1107 339 1003 407 1046 361 b 982 175 1035 311 982 246 b 1263 -12 982 58 1069 -12 z m 1263 115 b 1153 192 1183 115 1153 143 b 1263 274 1153 238 1186 274 b 1371 192 1339 274 1371 238 b 1263 115 1371 143 1342 115 z m 1263 388 b 1168 460 1196 388 1168 417 b 1263 531 1168 501 1196 531 b 1356 460 1328 531 1356 501 b 1263 388 1356 417 1329 388 z "},"⅑":{"ha":1479,"x_min":0,"x_max":0,"o":"m 193 335 l 368 335 l 368 985 l 363 985 l 21 832 l 21 672 l 193 751 z m 360 -19 l 539 -19 l 915 992 l 736 992 z m 1011 0 l 1215 0 l 1354 189 b 1440 418 1407 263 1440 329 b 1150 650 1440 567 1332 650 b 863 418 974 650 863 564 b 1076 200 863 285 949 200 b 1196 233 1121 200 1156 210 z m 1151 324 b 1043 418 1085 324 1043 356 b 1151 514 1043 483 1085 514 b 1260 418 1218 514 1260 483 b 1151 324 1260 356 1218 324 z "},"₀":{"ha":692,"x_min":0,"x_max":0,"o":"m 346 -151 b 643 181 524 -151 643 -28 b 346 513 643 389 524 513 b 49 181 168 513 49 389 b 346 -151 49 -26 168 -151 z m 346 -3 b 224 181 265 -3 224 57 b 346 365 224 304 265 365 b 467 181 426 365 467 304 b 346 -3 467 57 426 -3 z "},"₁":{"ha":442,"x_min":0,"x_max":0,"o":"m 193 -137 l 368 -137 l 368 513 l 363 513 l 21 360 l 21 200 l 193 279 z "},"₂":{"ha":561,"x_min":0,"x_max":0,"o":"m 24 -137 l 526 -137 l 526 10 l 315 10 l 397 110 b 503 347 465 193 503 265 b 290 513 503 450 426 513 b 44 471 200 513 118 496 l 44 322 b 243 371 129 356 186 371 b 325 308 297 371 325 349 b 244 144 325 260 301 215 l 24 -132 z "},"₃":{"ha":568,"x_min":0,"x_max":0,"o":"m 269 -151 b 533 57 426 -151 533 -76 b 329 235 533 183 450 243 l 524 494 l 524 499 l 49 499 l 49 351 l 251 351 l 107 143 b 235 161 149 154 190 161 b 353 78 315 161 353 136 b 242 -12 353 15 314 -12 b 39 35 172 -12 115 3 l 39 -112 b 269 -151 114 -139 175 -151 z "},"₄":{"ha":690,"x_min":0,"x_max":0,"o":"m 401 -137 l 568 -137 l 568 -22 l 660 -22 l 660 121 l 568 121 l 568 264 l 421 264 l 411 115 l 258 115 l 458 500 l 281 500 l 13 -18 l 13 -22 l 401 -22 z "},"₅":{"ha":568,"x_min":0,"x_max":0,"o":"m 272 -151 b 532 65 440 -151 532 -82 b 340 257 532 190 453 257 b 206 229 283 257 239 244 l 218 364 l 497 364 l 497 499 l 89 499 l 47 135 b 231 163 99 149 164 163 b 353 75 311 163 353 138 b 240 -11 353 8 313 -11 b 39 35 169 -11 108 4 l 39 -112 b 272 -151 103 -135 188 -151 z "},"₆":{"ha":656,"x_min":0,"x_max":0,"o":"m 329 -151 b 617 82 504 -151 617 -65 b 403 299 617 214 531 299 b 285 267 356 299 319 288 l 468 499 l 264 499 l 126 310 b 39 82 72 238 39 168 b 329 -151 39 -67 147 -151 z m 328 -15 b 219 81 261 -15 219 17 b 328 175 219 143 261 175 b 436 81 394 175 436 144 b 328 -15 436 17 394 -15 z "},"₇":{"ha":565,"x_min":0,"x_max":0,"o":"m 121 -137 l 300 -137 l 554 496 l 554 500 l 33 500 l 33 353 l 319 353 z "},"₈":{"ha":629,"x_min":0,"x_max":0,"o":"m 315 -150 b 594 38 507 -150 594 -79 b 469 201 594 110 540 175 b 574 336 531 224 574 271 b 315 514 574 446 486 514 b 56 336 143 514 56 446 b 160 201 56 269 99 224 b 35 38 88 174 35 108 b 315 -150 35 -79 122 -150 z m 315 -22 b 206 54 236 -22 206 6 b 315 136 206 100 239 136 b 424 54 392 136 424 100 b 315 -22 424 6 394 -22 z m 315 250 b 221 322 249 250 221 279 b 315 393 221 364 249 393 b 408 322 381 393 408 364 b 315 250 408 279 382 250 z "},"₉":{"ha":656,"x_min":0,"x_max":0,"o":"m 188 -137 l 392 -137 l 531 51 b 617 281 583 125 617 192 b 326 513 617 429 508 513 b 39 281 150 513 39 426 b 253 63 39 147 125 63 b 372 96 297 63 332 72 z m 328 186 b 219 281 261 186 219 218 b 328 376 219 346 261 376 b 436 281 394 376 436 346 b 328 186 436 218 394 186 z "},"⁰":{"ha":692,"x_min":0,"x_max":0,"o":"m 346 446 b 643 778 524 446 643 569 b 346 1110 643 986 524 1110 b 49 778 168 1110 49 986 b 346 446 49 571 168 446 z m 346 594 b 224 778 265 594 224 654 b 346 963 224 901 265 963 b 467 778 426 963 467 901 b 346 594 467 654 426 594 z "},"¹":{"ha":442,"x_min":0,"x_max":0,"o":"m 193 458 l 368 458 l 368 1108 l 363 1108 l 21 956 l 21 796 l 193 875 z "},"²":{"ha":561,"x_min":0,"x_max":0,"o":"m 24 458 l 526 458 l 526 606 l 315 606 l 397 706 b 503 943 465 789 503 861 b 290 1108 503 1046 426 1108 b 44 1067 200 1108 118 1092 l 44 918 b 243 967 129 951 186 967 b 325 904 297 967 325 944 b 244 740 325 856 301 811 l 24 464 z "},"³":{"ha":568,"x_min":0,"x_max":0,"o":"m 269 446 b 533 654 426 446 533 521 b 329 832 533 781 450 840 l 524 1092 l 524 1096 l 49 1096 l 49 949 l 251 949 l 107 740 b 235 758 149 751 190 758 b 353 675 315 758 353 733 b 242 585 353 613 314 585 b 39 632 172 585 115 600 l 39 485 b 269 446 114 458 175 446 z "},"⁴":{"ha":690,"x_min":0,"x_max":0,"o":"m 401 458 l 568 458 l 568 574 l 660 574 l 660 717 l 568 717 l 568 860 l 421 860 l 411 711 l 258 711 l 458 1096 l 281 1096 l 13 578 l 13 574 l 401 574 z "},"⁵":{"ha":568,"x_min":0,"x_max":0,"o":"m 272 446 b 532 663 440 446 532 515 b 340 854 532 788 453 854 b 206 826 283 854 239 842 l 218 961 l 497 961 l 497 1096 l 89 1096 l 47 732 b 231 760 99 746 164 760 b 353 672 311 760 353 735 b 240 586 353 606 313 586 b 39 632 169 586 108 601 l 39 485 b 272 446 103 463 188 446 z "},"⁶":{"ha":656,"x_min":0,"x_max":0,"o":"m 329 446 b 617 679 504 446 617 532 b 403 896 617 811 531 896 b 285 864 356 896 319 885 l 468 1096 l 264 1096 l 126 907 b 39 679 72 835 39 765 b 329 446 39 531 147 446 z m 328 582 b 219 678 261 582 219 614 b 328 772 219 740 261 772 b 436 678 394 772 436 742 b 328 582 436 614 394 582 z "},"⁷":{"ha":565,"x_min":0,"x_max":0,"o":"m 121 458 l 300 458 l 554 1092 l 554 1096 l 33 1096 l 33 949 l 319 949 z "},"⁸":{"ha":629,"x_min":0,"x_max":0,"o":"m 315 447 b 594 635 507 447 594 518 b 469 799 594 707 540 772 b 574 933 531 821 574 868 b 315 1111 574 1043 486 1111 b 56 933 143 1111 56 1043 b 160 799 56 867 99 821 b 35 635 88 771 35 706 b 315 447 35 518 122 447 z m 315 575 b 206 651 236 575 206 603 b 315 733 206 697 239 733 b 424 651 392 733 424 697 b 315 575 424 603 394 575 z m 315 847 b 221 919 249 847 221 876 b 315 990 221 961 249 990 b 408 919 381 990 408 961 b 315 847 408 876 382 847 z "},"⁹":{"ha":656,"x_min":0,"x_max":0,"o":"m 188 458 l 392 458 l 531 647 b 617 876 583 721 617 788 b 326 1108 617 1025 508 1108 b 39 876 150 1108 39 1022 b 253 658 39 743 125 658 b 372 692 297 658 332 668 z m 328 782 b 219 876 261 782 219 814 b 328 972 219 942 261 972 b 436 876 394 972 436 942 b 328 782 436 814 394 782 z "}," ":{"ha":426,"x_min":0,"x_max":0,"o":""}," ":{"ha":260,"x_min":0,"x_max":0,"o":""},"​":{"ha":833,"x_min":0,"x_max":0,"o":""},".":{"ha":464,"x_min":0,"x_max":0,"o":"m 232 -19 b 372 106 317 -19 372 36 b 232 233 372 176 317 233 b 92 106 147 233 92 176 b 232 -19 92 36 147 -19 z "},",":{"ha":440,"x_min":0,"x_max":0,"o":"m 51 -226 l 217 -226 l 375 221 l 138 221 z "},":":{"ha":464,"x_min":0,"x_max":0,"o":"m 232 496 b 372 618 314 496 372 549 b 232 742 372 689 314 742 b 92 618 149 742 92 689 b 232 496 92 549 149 496 z m 232 -19 b 372 103 314 -19 372 32 b 232 225 372 172 314 225 b 92 103 149 225 92 172 b 232 -19 92 32 149 -19 z "},";":{"ha":440,"x_min":0,"x_max":0,"o":"m 51 -226 l 215 -226 l 374 208 l 135 208 z m 232 493 b 372 617 317 493 372 546 b 232 742 372 688 317 742 b 92 617 147 742 92 688 b 232 493 92 546 147 493 z "},"…":{"ha":1289,"x_min":0,"x_max":0,"o":"m 1057 -19 b 1199 106 1142 -19 1199 36 b 1057 233 1199 176 1142 233 b 917 106 972 233 917 176 b 1057 -19 917 36 972 -19 z m 232 -19 b 372 106 317 -19 372 36 b 232 233 372 176 317 233 b 92 106 147 233 92 176 b 232 -19 92 36 147 -19 z m 644 -19 b 785 106 729 -19 785 36 b 644 233 785 176 729 233 b 504 106 560 233 504 176 b 644 -19 504 36 560 -19 z "},"!":{"ha":503,"x_min":0,"x_max":0,"o":"m 147 299 l 354 299 l 378 972 l 122 972 z m 251 -19 b 388 101 331 -19 388 31 b 251 222 388 172 331 222 b 115 101 172 222 115 172 b 251 -19 115 31 172 -19 z "},"¡":{"ha":503,"x_min":0,"x_max":0,"o":"m 147 417 l 122 -257 l 378 -257 l 354 417 z m 251 735 b 115 614 172 735 115 685 b 251 493 115 543 172 493 b 388 614 331 493 388 543 b 251 735 388 685 331 735 z "},"?":{"ha":794,"x_min":0,"x_max":0,"o":"m 240 349 l 242 299 l 446 299 l 447 344 b 724 757 450 497 724 525 b 397 992 724 910 608 992 b 78 918 282 992 167 960 l 78 725 b 365 814 176 781 279 814 b 493 729 460 814 493 779 b 240 349 493 593 238 533 z m 346 -19 b 483 101 425 -19 483 31 b 346 222 483 172 425 222 b 210 101 268 222 210 172 b 346 -19 210 31 268 -19 z "},"¿":{"ha":775,"x_min":0,"x_max":0,"o":"m 554 374 l 553 424 l 349 424 l 347 378 b 71 -35 344 225 71 197 b 397 -269 71 -187 186 -269 b 717 -196 513 -269 628 -237 l 717 -3 b 429 -92 618 -58 515 -92 b 301 -7 335 -92 301 -57 b 554 374 301 129 557 189 z m 449 742 b 311 621 369 742 311 692 b 449 500 311 550 369 500 b 585 621 526 500 585 550 b 449 742 585 692 526 742 z "},"·":{"ha":485,"x_min":0,"x_max":0,"o":"m 242 313 b 382 438 326 313 382 368 b 242 565 382 508 326 565 b 101 438 157 565 101 508 b 242 313 101 368 157 313 z "},"•":{"ha":782,"x_min":0,"x_max":0,"o":"m 389 179 b 643 410 539 179 643 281 b 389 643 643 539 539 643 b 139 410 242 643 139 539 b 389 179 139 281 242 179 z "},"*":{"ha":643,"x_min":0,"x_max":0,"o":"m 238 475 l 322 622 l 406 475 l 531 565 l 417 692 l 582 726 l 535 872 l 379 803 l 397 972 l 244 972 l 263 803 l 107 872 l 61 726 l 226 692 l 114 565 z "},"#":{"ha":992,"x_min":0,"x_max":0,"o":"m 533 1 l 689 1 l 725 261 l 869 261 l 889 400 l 744 400 l 769 576 l 911 576 l 928 717 l 789 717 l 825 974 l 669 974 l 633 717 l 422 715 l 458 972 l 303 972 l 267 715 l 121 715 l 103 575 l 247 575 l 222 399 l 81 399 l 63 260 l 203 260 l 167 0 l 322 0 l 358 260 l 569 261 z m 378 399 l 403 575 l 614 576 l 589 400 z "},"/":{"ha":649,"x_min":0,"x_max":0,"o":"m 24 0 l 221 0 l 625 972 l 428 972 z "},"\\":{"ha":742,"x_min":0,"x_max":0,"o":"m 671 0 l 267 972 l 69 972 l 474 0 z "},"-":{"ha":686,"x_min":0,"x_max":0,"o":"m 107 311 l 578 311 l 578 475 l 107 475 z "},"­":{"ha":686,"x_min":0,"x_max":0,"o":"m 107 311 l 578 311 l 578 475 l 107 475 z "},"–":{"ha":890,"x_min":0,"x_max":0,"o":"m 107 311 l 782 311 l 782 475 l 107 475 z "},"—":{"ha":1190,"x_min":0,"x_max":0,"o":"m 107 311 l 1083 311 l 1083 475 l 107 475 z "},"_":{"ha":760,"x_min":0,"x_max":0,"o":"m 42 -203 l 717 -203 l 717 -39 l 42 -39 z "},"(":{"ha":521,"x_min":0,"x_max":0,"o":"m 276 -153 l 469 -153 b 263 451 336 40 263 213 b 469 1056 263 690 336 863 l 276 1056 b 78 451 146 869 78 699 b 276 -153 78 204 146 33 z "},")":{"ha":521,"x_min":0,"x_max":0,"o":"m 51 -153 l 244 -153 b 443 451 375 33 443 204 b 244 1056 443 699 375 869 l 51 1056 b 258 451 185 863 258 690 b 51 -153 258 213 185 40 z "},"{":{"ha":672,"x_min":0,"x_max":0,"o":"m 421 -153 l 594 -153 l 594 6 l 511 6 b 424 119 444 6 424 32 l 424 254 b 267 453 424 371 361 433 b 424 651 361 471 424 535 l 424 783 b 511 897 424 871 444 897 l 594 897 l 594 1056 l 421 1056 b 226 846 292 1056 226 992 l 226 661 b 121 526 226 563 194 526 l 69 526 l 69 378 l 121 378 b 226 243 194 378 226 340 l 226 57 b 421 -153 226 -89 292 -153 z "},"}":{"ha":672,"x_min":0,"x_max":0,"o":"m 76 -153 l 251 -153 b 444 57 381 -153 444 -89 l 444 243 b 550 378 444 340 478 378 l 601 378 l 601 526 l 550 526 b 444 661 478 526 444 563 l 444 846 b 251 1056 444 992 381 1056 l 76 1056 l 76 897 l 160 897 b 247 783 228 897 247 871 l 247 651 b 404 453 247 535 310 471 b 247 254 310 433 247 371 l 247 119 b 160 6 247 32 228 6 l 76 6 z "},"[":{"ha":601,"x_min":0,"x_max":0,"o":"m 140 -153 l 524 -153 l 524 6 l 342 6 l 342 897 l 524 897 l 524 1056 l 140 1056 z "},"]":{"ha":601,"x_min":0,"x_max":0,"o":"m 76 -153 l 461 -153 l 461 1056 l 76 1056 l 76 897 l 260 897 l 260 6 l 76 6 z "},"‚":{"ha":440,"x_min":0,"x_max":0,"o":"m 51 -226 l 217 -226 l 375 221 l 138 221 z "},"„":{"ha":758,"x_min":0,"x_max":0,"o":"m 382 -226 l 547 -226 l 693 221 l 468 221 z m 51 -226 l 217 -226 l 363 221 l 138 221 z "},"“":{"ha":758,"x_min":0,"x_max":0,"o":"m 396 639 l 621 639 l 707 1086 l 542 1086 z m 65 639 l 290 639 l 376 1086 l 211 1086 z "},"”":{"ha":735,"x_min":0,"x_max":0,"o":"m 382 639 l 547 639 l 693 1086 l 468 1086 z m 51 639 l 217 639 l 363 1086 l 138 1086 z "},"‘":{"ha":440,"x_min":0,"x_max":0,"o":"m 65 639 l 303 639 l 389 1086 l 224 1086 z "},"’":{"ha":417,"x_min":0,"x_max":0,"o":"m 51 639 l 217 639 l 375 1086 l 138 1086 z "},"«":{"ha":861,"x_min":0,"x_max":0,"o":"m 611 68 l 801 68 l 576 375 l 801 685 l 611 685 l 381 376 z m 285 68 l 476 68 l 247 375 l 476 685 l 285 685 l 51 376 z "},"»":{"ha":861,"x_min":0,"x_max":0,"o":"m 385 68 l 575 68 l 808 376 l 575 685 l 385 685 l 614 375 z m 58 68 l 250 68 l 481 376 l 250 685 l 58 685 l 285 375 z "},"‹":{"ha":532,"x_min":0,"x_max":0,"o":"m 283 68 l 474 68 l 247 375 l 474 685 l 283 685 l 51 376 z "},"›":{"ha":532,"x_min":0,"x_max":0,"o":"m 58 68 l 250 68 l 481 376 l 250 685 l 58 685 l 285 375 z "},"\"":{"ha":654,"x_min":0,"x_max":0,"o":"m 392 525 l 568 525 l 574 972 l 386 972 z m 86 525 l 261 525 l 268 972 l 79 972 z "},"'":{"ha":347,"x_min":0,"x_max":0,"o":"m 86 525 l 261 525 l 268 972 l 79 972 z "},"ƒ":{"ha":917,"x_min":0,"x_max":0,"o":"m 53 -297 b 356 14 235 -297 313 -189 l 458 496 l 754 496 l 794 676 l 496 676 l 503 707 b 649 818 521 790 565 818 b 835 788 703 818 756 811 l 874 969 b 625 1008 790 992 708 1008 b 292 736 454 1008 332 924 l 279 676 l 169 676 l 131 496 l 240 496 l 139 14 b 4 -132 117 -90 69 -132 b -50 -125 -17 -132 -33 -131 l -83 -281 b 53 -297 -53 -290 -4 -297 z "},"@":{"ha":1386,"x_min":0,"x_max":0,"o":"m 679 -217 b 974 -153 790 -217 892 -193 l 974 -19 b 686 -92 893 -64 804 -92 b 214 365 422 -92 214 53 b 713 849 214 660 411 849 b 1188 393 1039 849 1188 642 b 1093 221 1188 267 1150 221 b 1011 360 1038 221 1011 263 l 1011 650 l 842 650 l 863 490 l 860 490 b 646 664 821 619 733 664 b 385 379 494 664 385 551 b 649 97 385 211 488 97 b 883 296 764 97 856 158 l 886 296 b 1089 99 904 156 985 99 b 1324 417 1215 99 1324 197 b 710 968 1324 711 1108 968 b 75 365 326 968 75 713 b 679 -217 75 -54 388 -217 z m 700 243 b 558 381 613 243 558 294 b 700 517 558 465 611 517 b 842 381 790 517 842 465 b 700 243 842 294 789 243 z "},"&":{"ha":1058,"x_min":0,"x_max":0,"o":"m 406 -19 b 726 67 542 -19 642 11 l 789 0 l 1039 0 l 861 188 b 993 496 931 269 976 371 l 797 496 b 739 315 789 425 768 364 l 689 368 b 575 494 644 414 607 456 b 896 772 746 544 896 617 b 590 992 896 893 788 992 b 257 739 368 992 257 883 b 311 560 257 686 274 628 b 32 269 136 503 32 407 b 406 -19 32 86 172 -19 z m 236 283 b 389 442 236 351 281 403 b 544 261 431 386 482 326 l 613 189 b 426 139 557 157 493 139 b 236 283 314 139 236 199 z m 450 731 b 581 843 450 806 504 843 b 703 749 654 843 703 804 b 492 608 703 692 658 653 b 450 731 464 654 450 694 z "},"¶":{"ha":1063,"x_min":0,"x_max":0,"o":"m 475 225 l 475 776 l 639 776 l 639 -181 l 860 -181 l 860 776 l 1007 776 l 1007 972 l 457 972 b 68 600 233 972 68 846 b 475 225 68 356 228 225 z "},"§":{"ha":851,"x_min":0,"x_max":0,"o":"m 431 -119 b 774 97 669 -119 774 -32 b 656 269 774 169 733 225 b 792 449 765 317 792 388 b 488 668 792 554 700 619 b 321 767 367 697 321 728 b 447 832 321 808 365 832 b 739 776 522 832 615 815 l 739 943 b 428 992 596 981 525 992 b 113 778 221 992 113 904 b 218 604 113 708 147 650 b 67 428 94 554 67 490 b 372 206 67 322 158 254 b 563 106 494 176 563 146 b 417 39 563 64 518 39 b 107 99 344 39 249 56 l 107 -68 b 431 -119 260 -107 332 -119 z m 257 461 b 326 553 257 492 275 521 l 390 533 b 601 414 529 496 601 468 b 536 319 601 382 585 349 l 467 339 b 257 461 329 376 257 403 z "},"©":{"ha":1193,"x_min":0,"x_max":0,"o":"m 597 -18 b 1118 486 904 -18 1118 194 b 597 990 1118 778 904 990 b 75 486 290 990 75 778 b 597 -18 75 194 290 -18 z m 597 89 b 190 486 340 89 190 254 b 597 883 190 718 340 883 b 1003 486 853 883 1003 718 b 597 89 1003 254 853 89 z m 629 233 b 785 258 679 233 739 242 l 785 394 b 633 374 735 382 685 374 b 494 489 540 374 494 417 b 628 608 494 560 539 608 b 782 588 679 608 725 600 l 782 725 b 629 747 728 740 683 747 b 331 490 444 747 331 638 b 629 233 331 340 446 233 z "},"®":{"ha":679,"x_min":0,"x_max":0,"o":"m 340 440 b 624 715 507 440 624 557 b 340 992 624 875 507 992 b 57 715 172 992 57 875 b 340 440 57 557 172 440 z m 340 506 b 126 715 210 506 126 592 b 340 925 126 839 210 925 b 553 715 471 925 553 839 b 340 506 553 592 471 506 z m 222 585 l 304 585 l 304 669 l 321 669 b 379 633 357 669 368 660 l 397 585 l 481 585 l 454 654 b 389 699 444 679 426 694 l 389 700 b 467 776 428 703 467 726 b 353 854 467 825 432 854 l 222 854 z m 304 728 l 304 786 l 342 786 b 382 758 369 786 382 778 b 343 728 382 738 369 728 z "},"℗":{"ha":1193,"x_min":0,"x_max":0,"o":"m 597 -18 b 1118 486 904 -18 1118 194 b 597 990 1118 778 904 990 b 75 486 290 990 75 778 b 597 -18 75 194 290 -18 z m 597 89 b 190 486 340 89 190 254 b 597 883 190 718 340 883 b 1003 486 853 883 1003 718 b 597 89 1003 254 853 89 z m 393 214 l 538 214 l 538 350 l 617 350 b 868 546 782 350 868 421 b 617 742 868 676 781 742 l 393 742 z m 538 469 l 538 624 l 618 624 b 719 546 689 624 719 603 b 618 469 719 490 689 469 z "},"™":{"ha":1169,"x_min":0,"x_max":0,"o":"m 815 554 l 819 554 l 963 785 l 964 785 l 956 679 l 956 564 l 1099 564 l 1100 972 l 949 972 l 817 753 l 686 972 l 535 972 l 536 564 l 678 564 l 678 679 l 671 785 l 672 785 z m 183 564 l 329 564 l 329 851 l 468 851 l 468 972 l 44 972 l 44 851 l 183 851 z "},"°":{"ha":485,"x_min":0,"x_max":0,"o":"m 243 726 b 451 928 364 726 451 813 b 243 1129 451 1044 364 1129 b 33 928 121 1129 33 1044 b 243 726 33 813 121 726 z m 243 844 b 158 928 193 844 158 876 b 243 1013 158 978 193 1013 b 326 928 292 1013 326 978 b 243 844 326 876 292 844 z "},"′":{"ha":403,"x_min":0,"x_max":0,"o":"m 57 604 l 207 604 l 367 972 l 154 972 z "},"″":{"ha":708,"x_min":0,"x_max":0,"o":"m 372 604 l 513 604 l 672 972 l 469 972 z m 57 604 l 197 604 l 357 972 l 154 972 z "},"|":{"ha":518,"x_min":0,"x_max":0,"o":"m 167 -264 l 351 -264 l 351 1167 l 167 1167 z "},"¦":{"ha":518,"x_min":0,"x_max":0,"o":"m 167 -264 l 351 -264 l 351 342 l 167 342 z m 167 575 l 351 575 l 351 1167 l 167 1167 z "},"ℓ":{"ha":775,"x_min":0,"x_max":0,"o":"m 444 -19 b 664 14 517 -19 594 -8 l 664 190 b 489 163 599 171 538 163 b 340 301 381 163 343 199 b 713 722 590 404 713 532 b 438 992 713 892 608 992 b 131 657 254 992 131 871 l 131 386 l 25 358 l 25 200 l 135 231 b 444 -19 158 63 271 -19 z m 340 464 l 340 664 b 446 831 340 772 379 831 b 538 715 501 831 538 793 b 340 464 538 611 476 532 z "},"†":{"ha":871,"x_min":0,"x_max":0,"o":"m 343 -162 l 528 -162 l 528 504 l 815 504 l 815 678 l 528 678 l 528 972 l 343 972 l 343 678 l 56 678 l 56 504 l 343 504 z "},"‡":{"ha":863,"x_min":0,"x_max":0,"o":"m 340 -162 l 522 -162 l 522 111 l 793 111 l 793 274 l 522 274 l 522 536 l 793 536 l 793 697 l 522 697 l 522 972 l 340 972 l 340 697 l 69 697 l 69 536 l 340 536 l 340 274 l 69 274 l 69 111 l 340 111 z "},"℮":{"ha":1097,"x_min":0,"x_max":0,"o":"m 547 -14 b 946 182 697 -14 858 56 l 846 185 b 547 65 774 111 661 65 b 288 165 446 65 356 103 l 288 418 l 1011 418 b 1014 464 1014 444 1014 451 b 547 914 1014 703 796 914 b 83 450 294 914 83 704 b 547 -14 83 192 289 -14 z m 288 494 l 288 732 b 547 835 357 796 449 835 b 808 732 646 835 739 794 l 808 494 z "},"№":{"ha":1682,"x_min":0,"x_max":0,"o":"m 122 0 l 347 0 l 347 421 l 340 664 l 343 664 l 819 0 l 1060 0 l 1060 972 l 833 972 l 833 551 l 842 308 l 839 308 l 363 972 l 122 972 z m 1215 353 l 1569 353 l 1569 500 l 1215 500 z m 1392 565 b 1617 781 1522 565 1617 653 b 1392 996 1617 908 1522 996 b 1168 781 1263 996 1168 908 b 1392 565 1168 653 1263 565 z m 1392 708 b 1319 781 1350 708 1319 736 b 1392 854 1319 824 1350 854 b 1465 781 1435 854 1465 824 b 1392 708 1465 736 1435 708 z "},"¢":{"ha":819,"x_min":0,"x_max":0,"o":"m 386 -157 l 579 -157 l 579 -17 b 746 14 642 -11 703 0 l 746 199 b 510 167 676 179 590 167 b 281 360 361 167 281 242 b 510 554 281 483 360 554 b 742 525 583 554 664 544 l 742 710 b 579 739 689 725 636 735 l 579 878 l 386 878 l 386 731 b 63 360 185 690 63 550 b 386 -10 63 172 189 29 z "},"¤":{"ha":844,"x_min":0,"x_max":0,"o":"m 179 76 l 279 174 b 422 136 321 150 371 136 b 567 174 475 136 524 150 l 665 76 l 775 182 l 678 279 b 719 429 706 322 719 374 b 678 579 719 485 706 536 l 775 676 l 665 782 l 567 685 b 422 722 524 708 475 722 b 279 685 371 722 321 708 l 179 782 l 71 676 l 167 579 b 125 429 140 536 125 485 b 167 279 125 374 140 322 l 71 182 z m 422 285 b 278 429 338 285 278 342 b 422 574 278 517 338 574 b 568 429 508 574 568 517 b 422 285 568 342 508 285 z "},"$":{"ha":914,"x_min":0,"x_max":0,"o":"m 354 -214 l 572 -214 l 572 -12 b 851 257 751 13 851 104 b 525 564 851 406 765 492 b 314 708 401 604 314 633 b 456 807 314 771 364 807 b 801 740 558 807 678 785 l 801 936 b 572 983 710 960 639 975 l 572 1185 l 354 1185 l 354 986 b 83 719 178 965 83 875 b 436 410 83 525 239 464 b 621 263 571 367 621 331 b 454 165 621 196 572 165 b 94 244 338 165 193 196 l 94 43 b 354 -15 183 11 265 -7 z "},"€":{"ha":1021,"x_min":0,"x_max":0,"o":"m 676 -19 b 954 25 763 -19 858 -6 l 954 213 b 697 164 860 179 788 164 b 421 318 565 164 469 218 l 747 318 l 747 422 l 392 422 b 388 486 389 443 388 464 b 392 553 388 510 389 532 l 747 553 l 747 657 l 422 657 b 693 808 471 756 565 808 b 946 760 776 808 856 792 l 946 944 b 674 992 840 979 754 992 b 186 657 433 992 250 864 l 38 657 l 38 553 l 165 553 b 161 486 163 531 161 508 b 164 422 161 464 163 443 l 38 422 l 38 318 l 185 318 b 676 -19 249 110 432 -19 z "},"₴":{"ha":1013,"x_min":0,"x_max":0,"o":"m 508 -19 b 881 44 644 -19 768 0 l 881 229 b 533 157 781 182 646 157 b 354 260 404 157 354 192 b 374 325 354 285 360 306 l 947 325 l 947 431 l 54 431 l 54 325 l 149 325 b 122 225 132 297 122 265 b 508 -19 122 79 264 -19 z m 54 544 l 947 544 l 947 650 l 861 650 b 892 754 882 678 892 713 b 532 990 892 897 765 990 b 174 932 424 990 308 971 l 174 751 b 510 814 306 794 417 814 b 661 714 610 814 661 778 b 636 650 661 689 654 668 l 54 650 z "},"₺":{"ha":1011,"x_min":0,"x_max":0,"o":"m 167 0 l 388 0 b 956 481 750 0 956 140 l 738 481 b 388 197 738 275 647 203 l 388 407 l 601 492 l 601 607 l 388 522 l 388 639 l 601 724 l 601 839 l 388 754 l 388 972 l 167 972 l 167 665 l 38 614 l 38 499 l 167 550 l 167 435 l 38 383 l 38 268 l 167 319 z "},"₽":{"ha":1028,"x_min":0,"x_max":0,"o":"m 172 0 l 399 0 l 399 138 l 692 138 l 692 250 l 399 250 l 399 351 l 546 351 b 969 661 836 351 969 460 b 547 972 969 864 836 972 l 172 972 l 172 514 l 26 514 l 26 351 l 172 351 l 172 250 l 25 250 l 25 138 l 172 138 z m 399 514 l 399 811 l 528 811 b 735 661 675 811 735 764 b 528 514 735 560 675 514 z "},"₹":{"ha":982,"x_min":0,"x_max":0,"o":"m 493 175 l 613 0 l 893 0 l 733 232 b 490 375 667 329 624 363 l 490 378 b 767 588 626 389 740 468 l 901 588 l 901 692 l 767 692 b 674 813 754 743 724 789 l 674 815 l 901 815 l 901 972 l 93 972 l 93 815 l 293 815 b 535 692 439 815 514 779 l 93 692 l 93 588 l 535 588 b 283 453 514 504 433 453 l 93 453 l 93 292 l 258 292 b 493 175 389 292 426 274 z "},"£":{"ha":900,"x_min":0,"x_max":0,"o":"m 69 158 l 69 0 l 851 0 l 851 176 l 382 176 b 492 371 458 228 492 296 b 489 407 492 383 490 396 l 740 407 l 740 539 l 426 539 b 343 718 386 596 343 647 b 475 815 343 778 385 815 b 813 750 574 815 689 792 l 813 936 b 458 992 676 975 571 992 b 114 746 231 992 114 900 b 199 539 114 658 157 597 l 74 539 l 74 407 l 268 407 b 272 368 271 394 272 382 b 69 158 272 254 172 192 z "},"¥":{"ha":1028,"x_min":0,"x_max":0,"o":"m 401 0 l 628 0 l 628 167 l 885 167 l 885 271 l 628 271 l 628 371 l 885 371 l 885 475 l 658 475 l 1011 972 l 768 972 l 517 613 l 267 972 l 17 972 l 369 475 l 144 475 l 144 371 l 401 371 l 401 271 l 144 271 l 144 167 l 401 167 z "},"+":{"ha":903,"x_min":0,"x_max":0,"o":"m 368 49 l 533 49 l 533 311 l 782 311 l 782 475 l 533 475 l 533 738 l 368 738 l 368 475 l 119 475 l 119 311 l 368 311 z "},"−":{"ha":903,"x_min":0,"x_max":0,"o":"m 119 311 l 782 311 l 782 475 l 119 475 z "},"×":{"ha":903,"x_min":0,"x_max":0,"o":"m 246 71 l 451 276 l 657 71 l 772 188 l 568 394 l 772 599 l 657 715 l 451 510 l 246 715 l 131 599 l 336 394 l 131 188 z "},"÷":{"ha":903,"x_min":0,"x_max":0,"o":"m 119 311 l 782 311 l 782 475 l 119 475 z m 451 10 b 579 122 524 10 579 56 b 451 238 579 190 524 238 b 324 122 379 238 324 190 b 451 10 324 56 379 10 z m 451 549 b 579 663 524 549 579 594 b 451 776 579 729 524 776 b 324 663 379 776 324 729 b 451 549 324 594 379 549 z "},"=":{"ha":903,"x_min":0,"x_max":0,"o":"m 119 463 l 782 463 l 782 626 l 119 626 z m 119 158 l 782 158 l 782 324 l 119 324 z "},"≠":{"ha":903,"x_min":0,"x_max":0,"o":"m 119 29 l 275 29 l 365 158 l 782 158 l 782 324 l 481 324 l 576 463 l 782 463 l 782 626 l 692 626 l 782 757 l 626 757 l 536 626 l 119 626 l 119 463 l 421 463 l 325 324 l 119 324 l 119 158 l 210 158 z "},">":{"ha":903,"x_min":0,"x_max":0,"o":"m 119 49 l 782 324 l 782 460 l 119 739 l 119 564 l 571 392 l 119 222 z "},"<":{"ha":903,"x_min":0,"x_max":0,"o":"m 783 49 l 783 222 l 332 392 l 783 564 l 783 739 l 121 460 l 121 324 z "},"≥":{"ha":903,"x_min":0,"x_max":0,"o":"m 119 268 l 782 463 l 782 607 l 119 807 l 119 646 l 571 535 l 119 428 z m 119 49 l 782 49 l 782 214 l 119 214 z "},"≤":{"ha":903,"x_min":0,"x_max":0,"o":"m 783 268 l 783 428 l 332 535 l 783 646 l 783 807 l 121 607 l 121 463 z m 783 49 l 783 214 l 121 214 l 121 49 z "},"±":{"ha":903,"x_min":0,"x_max":0,"o":"m 119 471 l 368 471 l 368 300 l 533 300 l 533 471 l 782 471 l 782 635 l 533 635 l 533 807 l 368 807 l 368 635 l 119 635 z m 119 49 l 782 49 l 782 214 l 119 214 z "},"≈":{"ha":903,"x_min":0,"x_max":0,"o":"m 618 419 b 782 475 678 419 735 439 l 782 635 b 635 585 729 600 686 585 b 283 678 504 585 414 678 b 119 622 224 678 165 658 l 119 463 b 267 513 171 497 214 513 b 618 419 397 513 486 419 z m 618 114 b 782 169 678 114 735 133 l 782 329 b 635 279 729 294 686 279 b 283 372 504 279 414 372 b 119 318 224 372 165 353 l 119 157 b 267 207 171 192 214 207 b 618 114 397 207 486 114 z "},"~":{"ha":903,"x_min":0,"x_max":0,"o":"m 618 267 b 782 321 678 267 735 286 l 782 481 b 635 432 729 446 686 432 b 283 524 504 432 414 524 b 119 469 224 524 165 504 l 119 310 b 267 360 171 344 214 360 b 618 267 397 360 486 267 z "},"¬":{"ha":903,"x_min":0,"x_max":0,"o":"m 617 49 l 782 49 l 782 475 l 119 475 l 119 311 l 617 311 z "},"^":{"ha":881,"x_min":0,"x_max":0,"o":"m 49 496 l 256 496 l 440 838 l 626 496 l 832 496 l 558 972 l 322 972 z "},"∞":{"ha":1408,"x_min":0,"x_max":0,"o":"m 1060 193 b 1356 465 1236 193 1356 307 b 1060 738 1356 624 1236 738 b 706 561 907 738 801 653 b 349 738 608 653 501 738 b 53 465 172 738 53 624 b 349 193 53 307 172 193 b 706 369 501 193 608 278 b 1060 193 801 278 907 193 z m 217 465 b 357 589 217 543 279 589 b 606 465 454 589 531 535 b 357 342 531 396 454 342 b 217 465 279 342 217 386 z m 806 465 b 1051 589 881 535 957 589 b 1192 465 1129 589 1192 543 b 1051 342 1192 386 1129 342 b 806 465 957 342 881 396 z "},"∅":{"ha":1006,"x_min":0,"x_max":0,"o":"m 503 -19 b 942 382 758 -19 942 146 b 825 664 942 494 899 593 l 933 783 l 800 783 l 744 722 b 503 783 676 761 594 783 b 63 382 246 783 63 617 b 181 100 63 268 107 171 l 72 -19 l 206 -19 l 260 40 b 503 -19 329 3 411 -19 z m 503 151 b 385 178 458 151 418 161 l 696 521 b 738 382 722 483 738 436 b 503 151 738 246 643 151 z m 268 382 b 503 611 268 518 363 611 b 621 585 547 611 586 601 l 310 243 b 268 382 283 281 268 328 z "},"∫":{"ha":614,"x_min":0,"x_max":0,"o":"m -43 -353 l 60 -353 b 386 -21 281 -353 386 -256 l 386 863 b 551 1044 386 999 428 1044 l 649 1044 l 649 1210 l 531 1210 b 206 878 311 1210 206 1113 l 206 -6 b 39 -187 206 -142 164 -187 l -43 -187 z "},"Ω":{"ha":1217,"x_min":0,"x_max":0,"o":"m 101 0 l 536 0 l 536 169 b 314 482 407 206 314 317 b 608 792 314 681 435 792 b 901 482 781 792 901 681 b 681 169 901 317 808 206 l 681 0 l 1115 0 l 1115 178 l 950 178 b 1136 521 1069 257 1136 381 b 608 992 1136 807 911 992 b 81 521 306 992 81 807 b 267 178 81 381 147 257 l 101 178 z "},"∆":{"ha":1031,"x_min":0,"x_max":0,"o":"m 17 0 l 1014 0 l 1014 7 l 654 972 l 382 972 l 17 7 z m 301 174 l 517 793 l 729 174 z "},"∏":{"ha":1222,"x_min":0,"x_max":0,"o":"m 208 -181 l 425 -181 l 425 774 l 797 774 l 797 -181 l 1014 -181 l 1014 774 l 1167 774 l 1167 972 l 56 972 l 56 774 l 208 774 z "},"∑":{"ha":896,"x_min":0,"x_max":0,"o":"m 60 -224 l 829 -224 l 829 -42 l 343 -42 l 658 379 l 658 388 l 357 790 l 819 790 l 819 972 l 74 972 l 74 822 l 410 383 l 60 -74 z "},"√":{"ha":994,"x_min":0,"x_max":0,"o":"m 403 0 l 626 0 l 982 1042 l 789 1042 l 513 199 l 361 661 l 35 661 l 35 493 l 228 493 z "},"∂":{"ha":1000,"x_min":0,"x_max":0,"o":"m 476 -19 b 929 469 749 -19 931 135 b 296 1129 928 814 707 1010 l 224 969 b 711 586 499 882 675 776 b 438 711 649 668 550 711 b 63 350 222 711 63 569 b 476 -19 63 125 231 -19 z m 493 157 b 281 350 363 157 281 239 b 493 544 281 464 363 544 b 706 350 625 544 706 469 b 493 157 706 236 624 157 z "},"µ":{"ha":983,"x_min":0,"x_max":0,"o":"m 101 -278 l 315 -278 l 315 7 b 428 -15 347 -8 385 -15 b 689 218 556 -15 653 81 l 692 218 l 668 0 l 882 0 l 882 722 l 668 722 l 668 351 b 481 160 668 235 596 160 b 315 338 374 160 315 219 l 315 722 l 101 722 z "},"%":{"ha":1150,"x_min":0,"x_max":0,"o":"m 200 0 l 390 0 l 950 972 l 760 972 z m 857 -24 b 1082 192 988 -24 1082 67 b 857 407 1082 317 988 407 b 632 192 726 407 632 317 b 857 -24 632 67 726 -24 z m 857 117 b 782 192 813 117 782 147 b 857 267 782 238 813 267 b 932 192 903 267 932 238 b 857 117 932 147 903 117 z m 293 565 b 517 781 422 565 517 656 b 293 996 517 906 422 996 b 68 781 163 996 68 906 b 293 565 68 656 163 565 z m 293 706 b 217 781 247 706 217 735 b 293 856 217 825 247 856 b 368 781 338 856 368 825 b 293 706 368 735 338 706 z "},"‰":{"ha":1660,"x_min":0,"x_max":0,"o":"m 200 0 l 390 0 l 950 972 l 760 972 z m 853 -24 b 1078 192 982 -24 1078 67 b 853 407 1078 317 982 407 b 628 192 722 407 628 317 b 853 -24 628 67 722 -24 z m 853 117 b 778 192 807 117 778 147 b 853 267 778 238 807 267 b 928 192 897 267 928 238 b 853 117 928 147 897 117 z m 293 565 b 517 781 422 565 517 656 b 293 996 517 906 422 996 b 68 781 163 996 68 906 b 293 565 68 656 163 565 z m 293 706 b 217 781 247 706 217 735 b 293 856 217 825 247 856 b 368 781 338 856 368 825 b 293 706 368 735 338 706 z m 1367 -24 b 1592 192 1497 -24 1592 67 b 1367 407 1592 317 1497 407 b 1142 192 1236 407 1142 317 b 1367 -24 1142 67 1236 -24 z m 1367 117 b 1292 192 1322 117 1292 147 b 1367 267 1292 238 1322 267 b 1442 192 1411 267 1442 238 b 1367 117 1442 147 1411 117 z "},"↑":{"ha":1389,"x_min":0,"x_max":0,"o":"m 289 497 l 601 725 l 601 0 l 788 0 l 788 725 l 1100 497 l 1100 708 l 701 992 l 688 992 l 289 708 z "},"→":{"ha":1389,"x_min":0,"x_max":0,"o":"m 694 100 l 913 100 l 1194 489 l 1194 503 l 913 892 l 694 892 l 922 589 l 194 589 l 194 403 l 922 403 z "},"↓":{"ha":1389,"x_min":0,"x_max":0,"o":"m 289 475 l 289 264 l 688 -19 l 701 -19 l 1100 264 l 1100 475 l 788 247 l 788 972 l 601 972 l 601 247 z "},"←":{"ha":1389,"x_min":0,"x_max":0,"o":"m 694 100 l 467 403 l 1194 403 l 1194 589 l 467 589 l 694 892 l 476 892 l 194 503 l 194 489 l 476 100 z "},"◊":{"ha":989,"x_min":0,"x_max":0,"o":"m 413 0 l 575 0 l 933 481 l 933 493 l 575 972 l 413 972 l 56 493 l 56 481 z m 258 486 l 494 799 l 731 486 l 494 174 z "},"̈":{"ha":0,"x_min":0,"x_max":0,"o":"m 543 831 b 665 943 611 831 665 878 b 543 1056 665 1010 611 1056 b 424 943 476 1056 424 1010 b 543 831 424 878 476 831 z m 190 831 b 311 943 257 831 311 878 b 190 1056 311 1010 257 1056 b 69 943 122 1056 69 1010 b 190 831 69 878 122 831 z "},"̇":{"ha":0,"x_min":0,"x_max":0,"o":"m 196 831 b 324 943 268 831 324 878 b 196 1056 324 1010 268 1056 b 69 943 125 1056 69 1010 b 196 831 69 878 125 831 z "},"̀":{"ha":0,"x_min":0,"x_max":0,"o":"m 267 818 l 443 818 l 292 1046 l 69 1046 z "},"́":{"ha":0,"x_min":0,"x_max":0,"o":"m 69 818 l 246 818 l 443 1046 l 221 1046 z "},"̋":{"ha":0,"x_min":0,"x_max":0,"o":"m 336 818 l 492 818 l 649 1046 l 456 1046 z m 69 818 l 225 818 l 382 1046 l 189 1046 z "},"̂":{"ha":0,"x_min":0,"x_max":0,"o":"m 69 818 l 242 818 l 364 925 l 485 818 l 657 818 l 454 1046 l 272 1046 z "},"̌":{"ha":0,"x_min":0,"x_max":0,"o":"m 272 818 l 454 818 l 657 1046 l 485 1046 l 364 939 l 242 1046 l 69 1046 z "},"̆":{"ha":0,"x_min":0,"x_max":0,"o":"m 331 818 b 593 1046 496 818 594 899 l 433 1046 b 331 951 431 979 397 951 b 229 1046 265 951 232 979 l 69 1046 b 331 818 68 899 167 818 z "},"̊":{"ha":0,"x_min":0,"x_max":0,"o":"m 290 818 b 511 963 428 818 511 874 b 290 1107 511 1053 428 1107 b 69 963 151 1107 69 1053 b 290 818 69 874 151 818 z m 290 910 b 215 963 243 910 215 931 b 290 1015 215 996 243 1015 b 365 963 338 1015 365 996 b 290 910 365 931 338 910 z "},"̃":{"ha":0,"x_min":0,"x_max":0,"o":"m 100 818 l 232 818 b 221 864 226 831 221 847 b 257 900 221 885 232 900 b 476 818 317 900 365 818 b 607 938 556 818 607 869 b 576 1046 607 979 593 1018 l 444 1046 b 456 1000 450 1035 456 1018 b 419 964 456 981 444 964 b 200 1046 360 964 311 1046 b 69 928 121 1046 69 994 b 100 818 69 886 82 847 z "},"̄":{"ha":0,"x_min":0,"x_max":0,"o":"m 69 847 l 525 847 l 525 968 l 69 968 z "},"̒":{"ha":0,"x_min":0,"x_max":0,"o":"m 69 818 l 275 818 l 318 1104 l 164 1104 z "},"̦":{"ha":0,"x_min":0,"x_max":0,"o":"m 69 -382 l 225 -382 l 318 -97 l 113 -97 z "},"̧":{"ha":0,"x_min":0,"x_max":0,"o":"m 224 -337 b 393 -203 328 -337 393 -287 b 228 -82 393 -111 318 -74 l 281 3 l 176 3 l 88 -165 b 172 -160 113 -161 139 -160 b 232 -192 213 -160 232 -171 b 178 -224 232 -214 211 -224 b 69 -196 143 -224 107 -211 l 69 -312 b 224 -337 118 -328 158 -337 z "},"̨":{"ha":0,"x_min":0,"x_max":0,"o":"m 206 -337 b 332 -312 257 -337 297 -328 l 332 -189 b 278 -200 314 -196 296 -200 b 239 -161 253 -200 239 -187 b 338 0 239 -117 278 -61 l 215 0 b 69 -226 133 -72 69 -142 b 206 -337 69 -296 121 -337 z "},"¨":{"ha":735,"x_min":0,"x_max":0,"o":"m 543 831 b 665 943 611 831 665 878 b 543 1056 665 1010 611 1056 b 424 943 476 1056 424 1010 b 543 831 424 878 476 831 z m 190 831 b 311 943 257 831 311 878 b 190 1056 311 1010 257 1056 b 69 943 122 1056 69 1010 b 190 831 69 878 122 831 z "},"˙":{"ha":393,"x_min":0,"x_max":0,"o":"m 196 831 b 324 943 268 831 324 878 b 196 1056 324 1010 268 1056 b 69 943 125 1056 69 1010 b 196 831 69 878 125 831 z "},"`":{"ha":513,"x_min":0,"x_max":0,"o":"m 267 818 l 443 818 l 292 1046 l 69 1046 z "},"´":{"ha":513,"x_min":0,"x_max":0,"o":"m 69 818 l 246 818 l 443 1046 l 221 1046 z "},"˝":{"ha":718,"x_min":0,"x_max":0,"o":"m 336 818 l 492 818 l 649 1046 l 456 1046 z m 69 818 l 225 818 l 382 1046 l 189 1046 z "},"ˆ":{"ha":726,"x_min":0,"x_max":0,"o":"m 69 818 l 242 818 l 364 925 l 485 818 l 657 818 l 454 1046 l 272 1046 z "},"ˇ":{"ha":726,"x_min":0,"x_max":0,"o":"m 272 818 l 454 818 l 657 1046 l 485 1046 l 364 939 l 242 1046 l 69 1046 z "},"˘":{"ha":663,"x_min":0,"x_max":0,"o":"m 331 818 b 593 1046 496 818 594 899 l 433 1046 b 331 951 431 979 397 951 b 229 1046 265 951 232 979 l 69 1046 b 331 818 68 899 167 818 z "},"˚":{"ha":581,"x_min":0,"x_max":0,"o":"m 290 818 b 511 963 428 818 511 874 b 290 1107 511 1053 428 1107 b 69 963 151 1107 69 1053 b 290 818 69 874 151 818 z m 290 910 b 215 963 243 910 215 931 b 290 1015 215 996 243 1015 b 365 963 338 1015 365 996 b 290 910 365 931 338 910 z "},"˜":{"ha":676,"x_min":0,"x_max":0,"o":"m 100 818 l 232 818 b 221 864 226 831 221 847 b 257 900 221 885 232 900 b 476 818 317 900 365 818 b 607 938 556 818 607 869 b 576 1046 607 979 593 1018 l 444 1046 b 456 1000 450 1035 456 1018 b 419 964 456 981 444 964 b 200 1046 360 964 311 1046 b 69 928 121 1046 69 994 b 100 818 69 886 82 847 z "},"¯":{"ha":594,"x_min":0,"x_max":0,"o":"m 69 847 l 525 847 l 525 968 l 69 968 z "},"¸":{"ha":463,"x_min":0,"x_max":0,"o":"m 224 -337 b 393 -203 328 -337 393 -287 b 228 -82 393 -111 318 -74 l 281 3 l 176 3 l 88 -165 b 172 -160 113 -161 139 -160 b 232 -192 213 -160 232 -171 b 178 -224 232 -214 211 -224 b 69 -196 143 -224 107 -211 l 69 -312 b 224 -337 118 -328 158 -337 z "},"˛":{"ha":407,"x_min":0,"x_max":0,"o":"m 206 -337 b 332 -312 257 -337 297 -328 l 332 -189 b 278 -200 314 -196 296 -200 b 239 -161 253 -200 239 -187 b 338 0 239 -117 278 -61 l 215 0 b 69 -226 133 -72 69 -142 b 206 -337 69 -296 121 -337 z "}}}
